{
.appVersion = "3414";
.formatVersion = 3;
DisplayStrings = (
"¡fill!"
);
axes = (
{
name = Weight;
tag = wght;
}
);
classes = (
{
automatic = 1;
code = "A Aacute Abreve Acircumflex Adieresis Agrave Amacron Aogonek Aring Atilde AE B C Cacute Ccaron Ccedilla Cdotaccent D Eth Dcaron Dcroat E Eacute Ecaron Ecircumflex Edieresis Edotaccent Egrave Emacron Eogonek F G Gbreve Gcommaaccent Gdotaccent H Hbar I IJ Iacute Iacute_J.loclNLD Icircumflex Idieresis Idotaccent Igrave Imacron Iogonek J K Kcommaaccent L Lacute Lcaron Lcommaaccent Ldot Lslash M N Nacute Ncaron Ncommaaccent Eng Ntilde O Oacute Ocircumflex Odieresis Ograve Ohungarumlaut Omacron Oslash Otilde OE P Thorn Q R Racute Rcaron Rcommaaccent S Sacute Scaron Scedilla Scommaaccent Germandbls T Tbar Tcaron Tcedilla Tcommaaccent U Uacute Ucircumflex Udieresis Ugrave Uhungarumlaut Umacron Uogonek Uring V W Wacute Wcircumflex Wdieresis Wgrave X Y Yacute Ycircumflex Ydieresis Ygrave Z Zacute Zcaron Zdotaccent T_h Delta Omega";
name = Uppercase;
},
{
code = "space nbspace";
name = Space;
},
{
code = "ampersand approxequal asciicircum asciitilde bullet bulletoperator colon comma divide downArrow ellipsis emdash endash equal exclam greater greaterequal guillemetleft guillemetright guilsinglleft guilsinglright hyphen infinity leftArrow leftRightArrow less lessequal logicalnot minus multiply northEastArrow northWestArrow notequal numbersign period periodcentered plus plusminus parenleft parenright question quotedbl quotedblleft quotedblright quoteleft quoteright quotesingle rightArrow semicolon softhyphen southEastArrow southWestArrow space nbspace upArrow upDownArrow rupeeIndian";
name = LatinPunctuation;
}
);
customParameters = (
{
name = fsType;
value = (
3
);
}
);
date = "2025-05-12 05:56:06 +0000";
familyName = "Inknut Antiqua";
featurePrefixes = (
{
automatic = 1;
code = "languagesystem DFLT dflt;

languagesystem latn dflt;
languagesystem latn AZE;
languagesystem latn CRT;
languagesystem latn KAZ;

glyphs = (
{
glyphname = A;
kernLeft = A;
kernRight = A;
lastChange = "2014-07-08 11:50:50 +0000";
layers = (
{
anchors = (
{
name = ogonek;
pos = (852,0);
},
{
name = top;
pos = (435,786);
}
);
layerId = "E07B5D26-C0CD-4D0E-A705-659FB2222D21";
name = Regular;
shapes = (
{
closed = 1;
nodes = (
(636,334,l),
(228,334,l),
(208,289,l),
(636,289,l)
);
},
{
angle = 180;
pos = (870,786);
ref = V;
}
);
width = 870;
},
{
anchors = (
{
name = ogonek;
pos = (913,0);
},
{
name = top;
pos = (465,786);
}
);
background = {
shapes = (
{
closed = 1;
nodes = (
(636,354,l),
(228,354,l),
(208,269,l),
(636,269,l)
);
}
);
};
layerId = "2CCCAF06-0AAA-44C6-8F00-0A68246BB68E";
name = Bold;
shapes = (
{
closed = 1;
nodes = (
(636,354,l),
(228,354,l),
(208,259,l),
(636,259,l)
);
},
{
angle = 180;
pos = (943,786);
ref = V;
}
);
width = 943;
}
);
unicode = 65;
},
{
color = 7;
glyphname = AE;
kernLeft = A;
kernRight = E;
lastChange = "2014-10-27 10:33:06 +0000";
layers = (
{
background = {
shapes = (
{
closed = 1;
nodes = (
(444,754,l),
(39,31,l),
(115,65,l),
(506,759,l)
);
},
{
closed = 1;
nodes = (
(-3,31,l),
(-3,0,l),
(271,0,l),
(291,40,l),
(103,114,l)
);
},
{
closed = 1;
nodes = (
(376,31,l),
(376,0,l),
(517,0,l),
(537,40,l),
(482,114,l)
);
},
{
closed = 1;
nodes = (
(534,45,l),
(534,0,l),
(992,0,l),
(992,45,l)
);
},
{
closed = 1;
nodes = (
(282,424,l),
(262,379,l),
(782,379,l),
(782,424,l)
);
},
{
closed = 1;
nodes = (
(470,786,l),
(470,0,l),
(595,0,l),
(595,786,l)
);
},
{
closed = 1;
nodes = (
(827,30,l),
(925,7,l),
(1000,-18,l),
(1000,232,l),
(970,242,l)
);
},
{
closed = 1;
nodes = (
(306,786,l),
(286,746,l),
(504,672,l),
(495,786,l)
);
},
{
closed = 1;
nodes = (
(795,552,l),
(712,406,l),
(786,228,l),
(826,248,l),
(826,552,l)
);
},
{
closed = 1;
nodes = (
(534,786,l),
(534,741,l),
(982,741,l),
(982,786,l)
);
},
{
closed = 1;
nodes = (
(915,779,l),
(817,776,l),
(960,564,l),
(990,574,l),
(990,804,l)
);
}
);
};
layerId = "E07B5D26-C0CD-4D0E-A705-659FB2222D21";
name = Regular;
shapes = (
{
closed = 1;
nodes = (
(-3,31,l),
(-3,0,l),
(271,0,l),
(291,40,l),
(103,114,l)
);
},
{
closed = 1;
nodes = (
(444,754,l),
(39,31,l),
(115,65,l),
(506,759,l)
);
},
{
closed = 1;
nodes = (
(306,786,l),
(286,746,l),
(445,692,l),
(495,786,l)
);
},
{
closed = 1;
nodes = (
(534,786,l),
(534,741,l),
(982,741,l),
(982,786,l)
);
},
{
closed = 1;
nodes = (
(915,779,l),
(817,776,l),
(960,564,l),
(990,574,l),
(990,804,l)
);
},
{
closed = 1;
nodes = (
(470,786,l),
(470,0,l),
(595,0,l),
(595,786,l)
);
},
{
closed = 1;
nodes = (
(282,424,l),
(262,379,l),
(782,379,l),
(782,424,l)
);
},
{
closed = 1;
nodes = (
(795,552,l),
(712,406,l),
(786,228,l),
(826,248,l),
(826,552,l)
);
},
{
closed = 1;
nodes = (
(376,31,l),
(376,0,l),
(517,0,l),
(537,40,l),
(482,114,l)
);
},
{
closed = 1;
nodes = (
(534,45,l),
(534,0,l),
(992,0,l),
(992,45,l)
);
},
{
closed = 1;
nodes = (
(827,30,l),
(925,7,l),
(1000,-18,l),
(1000,232,l),
(970,242,l)
);
}
);
width = 1100;
},
{
background = {
shapes = (
{
closed = 1;
nodes = (
(495,754,l),
(90,31,l),
(166,65,l),
(557,759,l)
);
},
{
closed = 1;
nodes = (
(48,31,l),
(48,0,l),
(322,0,l),
(342,40,l),
(154,114,l)
);
},
{
closed = 1;
nodes = (
(427,31,l),
(427,0,l),
(568,0,l),
(588,40,l),
(533,114,l)
);
},
{
closed = 1;
nodes = (
(585,45,l),
(585,0,l),
(1043,0,l),
(1043,45,l)
);
},
{
closed = 1;
nodes = (
(333,424,l),
(313,379,l),
(833,379,l),
(833,424,l)
);
},
{
closed = 1;
nodes = (
(521,786,l),
(521,0,l),
(646,0,l),
(646,786,l)
);
},
{
closed = 1;
nodes = (
(878,30,l),
(976,7,l),
(1051,-18,l),
(1051,232,l),
(1021,242,l)
);
},
{
closed = 1;
nodes = (
(357,786,l),
(337,746,l),
(555,672,l),
(546,786,l)
);
},
{
closed = 1;
nodes = (
(846,552,l),
(763,406,l),
(837,228,l),
(877,248,l),
(877,552,l)
);
},
{
closed = 1;
nodes = (
(585,786,l),
(585,741,l),
(1033,741,l),
(1033,786,l)
);
},
{
closed = 1;
nodes = (
(966,779,l),
(868,776,l),
(1011,564,l),
(1041,574,l),
(1041,804,l)
);
}
);
};
layerId = "2CCCAF06-0AAA-44C6-8F00-0A68246BB68E";
name = Bold;
shapes = (
{
closed = 1;
nodes = (
(0,71,l),
(0,0,l),
(294,0,l),
(334,80,l),
(166,194,l)
);
},
{
closed = 1;
nodes = (
(387,754,l),
(82,71,l),
(226,105,l),
(514,759,l)
);
},
{
closed = 1;
nodes = (
(267,786,l),
(227,706,l),
(415,654,l),
(506,786,l)
);
},
{
closed = 1;
nodes = (
(585,786,l),
(585,691,l),
(1063,691,l),
(1063,786,l)
);
},
{
closed = 1;
nodes = (
(956,779,l),
(818,776,l),
(1001,504,l),
(1071,534,l),
(1071,804,l)
);
},
{
closed = 1;
nodes = (
(481,786,l),
(481,0,l),
(696,0,l),
(696,786,l)
);
},
{
closed = 1;
nodes = (
(313,449,l),
(263,354,l),
(853,354,l),
(853,449,l)
);
},
{
closed = 1;
nodes = (
(826,552,l),
(723,406,l),
(817,228,l),
(897,268,l),
(897,552,l)
);
},
{
closed = 1;
nodes = (
(387,71,l),
(387,0,l),
(568,0,l),
(588,80,l),
(493,154,l)
);
},
{
closed = 1;
nodes = (
(585,95,l),
(585,0,l),
(1073,0,l),
(1073,95,l)
);
},
{
closed = 1;
nodes = (
(848,70,l),
(966,7,l),
(1081,-18,l),
(1081,272,l),
(1011,302,l)
);
}
);
width = 1131;
}
);
metricLeft = A;
metricRight = E;
unicode = 198;
},
{
color = 1;
glyphname = B;
kernLeft = I;
lastChange = "2014-10-27 10:33:07 +0000";
layers = (
{
background = {
shapes = (
{
closed = 1;
nodes = (
(154,786,l),
(154,0,l),
(279,0,l),
(279,786,l)
);
},
{
closed = 1;
nodes = (
(230,755,l),
(230,786,l),
(70,786,l),
(50,746,l),
(186,702,l)
);
},
{
closed = 1;
nodes = (
(60,31,l),
(60,0,l),
(227,0,l),
(247,40,l),
(166,114,l)
);
},
{
closed = 1;
nodes = (
(203,605,l),
(243,683,o),
(306,732,o),
(387,732,cs),
(503,732,o),
(554,651,o),
(554,553,cs),
(554,476,o),
(505,432,o),
(422,432,cs),
(316,432,o),
(248,465,o),
(205,515,c),
(187,383,l),
(291,383,o),
(311,373,o),
(394,373,cs),
(517,373,o),
(689,476,o),
(689,600,cs),
(689,709,o),
(602,796,o),
(465,796,cs),
(381,796,o),
(332,786,o),
(186,786,c)
);
},
{
closed = 1;
nodes = (
(402,374,l),
(534,374,o),
(594,292,o),
(594,183,cs),
(594,108,o),
(533,64,o),
(437,64,cs),
(326,64,o),
(250,93,o),
(205,137,c),
(187,0,l),
(296,0,o),
(322,-10,o),
(409,-10,cs),
(544,-10,o),
(729,97,o),
(729,230,cs),
(729,335,o),
(645,418,o),
(514,435,c)
);
}
);
};
layerId = "E07B5D26-C0CD-4D0E-A705-659FB2222D21";
name = Regular;
shapes = (
{
closed = 1;
nodes = (
(154,786,l),
(154,0,l),
(279,0,l),
(279,786,l)
);
},
{
closed = 1;
nodes = (
(230,755,l),
(230,786,l),
(70,786,l),
(50,746,l),
(186,702,l)
);
},
{
closed = 1;
nodes = (
(60,31,l),
(60,0,l),
(227,0,l),
(247,40,l),
(166,114,l)
);
},
{
closed = 1;
nodes = (
(203,605,l),
(243,683,o),
(306,732,o),
(387,732,cs),
(503,732,o),
(554,651,o),
(554,553,cs),
(554,476,o),
(505,432,o),
(422,432,cs),
(205,432,l),
(205,373,l),
(394,373,ls),
(517,373,o),
(689,476,o),
(689,600,cs),
(689,709,o),
(602,796,o),
(465,796,cs),
(381,796,o),
(332,786,o),
(186,786,c)
);
},
{
closed = 1;
nodes = (
(402,374,l),
(534,374,o),
(594,300,o),
(594,197,cs),
(594,116,o),
(533,64,o),
(437,64,cs),
(326,64,o),
(250,93,o),
(205,137,c),
(187,0,l),
(296,0,o),
(322,-10,o),
(409,-10,cs),
(544,-10,o),
(729,97,o),
(729,230,cs),
(729,335,o),
(645,418,o),
(514,435,c)
);
}
);
width = 789;
},
{
background = {
shapes = (
{
closed = 1;
nodes = (
(134,786,l),
(134,0,l),
(349,0,l),
(349,786,l)
);
},
{
closed = 1;
nodes = (
(250,715,l),
(250,786,l),
(60,786,l),
(20,706,l),
(206,662,l)
);
},
{
closed = 1;
nodes = (
(40,71,l),
(40,0,l),
(247,0,l),
(267,80,l),
(146,154,l)
);
},
{
closed = 1;
nodes = (
(223,565,l),
(263,643,o),
(326,692,o),
(407,692,cs),
(488,692,o),
(524,629,o),
(524,553,cs),
(524,468,o),
(496,434,o),
(442,434,cs),
(336,434,o),
(268,467,o),
(225,517,c),
(207,360,l),
(311,360,o),
(331,350,o),
(414,350,cs),
(553,350,o),
(749,461,o),
(749,600,cs),
(749,709,o),
(646,796,o),
(485,796,cs),
(401,796,o),
(352,786,o),
(206,786,c)
);
},
{
closed = 1;
nodes = (
(422,351,l),
(519,351,o),
(564,277,o),
(564,183,cs),
(564,132,o),
(523,104,o),
(457,104,cs),
(346,104,o),
(270,149,o),
(225,217,c),
(207,0,l),
(316,0,o),
(342,-10,o),
(429,-10,cs),
(580,-10,o),
(789,97,o),
(789,230,cs),
(789,334,o),
(706,419,o),
(574,447,c)
);
}
);
};
layerId = "2CCCAF06-0AAA-44C6-8F00-0A68246BB68E";
name = Bold;
shapes = (
{
closed = 1;
nodes = (
(134,786,l),
(134,0,l),
(349,0,l),
(349,786,l)
);
},
{
closed = 1;
nodes = (
(250,715,l),
(250,786,l),
(60,786,l),
(20,706,l),
(206,662,l)
);
},
{
closed = 1;
nodes = (
(40,71,l),
(40,0,l),
(247,0,l),
(267,80,l),
(146,154,l)
);
},
{
closed = 1;
nodes = (
(223,565,l),
(263,643,o),
(326,692,o),
(407,692,cs),
(488,692,o),
(524,629,o),
(524,543,cs),
(524,468,o),
(496,434,o),
(442,434,cs),
(225,434,l),
(225,350,l),
(414,350,ls),
(553,350,o),
(749,461,o),
(749,600,cs),
(749,709,o),
(646,796,o),
(485,796,cs),
(401,796,o),
(352,786,o),
(206,786,c)
);
},
{
closed = 1;
nodes = (
(422,351,l),
(519,351,o),
(564,285,o),
(564,203,cs),
(564,140,o),
(523,104,o),
(457,104,cs),
(346,104,o),
(270,149,o),
(225,217,c),
(207,0,l),
(316,0,o),
(342,-10,o),
(429,-10,cs),
(580,-10,o),
(789,97,o),
(789,230,cs),
(789,334,o),
(706,419,o),
(574,447,c)
);
}
);
width = 799;
}
);
metricLeft = I;
metricRight = P;
unicode = 66;
},
{
glyphname = C;
kernLeft = O;
kernRight = C;
lastChange = "2014-10-27 10:33:10 +0000";
layers = (
{
anchors = (
{
name = bottom;
pos = (430,0);
},
{
name = top;
pos = (435,786);
}
);
background = {
shapes = (
{
closed = 1;
nodes = (
(321,806,o),
(70,623,o),
(70,375,cs),
(70,146,o),
(214,-20,o),
(427,-20,cs),
(469,-20,o),
(518,-18,o),
(573,2,c),
(757,145,l),
(727,193,l),
(609,98,o),
(534,65,o),
(485,65,cs),
(292,64,o),
(205,234,o),
(205,423,cs),
(205,596,o),
(308,722,o),
(442,722,cs),
(535,722,o),
(620,678,o),
(686,565,c),
(724,565,l),
(724,759,l),
(682,782,o),
(571,806,o),
(500,806,cs)
);
}
);
};
layerId = "E07B5D26-C0CD-4D0E-A705-659FB2222D21";
name = Regular;
shapes = (
{
closed = 1;
nodes = (
(321,806,o),
(70,623,o),
(70,375,cs),
(70,146,o),
(214,-20,o),
(427,-20,cs),
(469,-20,o),
(518,-18,o),
(573,2,c),
(757,145,l),
(727,193,l),
(609,98,o),
(534,65,o),
(485,65,cs),
(292,64,o),
(205,234,o),
(205,423,cs),
(205,596,o),
(308,722,o),
(442,722,cs),
(535,722,o),
(620,678,o),
(686,565,c),
(724,565,l),
(724,759,l),
(682,782,o),
(571,806,o),
(500,806,cs)
);
}
);
width = 820;
},
{
anchors = (
{
name = bottom;
pos = (450,0);
},
{
name = top;
pos = (455,786);
}
);
background = {
shapes = (
{
closed = 1;
nodes = (
(341,806,o),
(90,623,o),
(90,375,cs),
(90,146,o),
(234,-20,o),
(447,-20,cs),
(489,-20,o),
(538,-18,o),
(593,2,c),
(777,145,l),
(747,193,l),
(629,98,o),
(554,65,o),
(505,65,cs),
(312,64,o),
(225,234,o),
(225,423,cs),
(225,596,o),
(328,722,o),
(462,722,cs),
(555,722,o),
(640,678,o),
(706,565,c),
(744,565,l),
(744,759,l),
(702,782,o),
(591,806,o),
(520,806,cs)
);
}
);
};
layerId = "2CCCAF06-0AAA-44C6-8F00-0A68246BB68E";
name = Bold;
shapes = (
{
closed = 1;
nodes = (
(325,806,o),
(50,623,o),
(50,375,cs),
(50,146,o),
(210,-20,o),
(447,-20,cs),
(501,-20,o),
(562,-18,o),
(633,2,c),
(817,145,l),
(771,219,l),
(641,156,o),
(559,135,o),
(505,135,cs),
(354,134,o),
(285,269,o),
(285,423,cs),
(285,566,o),
(364,672,o),
(462,672,cs),
(535,672,o),
(605,634,o),
(656,535,c),
(784,535,l),
(784,759,l),
(734,782,o),
(603,806,o),
(520,806,cs)
);
}
);
width = 847;
}
);
metricLeft = O;
unicode = 67;
},
{
glyphname = D;
kernLeft = I;
kernRight = O;
lastChange = "2014-10-27 10:33:20 +0000";
layers = (
{
anchors = (
{
name = centre;
pos = (250,414);
},
{
name = top;
pos = (405,786);
}
);
background = {
shapes = (
{
closed = 1;
nodes = (
(60,31,l),
(60,0,l),
(201,0,l),
(221,40,l),
(166,114,l)
);
},
{
closed = 1;
nodes = (
(154,786,l),
(154,0,l),
(279,0,l),
(279,786,l)
);
},
{
closed = 1;
nodes = (
(203,605,l),
(245,683,o),
(317,732,o),
(402,732,cs),
(611,732,o),
(704,559,o),
(704,363,cs),
(704,190,o),
(589,64,o),
(437,64,cs),
(326,64,o),
(250,93,o),
(205,137,c),
(187,0,l),
(296,0,o),
(322,-10,o),
(409,-10,cs),
(588,-10,o),
(839,169,o),
(839,410,cs),
(839,633,o),
(696,796,o),
(480,796,cs),
(393,796,o),
(342,786,o),
(186,786,c)
);
},
{
closed = 1;
nodes = (
(230,755,l),
(230,786,l),
(70,786,l),
(50,746,l),
(186,702,l)
);
}
);
};
layerId = "E07B5D26-C0CD-4D0E-A705-659FB2222D21";
name = Regular;
shapes = (
{
closed = 1;
nodes = (
(60,31,l),
(60,0,l),
(201,0,l),
(221,40,l),
(166,114,l)
);
},
{
closed = 1;
nodes = (
(154,786,l),
(154,0,l),
(279,0,l),
(279,786,l)
);
},
{
closed = 1;
nodes = (
(203,605,l),
(243,683,o),
(311,732,o),
(392,732,cs),
(594,732,o),
(684,559,o),
(684,363,cs),
(684,190,o),
(573,64,o),
(427,64,cs),
(321,64,o),
(248,93,o),
(205,137,c),
(187,0,l),
(291,0,o),
(316,-10,o),
(399,-10,cs),
(574,-10,o),
(819,169,o),
(819,410,cs),
(819,633,o),
(680,796,o),
(470,796,cs),
(386,796,o),
(337,786,o),
(186,786,c)
);
},
{
closed = 1;
nodes = (
(230,755,l),
(230,786,l),
(70,786,l),
(50,746,l),
(186,702,l)
);
}
);
width = 889;
},
{
anchors = (
{
name = centre;
pos = (269,436);
},
{
name = top;
pos = (425,786);
}
);
background = {
shapes = (
{
closed = 1;
nodes = (
(80,31,l),
(80,0,l),
(221,0,l),
(241,40,l),
(186,114,l)
);
},
{
closed = 1;
nodes = (
(174,786,l),
(174,0,l),
(299,0,l),
(299,786,l)
);
},
{
closed = 1;
nodes = (
(223,605,l),
(263,683,o),
(331,732,o),
(412,732,cs),
(614,732,o),
(704,559,o),
(704,363,cs),
(704,190,o),
(593,64,o),
(447,64,cs),
(341,64,o),
(268,93,o),
(225,137,c),
(207,0,l),
(311,0,o),
(336,-10,o),
(419,-10,cs),
(594,-10,o),
(839,169,o),
(839,410,cs),
(839,633,o),
(700,796,o),
(490,796,cs),
(406,796,o),
(357,786,o),
(206,786,c)
);
},
{
closed = 1;
nodes = (
(250,755,l),
(250,786,l),
(90,786,l),
(70,746,l),
(206,702,l)
);
}
);
};
guides = (
{
pos = (450,683);
}
);
layerId = "2CCCAF06-0AAA-44C6-8F00-0A68246BB68E";
name = Bold;
shapes = (
{
closed = 1;
nodes = (
(40,71,l),
(40,0,l),
(271,0,l),
(291,80,l),
(146,154,l)
);
},
{
closed = 1;
nodes = (
(134,786,l),
(134,0,l),
(349,0,l),
(349,786,l)
);
},
{
closed = 1;
nodes = (
(273,575,l),
(296,647,o),
(351,692,o),
(412,692,cs),
(579,692,o),
(654,539,o),
(654,363,cs),
(654,208,o),
(563,94,o),
(447,94,cs),
(366,94,o),
(312,119,o),
(275,157,c),
(217,0,l),
(316,0,o),
(340,-10,o),
(419,-10,cs),
(614,-10,o),
(889,169,o),
(889,410,cs),
(889,633,o),
(730,796,o),
(490,796,cs),
(409,796,o),
(362,786,o),
(216,786,c)
);
},
{
closed = 1;
nodes = (
(300,715,l),
(300,786,l),
(60,786,l),
(20,706,l),
(166,662,l)
);
}
);
width = 939;
}
);
metricLeft = I;
metricRight = O;
unicode = 68;
},
{
color = 5;
glyphname = Eth;
kernLeft = I;
kernRight = O;
lastChange = "2014-10-27 10:33:21 +0000";
layers = (
{
guides = (
{
angle = 90;
pos = (60,171);
}
);
layerId = "E07B5D26-C0CD-4D0E-A705-659FB2222D21";
name = Regular;
shapes = (
{
ref = D;
},
{
pos = (220,334);
ref = macron;
scale = (0.1,0.1);
},
{
anchor = centre;
pos = (220,334);
ref = macron.case;
scale = (0.1,0.1);
}
);
width = 889;
},
{
background = {
shapes = (
{
closed = 1;
nodes = (
(478,434,l),
(0,434,l),
(0,349,l),
(478,349,l)
);
}
);
};
guides = (
{
angle = 90;
pos = (40,171);
}
);
layerId = "2CCCAF06-0AAA-44C6-8F00-0A68246BB68E";
name = Bold;
shapes = (
{
ref = D;
},
{
pos = (239,354);
ref = macron;
scale = (0.1,0.1);
},
{
pos = (-35,-380);
ref = macron.case;
}
);
width = 939;
}
);
unicode = 208;
},
{
color = 1;
glyphname = E;
kernLeft = I;
kernRight = E;
lastChange = "2014-10-27 10:33:24 +0000";
layers = (
{
anchors = (
{
name = bottom;
pos = (407,0);
},
{
name = ogonek;
pos = (706,0);
},
{
name = top;
pos = (407,786);
}
);
background = {
shapes = (
{
closed = 1;
nodes = (
(60,31,l),
(60,0,l),
(201,0,l),
(221,40,l),
(166,114,l)
);
},
{
closed = 1;
nodes = (
(154,786,l),
(154,0,l),
(279,0,l),
(279,786,l)
);
},
{
closed = 1;
nodes = (
(259,755,l),
(259,786,l),
(70,786,l),
(50,746,l),
(268,672,l)
);
},
{
closed = 1;
nodes = (
(706,45,l),
(218,45,l),
(218,0,l),
(706,0,l)
);
},
{
closed = 1;
nodes = (
(714,-18,l),
(714,232,l),
(684,242,l),
(541,30,l),
(639,7,l)
);
},
{
closed = 1;
nodes = (
(696,786,l),
(218,786,l),
(218,741,l),
(696,741,l)
);
},
{
closed = 1;
nodes = (
(531,756,l),
(674,544,l),
(704,554,l),
(704,804,l),
(629,779,l)
);
},
{
closed = 1;
nodes = (
(496,424,l),
(218,424,l),
(218,379,l),
(496,379,l)
);
},
{
closed = 1;
nodes = (
(500,228,l),
(540,248,l),
(540,552,l),
(509,552,l),
(426,406,l)
);
}
);
};
layerId = "E07B5D26-C0CD-4D0E-A705-659FB2222D21";
name = Regular;
shapes = (
{
closed = 1;
nodes = (
(60,31,l),
(60,0,l),
(201,0,l),
(221,40,l),
(166,114,l)
);
},
{
closed = 1;
nodes = (
(154,786,l),
(154,0,l),
(279,0,l),
(279,786,l)
);
},
{
closed = 1;
nodes = (
(259,755,l),
(259,786,l),
(70,786,l),
(50,746,l),
(268,672,l)
);
},
{
closed = 1;
nodes = (
(706,45,l),
(218,45,l),
(218,0,l),
(706,0,l)
);
},
{
closed = 1;
nodes = (
(714,-18,l),
(714,232,l),
(684,242,l),
(541,30,l),
(639,7,l)
);
},
{
closed = 1;
nodes = (
(696,786,l),
(218,786,l),
(218,741,l),
(696,741,l)
);
},
{
closed = 1;
nodes = (
(531,776,l),
(674,564,l),
(704,574,l),
(704,804,l),
(629,779,l)
);
},
{
closed = 1;
nodes = (
(496,424,l),
(218,424,l),
(218,379,l),
(496,379,l)
);
},
{
closed = 1;
nodes = (
(500,228,l),
(540,248,l),
(540,552,l),
(509,552,l),
(426,406,l)
);
}
);
width = 814;
},
{
anchors = (
{
name = bottom;
pos = (427,0);
},
{
name = ogonek;
pos = (726,0);
},
{
name = top;
pos = (427,786);
}
);
background = {
shapes = (
{
closed = 1;
nodes = (
(80,31,l),
(80,0,l),
(221,0,l),
(241,40,l),
(186,114,l)
);
},
{
closed = 1;
nodes = (
(174,786,l),
(174,0,l),
(299,0,l),
(299,786,l)
);
},
{
closed = 1;
nodes = (
(279,755,l),
(279,786,l),
(90,786,l),
(70,746,l),
(288,672,l)
);
},
{
closed = 1;
nodes = (
(726,45,l),
(238,45,l),
(238,0,l),
(726,0,l)
);
},
{
closed = 1;
nodes = (
(734,-18,l),
(734,232,l),
(704,242,l),
(561,30,l),
(659,7,l)
);
},
{
closed = 1;
nodes = (
(716,786,l),
(238,786,l),
(238,741,l),
(716,741,l)
);
},
{
closed = 1;
nodes = (
(551,756,l),
(694,544,l),
(724,554,l),
(724,804,l),
(649,779,l)
);
},
{
closed = 1;
nodes = (
(516,424,l),
(238,424,l),
(238,379,l),
(516,379,l)
);
},
{
closed = 1;
nodes = (
(520,228,l),
(560,248,l),
(560,552,l),
(529,552,l),
(446,406,l)
);
}
);
};
layerId = "2CCCAF06-0AAA-44C6-8F00-0A68246BB68E";
name = Bold;
shapes = (
{
closed = 1;
nodes = (
(40,71,l),
(40,0,l),
(221,0,l),
(241,80,l),
(146,154,l)
);
},
{
closed = 1;
nodes = (
(134,786,l),
(134,0,l),
(349,0,l),
(349,786,l)
);
},
{
closed = 1;
nodes = (
(279,715,l),
(279,786,l),
(60,786,l),
(20,706,l),
(288,632,l)
);
},
{
closed = 1;
nodes = (
(766,95,l),
(238,95,l),
(238,0,l),
(766,0,l)
);
},
{
closed = 1;
nodes = (
(774,-18,l),
(774,272,l),
(704,302,l),
(541,70,l),
(659,7,l)
);
},
{
closed = 1;
nodes = (
(756,786,l),
(238,786,l),
(238,691,l),
(756,691,l)
);
},
{
closed = 1;
nodes = (
(511,776,l),
(694,504,l),
(764,534,l),
(764,804,l),
(649,779,l)
);
},
{
closed = 1;
nodes = (
(546,449,l),
(238,449,l),
(238,354,l),
(546,354,l)
);
},
{
closed = 1;
nodes = (
(510,228,l),
(590,268,l),
(590,552,l),
(519,552,l),
(416,406,l)
);
}
);
width = 824;
}
);
metricLeft = I;
unicode = 69;
},
{
glyphname = F;
kernLeft = I;
kernRight = F;
lastChange = "2014-10-27 10:33:35 +0000";
layers = (
{
anchors = (
{
name = top;
pos = (407,786);
}
);
background = {
shapes = (
{
closed = 1;
nodes = (
(154,786,l),
(154,0,l),
(279,0,l),
(279,786,l)
);
},
{
closed = 1;
nodes = (
(259,755,l),
(259,786,l),
(70,786,l),
(50,746,l),
(268,672,l)
);
},
{
closed = 1;
nodes = (
(696,786,l),
(218,786,l),
(218,741,l),
(696,741,l)
);
},
{
closed = 1;
nodes = (
(531,756,l),
(674,544,l),
(704,554,l),
(704,804,l),
(629,779,l)
);
},
{
closed = 1;
nodes = (
(496,424,l),
(218,424,l),
(218,379,l),
(496,379,l)
);
},
{
closed = 1;
nodes = (
(500,228,l),
(540,248,l),
(540,552,l),
(509,552,l),
(426,406,l)
);
},
{
closed = 1;
nodes = (
(60,31,l),
(60,0,l),
(414,0,l),
(434,40,l),
(166,114,l)
);
}
);
};
layerId = "E07B5D26-C0CD-4D0E-A705-659FB2222D21";
metricLeft = "=I";
metricRight = "=L";
name = Regular;
shapes = (
{
closed = 1;
nodes = (
(154,786,l),
(154,0,l),
(279,0,l),
(279,786,l)
);
},
{
closed = 1;
nodes = (
(60,31,l),
(60,0,l),
(414,0,l),
(434,40,l),
(166,114,l)
);
},
{
closed = 1;
nodes = (
(218,424,l),
(218,379,l),
(496,379,l),
(496,424,l)
);
},
{
closed = 1;
nodes = (
(70,786,l),
(50,746,l),
(268,672,l),
(259,755,l),
(259,786,l)
);
},
{
closed = 1;
nodes = (
(509,552,l),
(426,406,l),
(500,258,l),
(540,278,l),
(540,552,l)
);
},
{
closed = 1;
nodes = (
(218,786,l),
(218,741,l),
(696,741,l),
(696,786,l)
);
},
{
closed = 1;
nodes = (
(629,779,l),
(531,776,l),
(674,564,l),
(704,574,l),
(704,804,l)
);
}
);
width = 774;
},
{
anchors = (
{
name = top;
pos = (427,786);
}
);
background = {
shapes = (
{
closed = 1;
nodes = (
(174,786,l),
(174,0,l),
(299,0,l),
(299,786,l)
);
},
{
closed = 1;
nodes = (
(279,755,l),
(279,786,l),
(90,786,l),
(70,746,l),
(288,672,l)
);
},
{
closed = 1;
nodes = (
(716,786,l),
(238,786,l),
(238,741,l),
(716,741,l)
);
},
{
closed = 1;
nodes = (
(551,776,l),
(694,564,l),
(724,574,l),
(724,804,l),
(649,779,l)
);
},
{
closed = 1;
nodes = (
(516,424,l),
(238,424,l),
(238,379,l),
(516,379,l)
);
},
{
closed = 1;
nodes = (
(520,258,l),
(560,278,l),
(560,552,l),
(529,552,l),
(446,406,l)
);
},
{
closed = 1;
nodes = (
(80,31,l),
(80,0,l),
(434,0,l),
(454,40,l),
(186,114,l)
);
}
);
};
layerId = "2CCCAF06-0AAA-44C6-8F00-0A68246BB68E";
name = Bold;
shapes = (
{
closed = 1;
nodes = (
(134,786,l),
(134,0,l),
(349,0,l),
(349,786,l)
);
},
{
closed = 1;
nodes = (
(40,71,l),
(40,0,l),
(494,0,l),
(534,80,l),
(146,154,l)
);
},
{
closed = 1;
nodes = (
(238,449,l),
(238,354,l),
(476,354,l),
(476,449,l)
);
},
{
closed = 1;
nodes = (
(60,786,l),
(20,706,l),
(288,632,l),
(279,715,l),
(279,786,l)
);
},
{
closed = 1;
nodes = (
(519,552,l),
(416,406,l),
(510,208,l),
(590,248,l),
(590,552,l)
);
},
{
closed = 1;
nodes = (
(238,786,l),
(238,691,l),
(756,691,l),
(756,786,l)
);
},
{
closed = 1;
nodes = (
(649,779,l),
(531,736,l),
(694,504,l),
(764,534,l),
(764,804,l)
);
}
);
width = 784;
}
);
metricLeft = I;
metricRight = L;
unicode = 70;
},
{
glyphname = G;
kernLeft = O;
kernRight = G;
lastChange = "2014-10-27 10:33:36 +0000";
layers = (
{
anchors = (
{
name = bottom;
pos = (480,0);
},
{
name = top;
pos = (470,786);
}
);
background = {
shapes = (
{
closed = 1;
nodes = (
(333,806,o),
(70,623,o),
(70,375,cs),
(70,146,o),
(222,-20,o),
(447,-20,cs),
(495,-20,o),
(550,-18,o),
(613,2,c),
(797,115,l),
(767,163,l),
(639,58,o),
(558,65,o),
(505,65,cs),
(298,64,o),
(205,234,o),
(205,423,cs),
(205,596,o),
(316,722,o),
(462,722,cs),
(563,722,o),
(654,678,o),
(726,565,c),
(764,565,l),
(764,759,l),
(718,782,o),
(597,806,o),
(520,806,cs)
);
},
{
closed = 1;
nodes = (
(645,46,l),
(770,126,l),
(770,353,l),
(645,380,l)
);
},
{
closed = 1;
nodes = (
(511,406,l),
(491,366,l),
(759,292,l),
(865,375,l),
(865,406,l)
);
}
);
};
layerId = "E07B5D26-C0CD-4D0E-A705-659FB2222D21";
metricLeft = "=O";
name = Regular;
shapes = (
{
closed = 1;
nodes = (
(333,806,o),
(70,623,o),
(70,375,cs),
(70,146,o),
(222,-20,o),
(447,-20,cs),
(495,-20,o),
(550,-18,o),
(613,2,c),
(797,115,l),
(767,163,l),
(639,58,o),
(558,65,o),
(505,65,cs),
(298,64,o),
(205,234,o),
(205,423,cs),
(205,596,o),
(316,722,o),
(462,722,cs),
(563,722,o),
(654,678,o),
(726,565,c),
(764,565,l),
(764,759,l),
(718,782,o),
(597,806,o),
(520,806,cs)
);
},
{
closed = 1;
nodes = (
(645,46,l),
(770,126,l),
(770,377,l),
(645,380,l)
);
},
{
closed = 1;
nodes = (
(511,406,l),
(491,366,l),
(759,292,l),
(865,375,l),
(865,406,l)
);
}
);
width = 910;
},
{
anchors = (
{
name = bottom;
pos = (510,0);
},
{
name = top;
pos = (500,786);
}
);
background = {
shapes = (
{
closed = 1;
nodes = (
(363,806,o),
(100,623,o),
(100,375,cs),
(100,146,o),
(252,-20,o),
(477,-20,cs),
(525,-20,o),
(580,-18,o),
(643,2,c),
(827,115,l),
(797,163,l),
(669,58,o),
(588,65,o),
(535,65,cs),
(328,64,o),
(235,234,o),
(235,423,cs),
(235,596,o),
(346,722,o),
(492,722,cs),
(593,722,o),
(684,678,o),
(756,565,c),
(794,565,l),
(794,759,l),
(748,782,o),
(627,806,o),
(550,806,cs)
);
},
{
closed = 1;
nodes = (
(675,46,l),
(800,126,l),
(800,353,l),
(675,380,l)
);
},
{
closed = 1;
nodes = (
(541,406,l),
(521,366,l),
(789,292,l),
(895,375,l),
(895,406,l)
);
}
);
};
layerId = "2CCCAF06-0AAA-44C6-8F00-0A68246BB68E";
name = Bold;
shapes = (
{
closed = 1;
nodes = (
(343,806,o),
(50,623,o),
(50,375,cs),
(50,146,o),
(222,-20,o),
(477,-20,cs),
(537,-20,o),
(604,-18,o),
(683,2,c),
(867,115,l),
(837,193,l),
(731,110,o),
(596,115,o),
(535,115,cs),
(363,114,o),
(285,259,o),
(285,423,cs),
(285,566,o),
(376,672,o),
(492,672,cs),
(573,672,o),
(649,622,o),
(706,495,c),
(834,495,l),
(834,759,l),
(780,782,o),
(639,806,o),
(550,806,cs)
);
},
{
closed = 1;
nodes = (
(625,46,l),
(840,126,l),
(840,378,l),
(625,378,l)
);
},
{
closed = 1;
nodes = (
(501,406,l),
(461,326,l),
(829,242,l),
(935,335,l),
(935,406,l)
);
}
);
width = 960;
}
);
metricLeft = O;
unicode = 71;
},
{
glyphname = H;
kernLeft = I;
kernRight = I;
lastChange = "2014-06-29 16:34:58 +0000";
layers = (
{
layerId = "E07B5D26-C0CD-4D0E-A705-659FB2222D21";
metricLeft = "=I";
metricRight = "=I";
name = Regular;
shapes = (
{
closed = 1;
nodes = (
(60,31,l),
(60,0,l),
(364,0,l),
(384,40,l),
(166,114,l)
);
},
{
closed = 1;
nodes = (
(154,786,l),
(154,0,l),
(279,0,l),
(279,786,l)
);
},
{
closed = 1;
nodes = (
(374,755,l),
(374,786,l),
(70,786,l),
(50,746,l),
(268,672,l)
);
},
{
closed = 1;
nodes = (
(580,31,l),
(580,0,l),
(884,0,l),
(904,40,l),
(686,114,l)
);
},
{
closed = 1;
nodes = (
(674,786,l),
(674,0,l),
(799,0,l),
(799,786,l)
);
},
{
closed = 1;
nodes = (
(894,755,l),
(894,786,l),
(590,786,l),
(570,746,l),
(788,672,l)
);
},
{
closed = 1;
nodes = (
(736,414,l),
(218,414,l),
(218,369,l),
(736,369,l)
);
}
);
width = 954;
},
{
background = {
shapes = (
{
closed = 1;
nodes = (
(85,31,l),
(85,0,l),
(389,0,l),
(409,40,l),
(191,114,l)
);
},
{
closed = 1;
nodes = (
(179,760,l),
(179,0,l),
(304,0,l),
(304,733,l)
);
},
{
closed = 1;
nodes = (
(399,755,l),
(399,786,l),
(95,786,l),
(75,746,l),
(293,672,l)
);
},
{
closed = 1;
nodes = (
(605,31,l),
(605,0,l),
(909,0,l),
(929,40,l),
(711,114,l)
);
},
{
closed = 1;
nodes = (
(699,760,l),
(699,0,l),
(824,0,l),
(824,733,l)
);
},
{
closed = 1;
nodes = (
(919,755,l),
(919,786,l),
(615,786,l),
(595,746,l),
(813,672,l)
);
},
{
closed = 1;
nodes = (
(761,414,l),
(243,414,l),
(243,369,l),
(761,369,l)
);
},
{
closed = 1;
nodes = (
(444,715,l),
(444,786,l),
(105,786,l),
(65,706,l),
(338,622,l)
);
},
{
closed = 1;
nodes = (
(35,71,l),
(35,0,l),
(374,0,l),
(414,80,l),
(141,164,l)
);
}
);
};
layerId = "2CCCAF06-0AAA-44C6-8F00-0A68246BB68E";
metricLeft = "=I";
metricRight = "=I";
name = Bold;
shapes = (
{
closed = 1;
nodes = (
(40,71,l),
(40,0,l),
(424,0,l),
(464,80,l),
(146,164,l)
);
},
{
closed = 1;
nodes = (
(134,786,l),
(134,0,l),
(349,0,l),
(349,786,l)
);
},
{
closed = 1;
nodes = (
(444,715,l),
(444,786,l),
(60,786,l),
(20,706,l),
(338,622,l)
);
},
{
closed = 1;
nodes = (
(560,71,l),
(560,0,l),
(944,0,l),
(984,80,l),
(666,164,l)
);
},
{
closed = 1;
nodes = (
(654,786,l),
(654,0,l),
(869,0,l),
(869,786,l)
);
},
{
closed = 1;
nodes = (
(964,715,l),
(964,786,l),
(580,786,l),
(540,706,l),
(858,622,l)
);
},
{
closed = 1;
nodes = (
(721,439,l),
(243,439,l),
(243,344,l),
(721,344,l)
);
}
);
width = 1004;
}
);
metricLeft = I;
metricRight = I;
unicode = 72;
},
{
color = 8;
glyphname = Hbar;
kernLeft = I;
kernRight = I;
lastChange = "2014-10-09 19:49:54 +0000";
layers = (
{
guides = (
{
angle = 90;
pos = (60,171);
}
);
layerId = "E07B5D26-C0CD-4D0E-A705-659FB2222D21";
name = Regular;
shapes = (
{
closed = 1;
nodes = (
(954,594,l),
(0,594,l),
(0,549,l),
(954,549,l)
);
},
{
ref = H;
}
);
width = 954;
},
{
guides = (
{
angle = 90;
pos = (60,171);
}
);
layerId = "2CCCAF06-0AAA-44C6-8F00-0A68246BB68E";
name = Bold;
shapes = (
{
closed = 1;
nodes = (
(1003,609,l),
(0,609,l),
(0,514,l),
(1003,514,l)
);
},
{
ref = H;
}
);
width = 1004;
}
);
unicode = 294;
},
{
glyphname = I;
kernLeft = I;
kernRight = I;
lastChange = "2014-06-29 13:25:56 +0000";
layers = (
{
anchors = (
{
name = ogonek;
pos = (364,0);
},
{
name = top;
pos = (217,786);
}
);
layerId = "E07B5D26-C0CD-4D0E-A705-659FB2222D21";
name = Regular;
shapes = (
{
closed = 1;
nodes = (
(60,31,l),
(60,0,l),
(364,0,l),
(384,40,l),
(166,114,l)
);
},
{
closed = 1;
nodes = (
(154,786,l),
(154,0,l),
(279,0,l),
(279,786,l)
);
},
{
closed = 1;
nodes = (
(374,755,l),
(374,786,l),
(70,786,l),
(50,746,l),
(268,672,l)
);
}
);
width = 434;
},
{
anchors = (
{
name = ogonek;
pos = (424,0);
},
{
name = top;
pos = (242,786);
}
);
layerId = "2CCCAF06-0AAA-44C6-8F00-0A68246BB68E";
name = Bold;
shapes = (
{
closed = 1;
nodes = (
(40,71,l),
(40,0,l),
(424,0,l),
(464,80,l),
(146,164,l)
);
},
{
closed = 1;
nodes = (
(134,786,l),
(134,0,l),
(349,0,l),
(349,786,l)
);
},
{
closed = 1;
nodes = (
(444,715,l),
(444,786,l),
(60,786,l),
(20,706,l),
(338,622,l)
);
}
);
width = 484;
}
);
unicode = 73;
},
{
glyphname = J;
kernLeft = I;
kernRight = I;
lastChange = "2025-05-12 05:53:58 +0000";
layers = (
{
anchors = (
{
name = top;
pos = (217,786);
}
);
layerId = "E07B5D26-C0CD-4D0E-A705-659FB2222D21";
metricRight = "=I";
name = Regular;
shapes = (
{
closed = 1;
nodes = (
(154,786,l),
(154,11,ls),
(154,-87,o),
(133,-139,o),
(58,-234,c),
(96,-264,l),
(288,-20,l),
(283,-4,o),
(279,45,o),
(279,99,cs),
(279,786,l)
);
},
{
closed = 1;
nodes = (
(50,786,l),
(30,746,l),
(268,672,l),
(374,755,l),
(374,786,l)
);
}
);
width = 424;
},
{
anchors = (
{
name = top;
pos = (227,786);
}
);
background = {
shapes = (
{
closed = 1;
nodes = (
(164,11,ls),
(164,-87,o),
(143,-139,o),
(68,-234,c),
(106,-264,l),
(298,-20,l),
(293,-4,o),
(289,45,o),
(289,99,cs),
(289,733,l),
(164,760,l)
);
},
{
closed = 1;
nodes = (
(80,786,l),
(60,746,l),
(278,672,l),
(384,755,l),
(384,786,l)
);
}
);
};
layerId = "2CCCAF06-0AAA-44C6-8F00-0A68246BB68E";
metricRight = "=I-10";
name = Bold;
shapes = (
{
closed = 1;
nodes = (
(114,786,l),
(114,41,ls),
(114,-57,o),
(93,-109,o),
(13,-204,c),
(91,-264,l),
(338,-20,l),
(333,-4,o),
(329,45,o),
(329,99,cs),
(329,786,l)
);
},
{
closed = 1;
nodes = (
(20,786,l),
(-20,706,l),
(318,632,l),
(424,715,l),
(424,786,l)
);
}
);
width = 434;
}
);
metricRight = I;
unicode = 74;
},
{
glyphname = K;
kernLeft = I;
kernRight = K;
lastChange = "2014-07-06 18:21:27 +0000";
layers = (
{
anchors = (
{
name = bottom;
pos = (455,0);
},
{
name = top;
pos = (455,786);
}
);
background = {
shapes = (
{
closed = 1;
nodes = (
(578,786,l),
(558,746,l),
(665,668,l),
(714,723,l),
(337,394,l),
(647,0,l),
(828,0,l),
(848,40,l),
(695,114,l),
(774,43,l),
(438,464,l),
(440,426,l),
(817,755,l),
(817,786,l)
);
},
{
closed = 1;
nodes = (
(60,31,l),
(60,0,l),
(364,0,l),
(384,40,l),
(166,114,l)
);
},
{
closed = 1;
nodes = (
(154,0,l),
(279,0,l),
(279,733,l),
(154,760,l)
);
},
{
closed = 1;
nodes = (
(70,786,l),
(50,746,l),
(268,672,l),
(374,755,l),
(374,786,l)
);
}
);
};
layerId = "E07B5D26-C0CD-4D0E-A705-659FB2222D21";
name = Regular;
shapes = (
{
closed = 1;
nodes = (
(548,786,l),
(528,746,l),
(662,648,l),
(714,723,l),
(337,394,l),
(647,0,l),
(828,0,l),
(848,40,l),
(695,114,l),
(774,43,l),
(438,464,l),
(440,426,l),
(817,755,l),
(817,786,l)
);
},
{
closed = 1;
nodes = (
(60,31,l),
(60,0,l),
(364,0,l),
(384,40,l),
(166,114,l)
);
},
{
closed = 1;
nodes = (
(154,786,l),
(154,0,l),
(279,0,l),
(279,786,l)
);
},
{
closed = 1;
nodes = (
(70,786,l),
(50,746,l),
(268,672,l),
(374,755,l),
(374,786,l)
);
}
);
width = 860;
},
{
anchors = (
{
name = bottom;
pos = (495,0);
},
{
name = top;
pos = (485,786);
}
);
background = {
shapes = (
{
closed = 1;
nodes = (
(598,786,l),
(578,746,l),
(685,668,l),
(734,723,l),
(357,394,l),
(667,0,l),
(848,0,l),
(868,40,l),
(715,114,l),
(794,43,l),
(458,464,l),
(460,426,l),
(837,755,l),
(837,786,l)
);
},
{
closed = 1;
nodes = (
(80,31,l),
(80,0,l),
(384,0,l),
(404,40,l),
(186,114,l)
);
},
{
closed = 1;
nodes = (
(174,0,l),
(299,0,l),
(299,733,l),
(174,760,l)
);
},
{
closed = 1;
nodes = (
(90,786,l),
(70,746,l),
(288,672,l),
(394,755,l),
(394,786,l)
);
}
);
};
layerId = "2CCCAF06-0AAA-44C6-8F00-0A68246BB68E";
metricLeft = "=I";
name = Bold;
shapes = (
{
closed = 1;
nodes = (
(578,786,l),
(538,706,l),
(712,607,l),
(704,683,l),
(377,394,l),
(647,0,l),
(878,0,l),
(918,80,l),
(755,154,l),
(844,83,l),
(548,504,l),
(570,426,l),
(897,715,l),
(897,786,l)
);
},
{
closed = 1;
nodes = (
(40,71,l),
(40,0,l),
(424,0,l),
(464,80,l),
(146,164,l)
);
},
{
closed = 1;
nodes = (
(134,786,l),
(134,0,l),
(349,0,l),
(349,786,l)
);
},
{
closed = 1;
nodes = (
(60,786,l),
(20,706,l),
(338,622,l),
(444,715,l),
(444,786,l)
);
}
);
width = 930;
}
);
metricLeft = I;
unicode = 75;
},
{
color = 1;
glyphname = L;
kernLeft = I;
kernRight = L;
lastChange = "2014-06-30 10:47:18 +0000";
layers = (
{
anchors = (
{
name = bottom;
pos = (392,0);
},
{
name = top;
pos = (234,786);
},
{
name = topright;
pos = (439,444);
}
);
layerId = "E07B5D26-C0CD-4D0E-A705-659FB2222D21";
metricLeft = "=I";
name = Regular;
shapes = (
{
closed = 1;
nodes = (
(60,31,l),
(60,0,l),
(201,0,l),
(221,40,l),
(166,114,l)
);
},
{
closed = 1;
nodes = (
(154,786,l),
(154,0,l),
(279,0,l),
(279,786,l)
);
},
{
closed = 1;
nodes = (
(374,755,l),
(374,786,l),
(70,786,l),
(50,746,l),
(268,672,l)
);
},
{
closed = 1;
nodes = (
(706,45,l),
(218,45,l),
(218,0,l),
(706,0,l)
);
},
{
closed = 1;
nodes = (
(714,-18,l),
(714,252,l),
(684,262,l),
(525,27,l),
(639,7,l)
);
}
);
width = 784;
},
{
anchors = (
{
name = bottom;
pos = (422,0);
},
{
name = top;
pos = (254,786);
},
{
name = topright;
pos = (509,456);
}
);
background = {
shapes = (
{
closed = 1;
nodes = (
(80,31,l),
(80,0,l),
(221,0,l),
(241,40,l),
(186,114,l)
);
},
{
closed = 1;
nodes = (
(174,786,l),
(174,0,l),
(299,0,l),
(299,786,l)
);
},
{
closed = 1;
nodes = (
(394,755,l),
(394,786,l),
(90,786,l),
(70,746,l),
(288,672,l)
);
},
{
closed = 1;
nodes = (
(726,45,l),
(238,45,l),
(238,0,l),
(726,0,l)
);
},
{
closed = 1;
nodes = (
(734,-18,l),
(734,252,l),
(704,262,l),
(545,27,l),
(659,7,l)
);
}
);
};
layerId = "2CCCAF06-0AAA-44C6-8F00-0A68246BB68E";
metricLeft = "=I";
name = Bold;
shapes = (
{
closed = 1;
nodes = (
(40,71,l),
(40,0,l),
(181,0,l),
(201,80,l),
(146,154,l)
);
},
{
closed = 1;
nodes = (
(134,786,l),
(134,0,l),
(349,0,l),
(349,786,l)
);
},
{
closed = 1;
nodes = (
(444,715,l),
(444,786,l),
(60,786,l),
(20,706,l),
(338,632,l)
);
},
{
closed = 1;
nodes = (
(776,95,l),
(198,95,l),
(198,0,l),
(776,0,l)
);
},
{
closed = 1;
nodes = (
(784,-18,l),
(784,292,l),
(714,322,l),
(535,67,l),
(669,7,l)
);
}
);
width = 804;
}
);
metricLeft = I;
unicode = 76;
},
{
color = 8;
glyphname = Lslash;
kernLeft = I;
kernRight = L;
lastChange = "2014-06-27 11:51:57 +0000";
layers = (
{
layerId = "E07B5D26-C0CD-4D0E-A705-659FB2222D21";
name = Regular;
shapes = (
{
closed = 1;
nodes = (
(215,283,l),
(556,552,l),
(556,609,l),
(215,340,l)
);
},
{
closed = 1;
nodes = (
(215,384,l),
(0,214,l),
(0,157,l),
(215,327,l)
);
},
{
ref = L;
}
);
width = 784;
},
{
layerId = "2CCCAF06-0AAA-44C6-8F00-0A68246BB68E";
name = Bold;
shapes = (
{
closed = 1;
nodes = (
(215,283,l),
(556,552,l),
(556,609,l),
(215,340,l)
);
},
{
closed = 1;
nodes = (
(215,384,l),
(0,214,l),
(0,157,l),
(215,327,l)
);
},
{
ref = L;
}
);
width = 784;
}
);
unicode = 321;
},
{
color = 1;
glyphname = M;
kernLeft = I;
kernRight = I;
lastChange = "2014-07-16 17:06:47 +0000";
layers = (
{
background = {
shapes = (
{
closed = 1;
nodes = (
(60,31,l),
(60,0,l),
(294,0,l),
(314,40,l),
(166,114,l)
);
},
{
closed = 1;
nodes = (
(154,786,l),
(154,0,l),
(209,0,l),
(209,786,l)
);
},
{
closed = 1;
nodes = (
(176,786,l),
(70,786,l),
(50,746,l),
(188,672,l)
);
},
{
closed = 1;
nodes = (
(786,786,l),
(474,0,l),
(529,0,l),
(848,786,l)
);
},
{
closed = 1;
nodes = (
(186,680,l),
(474,0,l),
(548,130,l),
(270,786,l),
(178,786,l)
);
},
{
closed = 1;
nodes = (
(702,31,l),
(702,0,l),
(1006,0,l),
(1026,40,l),
(808,114,l)
);
},
{
closed = 1;
nodes = (
(796,786,l),
(796,0,l),
(921,0,l),
(921,786,l)
);
},
{
closed = 1;
nodes = (
(1016,755,l),
(1016,786,l),
(863,786,l),
(843,746,l),
(910,672,l)
);
}
);
};
layerId = "E07B5D26-C0CD-4D0E-A705-659FB2222D21";
metricLeft = "=I";
metricRight = "=I";
name = Regular;
shapes = (
{
closed = 1;
nodes = (
(60,31,l),
(60,0,l),
(294,0,l),
(314,40,l),
(166,114,l)
);
},
{
closed = 1;
nodes = (
(154,786,l),
(154,0,l),
(209,0,l),
(209,786,l)
);
},
{
closed = 1;
nodes = (
(176,786,l),
(70,786,l),
(50,746,l),
(188,672,l)
);
},
{
closed = 1;
nodes = (
(786,786,l),
(474,0,l),
(529,0,l),
(848,786,l)
);
},
{
closed = 1;
nodes = (
(203,680,l),
(474,0,l),
(548,130,l),
(287,786,l),
(178,786,l)
);
},
{
closed = 1;
nodes = (
(702,31,l),
(702,0,l),
(1006,0,l),
(1026,40,l),
(808,114,l)
);
},
{
closed = 1;
nodes = (
(796,786,l),
(796,0,l),
(921,0,l),
(921,786,l)
);
},
{
closed = 1;
nodes = (
(1016,755,l),
(1016,786,l),
(863,786,l),
(843,746,l),
(910,672,l)
);
}
);
width = 1076;
},
{
background = {
shapes = (
{
closed = 1;
nodes = (
(70,31,l),
(70,0,l),
(304,0,l),
(324,40,l),
(176,114,l)
);
},
{
closed = 1;
nodes = (
(164,786,l),
(164,0,l),
(219,0,l),
(219,786,l)
);
},
{
closed = 1;
nodes = (
(186,786,l),
(80,786,l),
(60,746,l),
(198,672,l)
);
},
{
closed = 1;
nodes = (
(796,786,l),
(484,0,l),
(539,0,l),
(858,786,l)
);
},
{
closed = 1;
nodes = (
(196,680,l),
(484,0,l),
(558,130,l),
(280,786,l),
(188,786,l)
);
},
{
closed = 1;
nodes = (
(712,31,l),
(712,0,l),
(1016,0,l),
(1036,40,l),
(818,114,l)
);
},
{
closed = 1;
nodes = (
(806,786,l),
(806,0,l),
(931,0,l),
(931,786,l)
);
},
{
closed = 1;
nodes = (
(1026,755,l),
(1026,786,l),
(873,786,l),
(853,746,l),
(920,672,l)
);
}
);
};
layerId = "2CCCAF06-0AAA-44C6-8F00-0A68246BB68E";
metricLeft = "=I";
metricRight = "=I";
name = Bold;
shapes = (
{
closed = 1;
nodes = (
(40,71,l),
(40,0,l),
(314,0,l),
(354,80,l),
(146,154,l)
);
},
{
closed = 1;
nodes = (
(134,786,l),
(134,0,l),
(239,0,l),
(239,786,l)
);
},
{
closed = 1;
nodes = (
(206,786,l),
(60,786,l),
(20,706,l),
(218,632,l)
);
},
{
closed = 1;
nodes = (
(806,786,l),
(484,0,l),
(589,0,l),
(911,786,l)
);
},
{
closed = 1;
nodes = (
(216,640,l),
(484,0,l),
(625,201,l),
(380,786,l),
(208,786,l)
);
},
{
closed = 1;
nodes = (
(732,71,l),
(732,0,l),
(1116,0,l),
(1156,80,l),
(838,154,l)
);
},
{
closed = 1;
nodes = (
(826,786,l),
(826,0,l),
(1041,0,l),
(1041,786,l)
);
},
{
closed = 1;
nodes = (
(1136,715,l),
(1136,786,l),
(943,786,l),
(923,706,l),
(1030,632,l)
);
}
);
width = 1176;
}
);
metricLeft = I;
metricRight = I;
unicode = 77;
},
{
color = 1;
glyphname = N;
kernLeft = I;
kernRight = I;
lastChange = "2014-06-29 16:40:12 +0000";
layers = (
{
anchors = (
{
name = bottom;
pos = (437,0);
},
{
name = top;
pos = (437,786);
}
);
background = {
shapes = (
{
closed = 1;
nodes = (
(60,31,l),
(60,0,l),
(294,0,l),
(314,40,l),
(166,114,l)
);
},
{
closed = 1;
nodes = (
(154,786,l),
(154,0,l),
(209,0,l),
(209,786,l)
);
},
{
closed = 1;
nodes = (
(176,786,l),
(70,786,l),
(50,746,l),
(188,672,l)
);
},
{
closed = 1;
nodes = (
(684,760,l),
(684,0,l),
(739,0,l),
(739,733,l)
);
},
{
closed = 1;
nodes = (
(834,755,l),
(834,786,l),
(600,786,l),
(580,746,l),
(728,672,l)
);
},
{
closed = 1;
nodes = (
(186,630,l),
(684,0,l),
(711,166,l),
(221,786,l),
(178,786,l)
);
}
);
};
layerId = "E07B5D26-C0CD-4D0E-A705-659FB2222D21";
metricLeft = "=H";
metricRight = "=H-10";
name = Regular;
shapes = (
{
closed = 1;
nodes = (
(60,31,l),
(60,0,l),
(294,0,l),
(314,40,l),
(166,114,l)
);
},
{
closed = 1;
nodes = (
(154,786,l),
(154,0,l),
(209,0,l),
(209,786,l)
);
},
{
closed = 1;
nodes = (
(176,786,l),
(70,786,l),
(50,746,l),
(188,672,l)
);
},
{
closed = 1;
nodes = (
(684,760,l),
(684,0,l),
(739,0,l),
(739,733,l)
);
},
{
closed = 1;
nodes = (
(834,755,l),
(834,786,l),
(600,786,l),
(580,746,l),
(728,672,l)
);
},
{
closed = 1;
nodes = (
(186,630,l),
(684,0,l),
(711,166,l),
(221,786,l),
(178,786,l)
);
}
);
width = 874;
},
{
anchors = (
{
name = bottom;
pos = (462,0);
},
{
name = top;
pos = (462,786);
}
);
background = {
shapes = (
{
closed = 1;
nodes = (
(85,31,l),
(85,0,l),
(319,0,l),
(339,40,l),
(191,114,l)
);
},
{
closed = 1;
nodes = (
(179,786,l),
(179,0,l),
(234,0,l),
(234,786,l)
);
},
{
closed = 1;
nodes = (
(201,786,l),
(95,786,l),
(75,746,l),
(213,672,l)
);
},
{
closed = 1;
nodes = (
(709,760,l),
(709,0,l),
(764,0,l),
(764,733,l)
);
},
{
closed = 1;
nodes = (
(859,755,l),
(859,786,l),
(625,786,l),
(605,746,l),
(753,672,l)
);
},
{
closed = 1;
nodes = (
(211,630,l),
(709,0,l),
(736,166,l),
(246,786,l),
(203,786,l)
);
}
);
};
layerId = "2CCCAF06-0AAA-44C6-8F00-0A68246BB68E";
metricLeft = "=H";
metricRight = "=H-10";
name = Bold;
shapes = (
{
closed = 1;
nodes = (
(40,71,l),
(40,0,l),
(364,0,l),
(404,80,l),
(146,164,l)
);
},
{
closed = 1;
nodes = (
(134,786,l),
(134,0,l),
(239,0,l),
(239,786,l)
);
},
{
closed = 1;
nodes = (
(176,786,l),
(60,786,l),
(20,706,l),
(168,622,l)
);
},
{
closed = 1;
nodes = (
(704,720,l),
(704,0,l),
(809,0,l),
(809,693,l)
);
},
{
closed = 1;
nodes = (
(904,715,l),
(904,786,l),
(580,786,l),
(540,706,l),
(798,622,l)
);
},
{
closed = 1;
nodes = (
(216,520,l),
(704,0,l),
(731,276,l),
(251,786,l),
(178,786,l)
);
}
);
width = 914;
}
);
metricLeft = H;
metricRight = H;
unicode = 78;
},
{
color = 7;
glyphname = Eng;
kernLeft = I;
kernRight = I;
lastChange = "2014-06-29 20:05:16 +0000";
layers = (
{
background = {
shapes = (
{
closed = 1;
nodes = (
(719,45,o),
(723,-4,o),
(728,-20,c),
(536,-264,l),
(498,-234,l),
(573,-139,o),
(594,-87,o),
(594,11,c),
(719,99,l)
);
}
);
};
layerId = "E07B5D26-C0CD-4D0E-A705-659FB2222D21";
name = Regular;
shapes = (
{
closed = 1;
nodes = (
(654,-15,o),
(663,-51,o),
(518,-234,c),
(556,-264,l),
(748,-20,l),
(743,-4,o),
(739,45,o),
(739,99,c),
(647,97,l)
);
},
{
ref = N;
}
);
width = 874;
},
{
background = {
shapes = (
{
closed = 1;
nodes = (
(719,45,o),
(723,-4,o),
(728,-20,c),
(536,-264,l),
(498,-234,l),
(573,-139,o),
(594,-87,o),
(594,11,c),
(719,99,l)
);
}
);
};
layerId = "2CCCAF06-0AAA-44C6-8F00-0A68246BB68E";
name = Bold;
shapes = (
{
closed = 1;
nodes = (
(646,13,o),
(636,-51,o),
(493,-204,c),
(571,-264,l),
(818,-20,l),
(813,-4,o),
(809,45,o),
(809,99,c),
(624,151,l)
);
},
{
ref = N;
}
);
width = 914;
}
);
unicode = 330;
},
{
glyphname = O;
kernLeft = O;
kernRight = O;
lastChange = "2014-06-29 16:10:56 +0000";
layers = (
{
anchors = (
{
name = top;
pos = (465,786);
}
);
background = {
shapes = (
{
closed = 1;
nodes = (
(321,796,o),
(70,617,o),
(70,375,cs),
(70,152,o),
(214,-10,o),
(429,-10,cs),
(608,-10,o),
(859,169,o),
(859,410,cs),
(859,633,o),
(716,796,o),
(500,796,cs)
);
},
{
closed = 1;
nodes = (
(637,712,o),
(724,549,o),
(724,363,cs),
(724,166,o),
(651,74,o),
(487,74,cs),
(292,74,o),
(205,239,o),
(205,423,cs),
(205,620,o),
(278,712,o),
(442,712,cs)
);
}
);
};
layerId = "E07B5D26-C0CD-4D0E-A705-659FB2222D21";
name = Regular;
shapes = (
{
closed = 1;
nodes = (
(321,806,o),
(70,623,o),
(70,375,cs),
(70,146,o),
(214,-20,o),
(429,-20,cs),
(608,-20,o),
(859,163,o),
(859,410,cs),
(859,639,o),
(716,806,o),
(500,806,cs)
);
},
{
closed = 1;
nodes = (
(637,722,o),
(724,554,o),
(724,363,cs),
(724,190,o),
(621,64,o),
(487,64,cs),
(292,64,o),
(205,234,o),
(205,423,cs),
(205,596,o),
(308,722,o),
(442,722,cs)
);
}
);
width = 929;
},
{
anchors = (
{
name = top;
pos = (490,786);
}
);
background = {
shapes = (
{
closed = 1;
nodes = (
(346,806,o),
(95,623,o),
(95,375,cs),
(95,146,o),
(239,-20,o),
(454,-20,cs),
(633,-20,o),
(884,163,o),
(884,410,cs),
(884,639,o),
(741,806,o),
(525,806,cs)
);
},
{
closed = 1;
nodes = (
(662,722,o),
(749,554,o),
(749,363,cs),
(749,190,o),
(646,64,o),
(512,64,cs),
(317,64,o),
(230,234,o),
(230,423,cs),
(230,596,o),
(333,722,o),
(467,722,cs)
);
}
);
};
layerId = "2CCCAF06-0AAA-44C6-8F00-0A68246BB68E";
name = Bold;
shapes = (
{
closed = 1;
nodes = (
(330,806,o),
(50,623,o),
(50,375,cs),
(50,146,o),
(210,-20,o),
(454,-20,cs),
(649,-20,o),
(929,163,o),
(929,410,cs),
(929,639,o),
(770,806,o),
(525,806,cs)
);
},
{
closed = 1;
nodes = (
(622,672,o),
(694,529,o),
(694,363,cs),
(694,220,o),
(612,114,o),
(512,114,cs),
(357,114,o),
(285,259,o),
(285,423,cs),
(285,566,o),
(367,672,o),
(467,672,cs)
);
}
);
width = 979;
}
);
unicode = 79;
},
{
glyphname = Oslash;
kernLeft = O;
kernRight = O;
lastChange = "2014-07-01 18:39:12 +0000";
layers = (
{
background = {
shapes = (
{
closed = 1;
nodes = (
(753,935,l),
(139,-128,l),
(177,-150,l),
(791,913,l)
);
},
{
pos = (0,-1);
ref = O;
}
);
};
layerId = "E07B5D26-C0CD-4D0E-A705-659FB2222D21";
name = Regular;
shapes = (
{
closed = 1;
nodes = (
(753,935,l),
(139,-128,l),
(177,-150,l),
(791,913,l)
);
},
{
pos = (0,-1);
ref = O;
}
);
width = 929;
},
{
background = {
shapes = (
{
closed = 1;
nodes = (
(778,935,l),
(164,-128,l),
(202,-150,l),
(816,913,l)
);
},
{
closed = 1;
nodes = (
(448,1006,l),
(448,-221,l),
(532,-221,l),
(532,1006,l)
);
},
{
ref = O;
}
);
};
layerId = "2CCCAF06-0AAA-44C6-8F00-0A68246BB68E";
name = Bold;
shapes = (
{
closed = 1;
nodes = (
(760,945,l),
(147,-118,l),
(220,-160,l),
(833,903,l)
);
},
{
ref = O;
}
);
width = 979;
}
);
unicode = 216;
},
{
color = 7;
glyphname = OE;
kernLeft = O;
kernRight = E;
lastChange = "2014-07-14 13:51:13 +0000";
layers = (
{
background = {
shapes = (
{
closed = 1;
nodes = (
(303,796,o),
(70,617,o),
(70,376,cs),
(70,153,o),
(201,-10,o),
(399,-10,cs),
(483,-10,o),
(532,0,o),
(683,0,c),
(666,181,l),
(626,103,o),
(558,54,o),
(477,54,cs),
(289,54,o),
(205,227,o),
(205,423,cs),
(205,596,o),
(308,722,o),
(442,722,cs),
(548,722,o),
(621,693,o),
(664,649,c),
(682,786,l),
(578,786,o),
(553,796,o),
(470,796,cs)
);
},
{
closed = 1;
nodes = (
(654,45,l),
(654,0,l),
(1132,0,l),
(1132,45,l)
);
},
{
closed = 1;
nodes = (
(590,786,l),
(590,0,l),
(715,0,l),
(715,786,l)
);
},
{
closed = 1;
nodes = (
(967,30,l),
(1065,7,l),
(1140,-18,l),
(1140,232,l),
(1110,242,l)
);
},
{
closed = 1;
nodes = (
(684,424,l),
(664,379,l),
(922,379,l),
(922,424,l)
);
},
{
closed = 1;
nodes = (
(935,552,l),
(852,406,l),
(926,228,l),
(966,248,l),
(966,552,l)
);
},
{
closed = 1;
nodes = (
(654,786,l),
(654,741,l),
(1122,741,l),
(1122,786,l)
);
},
{
closed = 1;
nodes = (
(1055,779,l),
(957,776,l),
(1100,564,l),
(1130,574,l),
(1130,804,l)
);
}
);
};
layerId = "E07B5D26-C0CD-4D0E-A705-659FB2222D21";
metricLeft = "=O";
metricRight = "=E";
name = Regular;
shapes = (
{
closed = 1;
nodes = (
(303,796,o),
(70,617,o),
(70,376,cs),
(70,153,o),
(201,-10,o),
(399,-10,cs),
(483,-10,o),
(532,0,o),
(683,0,c),
(666,181,l),
(626,103,o),
(558,54,o),
(477,54,cs),
(289,54,o),
(205,227,o),
(205,423,cs),
(205,596,o),
(308,722,o),
(442,722,cs),
(548,722,o),
(621,693,o),
(664,649,c),
(682,786,l),
(578,786,o),
(553,796,o),
(470,796,cs)
);
},
{
closed = 1;
nodes = (
(654,45,l),
(654,0,l),
(1132,0,l),
(1132,45,l)
);
},
{
closed = 1;
nodes = (
(590,786,l),
(590,0,l),
(715,0,l),
(715,786,l)
);
},
{
closed = 1;
nodes = (
(967,30,l),
(1065,7,l),
(1140,-18,l),
(1140,232,l),
(1110,242,l)
);
},
{
closed = 1;
nodes = (
(684,424,l),
(664,379,l),
(922,379,l),
(922,424,l)
);
},
{
closed = 1;
nodes = (
(935,552,l),
(852,406,l),
(926,228,l),
(966,248,l),
(966,552,l)
);
},
{
closed = 1;
nodes = (
(654,786,l),
(654,741,l),
(1122,741,l),
(1122,786,l)
);
},
{
closed = 1;
nodes = (
(1055,779,l),
(957,776,l),
(1100,564,l),
(1130,574,l),
(1130,804,l)
);
}
);
width = 1240;
},
{
background = {
shapes = (
{
closed = 1;
nodes = (
(303,796,o),
(70,617,o),
(70,376,cs),
(70,153,o),
(201,-10,o),
(399,-10,cs),
(483,-10,o),
(532,0,o),
(683,0,c),
(666,181,l),
(626,103,o),
(558,54,o),
(477,54,cs),
(289,54,o),
(205,227,o),
(205,423,cs),
(205,596,o),
(308,722,o),
(442,722,cs),
(548,722,o),
(621,693,o),
(664,649,c),
(682,786,l),
(578,786,o),
(553,796,o),
(470,796,cs)
);
},
{
closed = 1;
nodes = (
(654,45,l),
(654,0,l),
(1132,0,l),
(1132,45,l)
);
},
{
closed = 1;
nodes = (
(590,786,l),
(590,0,l),
(715,0,l),
(715,786,l)
);
},
{
closed = 1;
nodes = (
(967,30,l),
(1065,7,l),
(1140,-18,l),
(1140,232,l),
(1110,242,l)
);
},
{
closed = 1;
nodes = (
(684,424,l),
(664,379,l),
(922,379,l),
(922,424,l)
);
},
{
closed = 1;
nodes = (
(935,552,l),
(852,406,l),
(926,228,l),
(966,248,l),
(966,552,l)
);
},
{
closed = 1;
nodes = (
(654,786,l),
(654,741,l),
(1122,741,l),
(1122,786,l)
);
},
{
closed = 1;
nodes = (
(1055,779,l),
(957,776,l),
(1100,564,l),
(1130,574,l),
(1130,804,l)
);
}
);
};
layerId = "2CCCAF06-0AAA-44C6-8F00-0A68246BB68E";
metricLeft = "=O";
metricRight = "=E";
name = Bold;
shapes = (
{
closed = 1;
nodes = (
(325,796,o),
(50,617,o),
(50,376,cs),
(50,153,o),
(209,-10,o),
(449,-10,cs),
(530,-10,o),
(577,0,o),
(723,0,c),
(666,211,l),
(643,139,o),
(588,94,o),
(527,94,cs),
(360,94,o),
(285,247,o),
(285,423,cs),
(285,578,o),
(376,692,o),
(492,692,cs),
(573,692,o),
(627,667,o),
(664,629,c),
(722,786,l),
(623,786,o),
(599,796,o),
(520,796,cs)
);
},
{
closed = 1;
nodes = (
(694,95,l),
(694,0,l),
(1182,0,l),
(1182,95,l)
);
},
{
closed = 1;
nodes = (
(590,786,l),
(590,0,l),
(805,0,l),
(805,786,l)
);
},
{
closed = 1;
nodes = (
(957,70,l),
(1075,7,l),
(1190,-18,l),
(1190,272,l),
(1120,302,l)
);
},
{
closed = 1;
nodes = (
(722,449,l),
(722,354,l),
(972,354,l),
(972,449,l)
);
},
{
closed = 1;
nodes = (
(945,552,l),
(832,406,l),
(936,228,l),
(1016,268,l),
(1016,552,l)
);
},
{
closed = 1;
nodes = (
(694,786,l),
(694,691,l),
(1172,691,l),
(1172,786,l)
);
},
{
closed = 1;
nodes = (
(1065,779,l),
(927,776,l),
(1110,504,l),
(1180,534,l),
(1180,804,l)
);
}
);
width = 1240;
}
);
metricLeft = O;
metricRight = E;
unicode = 338;
},
{
color = 1;
glyphname = P;
kernLeft = I;
kernRight = P;
lastChange = "2014-07-07 13:04:28 +0000";
layers = (
{
background = {
shapes = (
{
closed = 1;
nodes = (
(154,786,l),
(154,0,l),
(279,0,l),
(279,786,l)
);
},
{
closed = 1;
nodes = (
(203,605,l),
(245,683,o),
(317,732,o),
(402,732,cs),
(527,732,o),
(584,638,o),
(584,523,cs),
(584,436,o),
(527,384,o),
(437,384,cs),
(326,384,o),
(250,413,o),
(205,457,c),
(187,320,l),
(296,320,o),
(322,310,o),
(409,310,cs),
(540,310,o),
(719,425,o),
(719,570,cs),
(719,697,o),
(624,796,o),
(480,796,cs),
(393,796,o),
(342,786,o),
(186,786,c)
);
},
{
closed = 1;
nodes = (
(230,755,l),
(230,786,l),
(70,786,l),
(50,746,l),
(186,702,l)
);
},
{
closed = 1;
nodes = (
(60,31,l),
(60,0,l),
(414,0,l),
(434,40,l),
(166,114,l)
);
}
);
};
guides = (
{
angle = 90;
pos = (337,394);
}
);
layerId = "E07B5D26-C0CD-4D0E-A705-659FB2222D21";
metricLeft = "=I";
name = Regular;
shapes = (
{
closed = 1;
nodes = (
(154,786,l),
(154,0,l),
(279,0,l),
(279,786,l)
);
},
{
closed = 1;
nodes = (
(537,301,o),
(719,425,o),
(719,570,cs),
(719,697,o),
(624,796,o),
(480,796,cs),
(393,796,o),
(342,786,o),
(186,786,c),
(203,605,l),
(245,683,o),
(317,732,o),
(402,732,cs),
(527,732,o),
(584,638,o),
(584,523,cs),
(584,436,o),
(527,384,o),
(437,384,cs),
(356,384,l),
(336,344,l),
(383,310,l)
);
},
{
closed = 1;
nodes = (
(230,755,l),
(230,786,l),
(70,786,l),
(50,746,l),
(186,702,l)
);
},
{
closed = 1;
nodes = (
(60,31,l),
(60,0,l),
(414,0,l),
(434,40,l),
(166,114,l)
);
}
);
width = 779;
},
{
background = {
shapes = (
{
closed = 1;
nodes = (
(134,786,l),
(134,0,l),
(349,0,l),
(349,786,l)
);
},
{
closed = 1;
nodes = (
(273,565,l),
(305,643,o),
(357,692,o),
(422,692,cs),
(512,692,o),
(554,622,o),
(554,533,cs),
(554,446,o),
(517,394,o),
(457,394,cs),
(371,394,o),
(310,423,o),
(275,467,c),
(257,300,l),
(346,300,o),
(368,290,o),
(439,290,cs),
(586,290,o),
(789,409,o),
(789,560,cs),
(789,693,o),
(678,796,o),
(510,796,cs),
(435,796,o),
(392,786,o),
(256,786,c)
);
},
{
closed = 1;
nodes = (
(250,715,l),
(250,786,l),
(60,786,l),
(20,706,l),
(166,662,l)
);
},
{
closed = 1;
nodes = (
(40,71,l),
(40,0,l),
(494,0,l),
(534,80,l),
(146,154,l)
);
}
);
};
guides = (
{
angle = 90;
pos = (377,394);
}
);
layerId = "2CCCAF06-0AAA-44C6-8F00-0A68246BB68E";
metricLeft = "=I";
name = Bold;
shapes = (
{
closed = 1;
nodes = (
(134,786,l),
(134,0,l),
(349,0,l),
(349,786,l)
);
},
{
closed = 1;
nodes = (
(581,281,o),
(789,409,o),
(789,560,cs),
(789,693,o),
(678,796,o),
(510,796,cs),
(435,796,o),
(392,786,o),
(256,786,c),
(273,565,l),
(305,643,o),
(357,692,o),
(422,692,cs),
(512,692,o),
(554,622,o),
(554,533,cs),
(554,446,o),
(517,394,o),
(457,394,cs),
(416,394,l),
(376,314,l),
(418,290,l)
);
},
{
closed = 1;
nodes = (
(250,715,l),
(250,786,l),
(60,786,l),
(20,706,l),
(166,662,l)
);
},
{
closed = 1;
nodes = (
(40,71,l),
(40,0,l),
(494,0,l),
(534,80,l),
(146,154,l)
);
}
);
width = 799;
}
);
metricLeft = I;
unicode = 80;
},
{
color = 1;
glyphname = Thorn;
kernLeft = I;
lastChange = "2014-07-07 13:04:28 +0000";
layers = (
{
background = {
shapes = (
{
closed = 1;
nodes = (
(393,608,o),
(342,598,o),
(186,598,c),
(203,417,l),
(245,495,o),
(317,544,o),
(402,544,cs),
(527,544,o),
(584,463,o),
(584,365,cs),
(584,296,o),
(527,256,o),
(437,256,cs),
(326,256,o),
(250,285,o),
(205,329,c),
(187,192,l),
(296,192,o),
(322,182,o),
(409,182,cs),
(540,182,o),
(719,285,o),
(719,412,cs),
(719,521,o),
(624,608,o),
(480,608,cs)
);
},
{
closed = 1;
nodes = (
(60,31,l),
(60,0,l),
(364,0,l),
(384,40,l),
(166,114,l)
);
},
{
closed = 1;
nodes = (
(154,786,l),
(154,0,l),
(279,0,l),
(279,786,l)
);
},
{
closed = 1;
nodes = (
(70,786,l),
(50,746,l),
(268,672,l),
(374,755,l),
(374,786,l)
);
}
);
};
layerId = "E07B5D26-C0CD-4D0E-A705-659FB2222D21";
name = Regular;
shapes = (
{
closed = 1;
nodes = (
(60,31,l),
(60,0,l),
(364,0,l),
(384,40,l),
(166,114,l)
);
},
{
closed = 1;
nodes = (
(154,786,l),
(154,0,l),
(279,0,l),
(279,786,l)
);
},
{
closed = 1;
nodes = (
(70,786,l),
(50,746,l),
(268,672,l),
(374,755,l),
(374,786,l)
);
},
{
closed = 1;
nodes = (
(584,296,o),
(527,256,o),
(437,256,cs),
(356,256,l),
(336,216,l),
(383,182,l),
(537,173,o),
(719,285,o),
(719,412,cs),
(719,521,o),
(624,608,o),
(480,608,cs),
(393,608,o),
(342,598,o),
(186,598,c),
(203,417,l),
(245,495,o),
(317,544,o),
(402,544,cs),
(527,544,o),
(584,463,o),
(584,365,cs)
);
}
);
width = 779;
},
{
background = {
shapes = (
{
closed = 1;
nodes = (
(435,606,o),
(392,596,o),
(256,596,c),
(273,375,l),
(305,453,o),
(357,502,o),
(422,502,cs),
(498,502,o),
(534,448,o),
(534,383,cs),
(534,320,o),
(505,284,o),
(457,284,cs),
(371,284,o),
(310,313,o),
(275,357,c),
(257,190,l),
(346,190,o),
(368,180,o),
(439,180,cs),
(578,180,o),
(769,283,o),
(769,410,cs),
(769,519,o),
(666,606,o),
(510,606,cs)
);
},
{
closed = 1;
nodes = (
(40,71,l),
(40,0,l),
(424,0,l),
(464,80,l),
(146,164,l)
);
},
{
closed = 1;
nodes = (
(134,786,l),
(134,0,l),
(349,0,l),
(349,786,l)
);
},
{
closed = 1;
nodes = (
(60,786,l),
(20,706,l),
(338,622,l),
(444,715,l),
(444,786,l)
);
}
);
};
layerId = "2CCCAF06-0AAA-44C6-8F00-0A68246BB68E";
name = Bold;
shapes = (
{
closed = 1;
nodes = (
(40,71,l),
(40,0,l),
(424,0,l),
(464,80,l),
(146,164,l)
);
},
{
closed = 1;
nodes = (
(134,786,l),
(134,0,l),
(349,0,l),
(349,786,l)
);
},
{
closed = 1;
nodes = (
(60,786,l),
(20,706,l),
(338,622,l),
(444,715,l),
(444,786,l)
);
},
{
closed = 1;
nodes = (
(534,320,o),
(505,284,o),
(457,284,cs),
(416,284,l),
(376,204,l),
(418,180,l),
(573,171,o),
(769,283,o),
(769,410,cs),
(769,519,o),
(666,606,o),
(510,606,cs),
(435,606,o),
(392,596,o),
(256,596,c),
(273,375,l),
(305,453,o),
(357,502,o),
(422,502,cs),
(498,502,o),
(534,448,o),
(534,383,cs)
);
}
);
width = 779;
}
);
unicode = 222;
},
{
color = 1;
glyphname = Q;
kernLeft = O;
lastChange = "2014-06-29 13:43:32 +0000";
layers = (
{
layerId = "E07B5D26-C0CD-4D0E-A705-659FB2222D21";
name = Regular;
shapes = (
{
closed = 1;
nodes = (
(602,-46,o),
(781,-264,o),
(843,-264,cs),
(880,-264,o),
(955,-239,o),
(1058,-190,c),
(1038,-145,l),
(903,-145,ls),
(872,-145,o),
(664,9,o),
(577,77,c),
(531,35,l)
);
},
{
ref = O;
}
);
width = 929;
},
{
background = {
shapes = (
{
closed = 1;
nodes = (
(602,-46,o),
(781,-264,o),
(843,-264,cs),
(880,-264,o),
(955,-239,o),
(1058,-190,c),
(1038,-145,l),
(903,-145,ls),
(872,-145,o),
(664,9,o),
(577,77,c),
(531,35,l)
);
}
);
};
layerId = "2CCCAF06-0AAA-44C6-8F00-0A68246BB68E";
name = Bold;
shapes = (
{
closed = 1;
nodes = (
(560,-46,o),
(733,-264,o),
(793,-264,cs),
(844,-264,o),
(940,-239,o),
(1078,-190,c),
(1038,-105,l),
(903,-105,ls),
(876,-105,o),
(692,21,o),
(617,77,c),
(491,35,l)
);
},
{
ref = O;
}
);
width = 979;
}
);
unicode = 81;
},
{
color = 1;
glyphname = R;
kernLeft = I;
kernRight = R;
lastChange = "2014-07-14 16:42:54 +0000";
layers = (
{
anchors = (
{
name = bottom;
pos = (440,0);
},
{
name = top;
pos = (380,786);
}
);
background = {
shapes = (
{
closed = 1;
nodes = (
(379,796,o),
(332,786,o),
(186,786,c),
(203,605,l),
(241,683,o),
(305,732,o),
(382,732,cs),
(500,732,o),
(554,647,o),
(554,548,cs),
(554,467,o),
(497,419,o),
(407,419,cs),
(351,419,l),
(336,389,l),
(383,355,l),
(510,355,o),
(689,462,o),
(689,595,cs),
(689,705,o),
(598,796,o),
(460,796,cs)
);
},
{
closed = 1;
nodes = (
(60,31,l),
(60,0,l),
(364,0,l),
(384,40,l),
(166,114,l)
);
},
{
closed = 1;
nodes = (
(154,786,l),
(154,0,l),
(279,0,l),
(279,786,l)
);
},
{
closed = 1;
nodes = (
(336,389,l),
(383,355,l),
(603,0,l),
(789,0,l),
(809,40,l),
(656,114,l),
(726,40,l),
(504,398,l),
(371,403,l)
);
},
{
closed = 1;
nodes = (
(70,786,l),
(50,746,l),
(186,702,l),
(230,755,l),
(230,786,l)
);
}
);
};
layerId = "E07B5D26-C0CD-4D0E-A705-659FB2222D21";
name = Regular;
shapes = (
{
closed = 1;
nodes = (
(379,796,o),
(332,786,o),
(186,786,c),
(203,605,l),
(241,683,o),
(305,732,o),
(382,732,cs),
(500,732,o),
(554,647,o),
(554,548,cs),
(554,467,o),
(497,419,o),
(407,419,cs),
(351,419,l),
(336,389,l),
(383,355,l),
(510,355,o),
(689,462,o),
(689,595,cs),
(689,705,o),
(598,796,o),
(460,796,cs)
);
},
{
closed = 1;
nodes = (
(60,31,l),
(60,0,l),
(364,0,l),
(384,40,l),
(166,114,l)
);
},
{
closed = 1;
nodes = (
(154,786,l),
(154,0,l),
(279,0,l),
(279,786,l)
);
},
{
closed = 1;
nodes = (
(383,355,l),
(603,0,l),
(789,0,l),
(809,40,l),
(656,114,l),
(726,40,l),
(536,347,l),
(395,395,l)
);
},
{
closed = 1;
nodes = (
(70,786,l),
(50,746,l),
(186,702,l),
(230,755,l),
(230,786,l)
);
}
);
width = 809;
},
{
anchors = (
{
name = bottom;
pos = (470,0);
},
{
name = top;
pos = (420,786);
}
);
background = {
shapes = (
{
closed = 1;
nodes = (
(435,796,o),
(392,786,o),
(256,786,c),
(273,565,l),
(305,643,o),
(357,692,o),
(422,692,cs),
(512,692,o),
(554,630,o),
(554,548,cs),
(554,468,o),
(517,424,o),
(457,424,cs),
(416,424,l),
(386,364,l),
(428,340,l),
(588,338,o),
(789,447,o),
(789,585,cs),
(789,705,o),
(678,796,o),
(510,796,cs)
);
},
{
closed = 1;
nodes = (
(40,71,l),
(40,0,l),
(424,0,l),
(464,80,l),
(146,164,l)
);
},
{
closed = 1;
nodes = (
(134,786,l),
(134,0,l),
(349,0,l),
(349,786,l)
);
},
{
closed = 1;
nodes = (
(386,364,l),
(428,340,l),
(604,0,l),
(840,0,l),
(880,80,l),
(717,154,l),
(806,83,l),
(670,344,l),
(455,399,l)
);
},
{
closed = 1;
nodes = (
(60,786,l),
(20,706,l),
(338,622,l),
(320,715,l),
(320,786,l)
);
}
);
};
layerId = "2CCCAF06-0AAA-44C6-8F00-0A68246BB68E";
metricLeft = "=I";
name = Bold;
shapes = (
{
closed = 1;
nodes = (
(435,796,o),
(392,786,o),
(256,786,c),
(273,565,l),
(305,643,o),
(357,692,o),
(422,692,cs),
(512,692,o),
(554,630,o),
(554,548,cs),
(554,468,o),
(517,424,o),
(457,424,cs),
(416,424,l),
(386,364,l),
(428,340,l),
(588,338,o),
(789,447,o),
(789,585,cs),
(789,705,o),
(678,796,o),
(510,796,cs)
);
},
{
closed = 1;
nodes = (
(40,71,l),
(40,0,l),
(424,0,l),
(464,80,l),
(146,164,l)
);
},
{
closed = 1;
nodes = (
(134,786,l),
(134,0,l),
(349,0,l),
(349,786,l)
);
},
{
closed = 1;
nodes = (
(428,340,l),
(604,0,l),
(840,0,l),
(880,80,l),
(717,154,l),
(806,83,l),
(670,344,l),
(455,401,l)
);
},
{
closed = 1;
nodes = (
(60,786,l),
(20,706,l),
(338,622,l),
(320,715,l),
(320,786,l)
);
}
);
width = 870;
}
);
metricLeft = I;
unicode = 82;
},
{
glyphname = S;
kernLeft = S;
kernRight = S;
lastChange = "2014-07-08 10:33:32 +0000";
layers = (
{
anchors = (
{
name = bottom;
pos = (339,0);
},
{
name = top;
pos = (340,786);
}
);
background = {
shapes = (
{
closed = 1;
nodes = (
(502,111,o),
(449,49,o),
(363,49,cs),
(271,49,o),
(181,112,o),
(113,220,c),
(75,220,l),
(75,26,l),
(127,3,o),
(271,-21,o),
(358,-21,cs),
(467,-21,o),
(630,119,o),
(630,223,cs),
(630,412,o),
(208,458,o),
(208,608,cs),
(208,682,o),
(254,736,o),
(332,736,cs),
(420,736,o),
(499,670,o),
(562,565,c),
(600,565,l),
(600,759,l),
(550,782,o),
(419,806,o),
(336,806,cs),
(231,806,o),
(80,665,o),
(80,562,cs),
(80,372,o),
(502,320,o),
(502,177,cs)
);
}
);
};
layerId = "E07B5D26-C0CD-4D0E-A705-659FB2222D21";
name = Regular;
shapes = (
{
closed = 1;
nodes = (
(502,111,o),
(449,49,o),
(363,49,cs),
(271,49,o),
(181,112,o),
(113,220,c),
(75,220,l),
(75,26,l),
(127,3,o),
(271,-21,o),
(358,-21,cs),
(467,-21,o),
(630,119,o),
(630,223,cs),
(630,412,o),
(208,458,o),
(208,608,cs),
(208,682,o),
(254,736,o),
(332,736,cs),
(420,736,o),
(499,670,o),
(562,565,c),
(600,565,l),
(600,759,l),
(550,782,o),
(419,806,o),
(336,806,cs),
(231,806,o),
(80,665,o),
(80,562,cs),
(80,372,o),
(502,320,o),
(502,177,cs)
);
}
);
width = 700;
},
{
anchors = (
{
name = bottom;
pos = (355,0);
},
{
name = top;
pos = (340,786);
}
);
background = {
shapes = (
{
closed = 1;
nodes = (
(502,111,o),
(449,49,o),
(363,49,cs),
(271,49,o),
(181,112,o),
(113,220,c),
(75,220,l),
(75,26,l),
(127,3,o),
(271,-21,o),
(358,-21,cs),
(467,-21,o),
(630,119,o),
(630,223,cs),
(630,412,o),
(208,458,o),
(208,608,cs),
(208,682,o),
(254,736,o),
(332,736,cs),
(420,736,o),
(499,670,o),
(562,565,c),
(600,565,l),
(600,759,l),
(550,782,o),
(419,806,o),
(336,806,cs),
(231,806,o),
(80,665,o),
(80,562,cs),
(80,372,o),
(502,320,o),
(502,177,cs)
);
}
);
};
layerId = "2CCCAF06-0AAA-44C6-8F00-0A68246BB68E";
name = Bold;
shapes = (
{
closed = 1;
nodes = (
(442,121,o),
(413,89,o),
(363,89,cs),
(291,89,o),
(216,152,o),
(163,260,c),
(35,260,l),
(35,26,l),
(95,3,o),
(259,-21,o),
(358,-21,cs),
(483,-21,o),
(670,119,o),
(670,223,cs),
(670,422,o),
(268,480,o),
(268,628,cs),
(268,666,o),
(291,696,o),
(332,696,cs),
(400,696,o),
(464,630,o),
(512,525,c),
(640,525,l),
(640,759,l),
(582,782,o),
(431,806,o),
(336,806,cs),
(215,806,o),
(40,665,o),
(40,562,cs),
(40,362,o),
(442,296,o),
(442,157,cs)
);
}
);
width = 700;
}
);
unicode = 83;
},
{
glyphname = Germandbls;
kernLeft = Germandbls;
kernRight = Germandbls;
lastChange = "2025-05-12 05:53:48 +0000";
layers = (
{
background = {
shapes = (
{
closed = 1;
nodes = (
(50,31,l),
(50,0,l),
(199,0,l),
(219,40,l),
(156,114,l)
);
},
{
closed = 1;
nodes = (
(579,322,o),
(744,271,o),
(744,177,cs),
(744,111,o),
(699,49,o),
(625,49,cs),
(545,49,o),
(464,112,o),
(405,220,c),
(367,220,l),
(367,26,l),
(413,3,o),
(542,-21,o),
(620,-21,cs),
(717,-21,o),
(862,119,o),
(862,223,cs),
(862,352,o),
(693,406,o),
(614,484,c),
(597,432,l),
(828,728,l),
(828,759,l),
(782,782,o),
(661,806,o),
(584,806,cs),
(401,806,o),
(144,623,o),
(144,375,cs),
(144,0,l),
(269,0,l),
(269,423,ls),
(269,596,o),
(380,722,o),
(526,722,cs),
(593,722,o),
(655,703,o),
(711,657,c),
(725,696,l),
(498,411,l)
);
}
);
};
guides = (
{
angle = 90;
pos = (320,38);
},
{
angle = 90;
pos = (791,493);
}
);
layerId = "E07B5D26-C0CD-4D0E-A705-659FB2222D21";
metricLeft = "=H";
metricRight = "=S";
name = Regular;
shapes = (
{
closed = 1;
nodes = (
(295,806,o),
(144,665,o),
(144,562,cs),
(144,0,l),
(269,0,l),
(269,604,ls),
(269,678,o),
(315,732,o),
(396,732,cs),
(496,732,o),
(588,685,o),
(687,660,c),
(719,723,l),
(385,389,l),
(484,410,l),
(821,755,l),
(821,786,l),
(642,786,o),
(526,806,o),
(400,806,cs)
);
},
{
closed = 1;
nodes = (
(50,31,l),
(50,0,l),
(199,0,l),
(219,40,l),
(156,114,l)
);
},
{
closed = 1;
nodes = (
(518,471,l),
(385,389,l),
(385,351,l),
(716,351,l),
(779,454,l),
(350,38,l),
(350,0,l),
(753,0,l),
(808,-18,l),
(808,192,l),
(778,202,l),
(698,49,l),
(796,120,l),
(455,120,l),
(403,26,l),
(821,433,l),
(821,471,l)
);
}
);
width = 891;
},
{
background = {
shapes = (
{
closed = 1;
nodes = (
(20,71,l),
(20,0,l),
(218,0,l),
(258,80,l),
(126,164,l)
);
},
{
closed = 1;
nodes = (
(789,782,o),
(556,806,o),
(410,806,cs),
(289,806,o),
(114,665,o),
(114,562,cs),
(114,0,l),
(329,0,l),
(329,598,ls),
(329,636,o),
(352,666,o),
(393,666,cs),
(501,666,o),
(583,622,o),
(679,606,c),
(685,656,l),
(476,436,l),
(558,326,o),
(719,262,o),
(719,157,cs),
(719,121,o),
(701,89,o),
(670,89,cs),
(628,89,o),
(580,152,o),
(550,260,c),
(422,260,l),
(422,26,l),
(466,3,o),
(590,-21,o),
(665,-21,cs),
(766,-21,o),
(917,119,o),
(917,223,cs),
(917,385,o),
(725,453,o),
(655,553,c),
(661,461,l),
(878,715,l),
(878,786,l)
);
}
);
};
guides = (
{
angle = 90;
pos = (393,78);
},
{
angle = 90;
pos = (919,441);
}
);
layerId = "2CCCAF06-0AAA-44C6-8F00-0A68246BB68E";
name = Bold;
shapes = (
{
closed = 1;
nodes = (
(289,806,o),
(114,665,o),
(114,562,cs),
(114,0,l),
(329,0,l),
(329,618,ls),
(329,656,o),
(352,686,o),
(393,686,cs),
(501,686,o),
(583,628,o),
(679,606,c),
(704,656,l),
(401,398,l),
(566,423,l),
(919,708,l),
(919,786,l),
(658,786,o),
(555,806,o),
(410,806,cs)
);
},
{
closed = 1;
nodes = (
(20,71,l),
(20,0,l),
(218,0,l),
(258,80,l),
(126,164,l)
);
},
{
closed = 1;
nodes = (
(596,520,l),
(401,398,l),
(401,320,l),
(724,320,l),
(852,503,l),
(393,78,l),
(393,0,l),
(816,0,l),
(911,-18,l),
(911,272,l),
(841,292,l),
(771,129,l),
(859,200,l),
(588,200,l),
(471,26,l),
(919,442,l),
(919,520,l)
);
}
);
width = 949;
},
{
associatedMasterId = "E07B5D26-C0CD-4D0E-A705-659FB2222D21";
background = {
shapes = (
{
closed = 1;
nodes = (
(30,31,l),
(30,0,l),
(179,0,l),
(199,40,l),
(136,114,l)
);
},
{
closed = 1;
nodes = (
(559,322,o),
(724,271,o),
(724,177,cs),
(724,111,o),
(679,49,o),
(605,49,cs),
(525,49,o),
(444,112,o),
(385,220,c),
(347,220,l),
(347,26,l),
(393,3,o),
(522,-21,o),
(600,-21,cs),
(697,-21,o),
(842,119,o),
(842,223,cs),
(842,352,o),
(673,406,o),
(594,484,c),
(577,432,l),
(808,728,l),
(808,759,l),
(762,782,o),
(641,806,o),
(564,806,cs),
(381,806,o),
(124,623,o),
(124,375,cs),
(124,0,l),
(249,0,l),
(249,423,ls),
(249,596,o),
(360,722,o),
(506,722,cs),
(573,722,o),
(635,703,o),
(691,657,c),
(705,696,l),
(478,411,l)
);
}
);
};
layerId = "3C11AE4B-D610-49F2-AF8F-752FBCBBCD4F";
metricRight = "=S";
name = "Regular Jul 8 14, 12:52";
shapes = (
{
closed = 1;
nodes = (
(275,806,o),
(124,665,o),
(124,562,cs),
(124,0,l),
(249,0,l),
(249,604,ls),
(249,678,o),
(295,732,o),
(376,732,cs),
(467,732,o),
(547,685,o),
(637,660,c),
(669,723,l),
(393,380,l),
(474,291,o),
(632,240,o),
(632,46,cs),
(632,-60,o),
(630,-115,o),
(536,-234,c),
(574,-264,l),
(766,-20,l),
(759,2,o),
(757,39,o),
(757,112,cs),
(757,291,o),
(588,375,o),
(509,453,c),
(492,401,l),
(772,755,l),
(772,786,l),
(675,777,o),
(497,806,o),
(380,806,cs)
);
},
{
closed = 1;
nodes = (
(30,31,l),
(30,0,l),
(179,0,l),
(199,40,l),
(136,114,l)
);
}
);
width = 856;
},
{
associatedMasterId = "2CCCAF06-0AAA-44C6-8F00-0A68246BB68E";
background = {
shapes = (
{
closed = 1;
nodes = (
(0,71,l),
(0,0,l),
(198,0,l),
(238,80,l),
(106,164,l)
);
},
{
closed = 1;
nodes = (
(769,782,o),
(536,806,o),
(390,806,cs),
(269,806,o),
(94,665,o),
(94,562,cs),
(94,0,l),
(309,0,l),
(309,598,ls),
(309,636,o),
(332,666,o),
(373,666,cs),
(481,666,o),
(563,622,o),
(659,606,c),
(665,656,l),
(456,436,l),
(538,326,o),
(699,262,o),
(699,157,cs),
(699,121,o),
(681,89,o),
(650,89,cs),
(608,89,o),
(560,152,o),
(530,260,c),
(402,260,l),
(402,26,l),
(446,3,o),
(570,-21,o),
(645,-21,cs),
(746,-21,o),
(897,119,o),
(897,223,cs),
(897,385,o),
(705,453,o),
(635,553,c),
(641,461,l),
(858,715,l),
(858,786,l)
);
}
);
};
layerId = "2B4BCA5F-469F-4C75-9C2B-66D44CD7D659";
name = "Bold Jul 8 14, 12:52";
shapes = (
{
closed = 1;
nodes = (
(269,806,o),
(94,665,o),
(94,562,cs),
(94,0,l),
(309,0,l),
(309,618,ls),
(309,656,o),
(332,686,o),
(373,686,cs),
(469,686,o),
(542,628,o),
(629,606,c),
(635,656,l),
(390,366,l),
(466,256,o),
(613,172,o),
(613,37,cs),
(613,-65,o),
(601,-98,o),
(512,-204,c),
(590,-264,l),
(837,-20,l),
(832,-4,o),
(828,39,o),
(828,103,cs),
(828,285,o),
(639,383,o),
(569,483,c),
(575,391,l),
(828,715,l),
(828,786,l),
(745,782,o),
(527,806,o),
(390,806,cs)
);
},
{
closed = 1;
nodes = (
(0,71,l),
(0,0,l),
(198,0,l),
(238,80,l),
(106,164,l)
);
}
);
width = 867;
}
);
metricLeft = H;
metricRight = S;
unicode = 7838;
},
{
color = 1;
glyphname = T;
kernLeft = T;
kernRight = F;
lastChange = "2025-05-12 05:53:48 +0000";
layers = (
{
anchors = (
{
name = bottom;
pos = (406,0);
},
{
name = center;
pos = (416,393);
},
{
name = top;
pos = (416,786);
}
);
layerId = "E07B5D26-C0CD-4D0E-A705-659FB2222D21";
metricLeft = "=|L";
metricRight = "=L";
name = Regular;
shapes = (
{
closed = 1;
nodes = (
(352,786,l),
(352,0,l),
(477,0,l),
(477,786,l)
);
},
{
closed = 1;
nodes = (
(258,31,l),
(258,0,l),
(562,0,l),
(582,40,l),
(364,114,l)
);
},
{
closed = 1;
nodes = (
(70,554,l),
(100,544,l),
(243,756,l),
(145,779,l),
(70,804,l)
);
},
{
closed = 1;
nodes = (
(78,786,l),
(78,741,l),
(416,741,l),
(416,786,l)
);
},
{
closed = 1;
nodes = (
(416,786,l),
(416,741,l),
(754,741,l),
(754,786,l)
);
},
{
closed = 1;
nodes = (
(687,779,l),
(589,756,l),
(732,544,l),
(762,554,l),
(762,804,l)
);
}
);
width = 832;
},
{
anchors = (
{
name = bottom;
pos = (406,0);
},
{
name = center;
pos = (416,393);
},
{
name = top;
pos = (416,786);
}
);
background = {
shapes = (
{
closed = 1;
nodes = (
(352,786,l),
(352,0,l),
(477,0,l),
(477,786,l)
);
},
{
closed = 1;
nodes = (
(258,31,l),
(258,0,l),
(562,0,l),
(582,40,l),
(364,114,l)
);
},
{
closed = 1;
nodes = (
(70,554,l),
(100,544,l),
(243,756,l),
(145,779,l),
(70,804,l)
);
},
{
closed = 1;
nodes = (
(78,786,l),
(78,741,l),
(416,741,l),
(416,786,l)
);
},
{
closed = 1;
nodes = (
(416,786,l),
(416,741,l),
(754,741,l),
(754,786,l)
);
},
{
closed = 1;
nodes = (
(687,779,l),
(589,756,l),
(732,544,l),
(762,554,l),
(762,804,l)
);
}
);
};
layerId = "2CCCAF06-0AAA-44C6-8F00-0A68246BB68E";
metricLeft = "=|L";
metricRight = "=L";
name = Bold;
shapes = (
{
closed = 1;
nodes = (
(307,786,l),
(307,0,l),
(522,0,l),
(522,786,l)
);
},
{
closed = 1;
nodes = (
(213,71,l),
(213,0,l),
(597,0,l),
(637,80,l),
(319,154,l)
);
},
{
closed = 1;
nodes = (
(20,514,l),
(90,484,l),
(253,716,l),
(135,779,l),
(20,804,l)
);
},
{
closed = 1;
nodes = (
(28,786,l),
(28,691,l),
(416,691,l),
(416,786,l)
);
},
{
closed = 1;
nodes = (
(416,786,l),
(416,691,l),
(804,691,l),
(804,786,l)
);
},
{
closed = 1;
nodes = (
(697,779,l),
(579,716,l),
(742,484,l),
(812,514,l),
(812,804,l)
);
}
);
width = 832;
}
);
metricLeft = "=|e";
metricRight = E;
unicode = 84;
},
{
color = 8;
glyphname = Tbar;
lastChange = "2014-07-14 16:40:32 +0000";
layers = (
{
guides = (
{
pos = (706,369);
},
{
pos = (706,414);
}
);
layerId = "E07B5D26-C0CD-4D0E-A705-659FB2222D21";
name = Regular;
shapes = (
{
closed = 1;
nodes = (
(667,414,l),
(165,414,l),
(165,369,l),
(667,369,l)
);
},
{
ref = T;
}
);
width = 832;
},
{
guides = (
{
pos = (706,344);
},
{
pos = (706,439);
}
);
layerId = "2CCCAF06-0AAA-44C6-8F00-0A68246BB68E";
name = Bold;
shapes = (
{
closed = 1;
nodes = (
(725,439,l),
(127,439,l),
(127,344,l),
(725,344,l)
);
},
{
ref = T;
}
);
width = 852;
}
);
unicode = 358;
},
{
color = 1;
glyphname = U;
kernLeft = U;
kernRight = U;
lastChange = "2025-05-12 06:24:47 +0000";
layers = (
{
anchors = (
{
name = ogonek;
pos = (540,0);
},
{
name = top;
pos = (462,786);
}
);
background = {
shapes = (
{
closed = 1;
nodes = (
(718,323,ls),
(718,154,o),
(611,64,o),
(521,64,cs),
(347,64,o),
(269,169,o),
(269,333,cs),
(269,786,l),
(144,786,l),
(144,285,ls),
(144,110,o),
(272,-20,o),
(453,-20,cs),
(584,-20,o),
(773,85,o),
(773,310,cs),
(773,786,l),
(718,786,l)
);
},
{
closed = 1;
nodes = (
(60,786,l),
(40,746,l),
(258,672,l),
(364,755,l),
(364,786,l)
);
},
{
closed = 1;
nodes = (
(634,786,l),
(614,746,l),
(762,672,l),
(868,755,l),
(868,786,l)
);
}
);
};
layerId = "E07B5D26-C0CD-4D0E-A705-659FB2222D21";
metricLeft = "=I-10";
metricRight = "=N";
name = Regular;
shapes = (
{
closed = 1;
nodes = (
(718,323,ls),
(718,154,o),
(611,64,o),
(521,64,cs),
(347,64,o),
(269,169,o),
(269,333,cs),
(269,786,l),
(144,786,l),
(144,285,ls),
(144,110,o),
(272,-20,o),
(453,-20,cs),
(584,-20,o),
(773,85,o),
(773,310,cs),
(773,786,l),
(718,786,l)
);
},
{
closed = 1;
nodes = (
(60,786,l),
(40,746,l),
(258,672,l),
(364,755,l),
(364,786,l)
);
},
{
closed = 1;
nodes = (
(634,786,l),
(614,746,l),
(762,672,l),
(868,755,l),
(868,786,l)
);
}
);
width = 908;
},
{
anchors = (
{
name = ogonek;
pos = (560,0);
},
{
name = top;
pos = (482,786);
}
);
background = {
shapes = (
{
closed = 1;
nodes = (
(738,323,ls),
(738,154,o),
(631,64,o),
(541,64,cs),
(367,64,o),
(289,169,o),
(289,333,cs),
(289,786,l),
(164,786,l),
(164,285,ls),
(164,110,o),
(292,-20,o),
(473,-20,cs),
(604,-20,o),
(793,85,o),
(793,310,cs),
(793,786,l),
(738,786,l)
);
},
{
closed = 1;
nodes = (
(80,786,l),
(60,746,l),
(278,672,l),
(384,755,l),
(384,786,l)
);
},
{
closed = 1;
nodes = (
(654,786,l),
(634,746,l),
(782,672,l),
(888,755,l),
(888,786,l)
);
}
);
};
layerId = "2CCCAF06-0AAA-44C6-8F00-0A68246BB68E";
metricLeft = "=I-10";
metricRight = "=N";
name = Bold;
shapes = (
{
closed = 1;
nodes = (
(708,303,ls),
(708,180,o),
(615,114,o),
(541,114,cs),
(402,114,o),
(339,191,o),
(339,313,cs),
(339,786,l),
(124,786,l),
(124,285,ls),
(124,110,o),
(268,-20,o),
(473,-20,cs),
(612,-20,o),
(813,85,o),
(813,310,cs),
(813,786,l),
(708,786,l)
);
},
{
closed = 1;
nodes = (
(50,786,l),
(10,706,l),
(328,632,l),
(434,715,l),
(434,786,l)
);
},
{
closed = 1;
nodes = (
(624,786,l),
(584,706,l),
(802,632,l),
(908,715,l),
(908,786,l)
);
}
);
width = 918;
}
);
metricLeft = I;
metricRight = N;
unicode = 85;
},
{
color = 7;
glyphname = Uogonek;
kernLeft = U;
kernRight = U;
lastChange = "2025-05-12 06:36:11 +0000";
layers = (
{
background = {
shapes = (
{
closed = 1;
nodes = (
(437,-120,l),
(437,-181,o),
(458,-254,o),
(623,-264,c),
(643,-224,l),
(583,-214,o),
(550,-185,o),
(550,-145,cs),
(550,-73,o),
(622,6,o),
(705,105,c),
(687,129,l)
);
},
{
ref = U;
}
);
};
layerId = "E07B5D26-C0CD-4D0E-A705-659FB2222D21";
metricLeft = "=U";
metricRight = "=U";
name = Regular;
shapes = (
{
closed = 1;
nodes = (
(444,-112,l),
(437,-130,o),
(436,-146,o),
(436,-167,cs),
(436,-211,o),
(469,-246,o),
(524,-264,c),
(607,-198,l),
(607,-160,l),
(567,-153,o),
(551,-137,o),
(551,-107,cs),
(551,-81,o),
(559,-49,o),
(684,82,c),
(656,107,l)
);
},
{
ref = U;
}
);
width = 908;
},
{
background = {
shapes = (
{
closed = 1;
nodes = (
(450,-120,l),
(450,-181,o),
(471,-254,o),
(636,-264,c),
(656,-224,l),
(596,-214,o),
(563,-185,o),
(563,-145,cs),
(563,-73,o),
(635,6,o),
(718,105,c),
(700,129,l)
);
}
);
};
layerId = "2CCCAF06-0AAA-44C6-8F00-0A68246BB68E";
metricLeft = "=U";
metricRight = "=U";
name = Bold;
shapes = (
{
closed = 1;
nodes = (
(425,-103,l),
(420,-114,o),
(417,-131,o),
(417,-148,cs),
(417,-208,o),
(480,-249,o),
(586,-264,c),
(661,-204,l),
(661,-126,l),
(604,-126,o),
(582,-117,o),
(582,-90,cs),
(582,-74,o),
(588,-39,o),
(717,101,c),
(598,65,l)
);
},
{
ref = U;
}
);
width = 918;
}
);
metricLeft = U;
metricRight = U;
unicode = 370;
},
{
glyphname = V;
kernLeft = V;
kernRight = V;
lastChange = "2014-07-06 14:41:43 +0000";
layers = (
{
background = {
shapes = (
{
closed = 1;
nodes = (
(392,-19,l),
(496,32,l),
(811,755,l),
(740,721,l),
(439,27,l),
(493,49,l),
(214,721,l),
(66,768,l)
);
},
{
closed = 1;
nodes = (
(20,786,l),
(0,746,l),
(175,640,l),
(324,755,l),
(324,786,l)
);
},
{
closed = 1;
nodes = (
(569,786,l),
(549,746,l),
(767,672,l),
(873,755,l),
(873,786,l)
);
}
);
};
layerId = "E07B5D26-C0CD-4D0E-A705-659FB2222D21";
name = Regular;
shapes = (
{
closed = 1;
nodes = (
(392,-19,l),
(496,32,l),
(811,755,l),
(740,721,l),
(439,27,l),
(493,49,l),
(214,721,l),
(66,768,l)
);
},
{
closed = 1;
nodes = (
(20,786,l),
(0,746,l),
(175,640,l),
(324,755,l),
(324,786,l)
);
},
{
closed = 1;
nodes = (
(569,786,l),
(549,746,l),
(767,672,l),
(873,755,l),
(873,786,l)
);
}
);
width = 873;
},
{
background = {
shapes = (
{
closed = 1;
nodes = (
(442,-19,l),
(546,32,l),
(861,755,l),
(790,721,l),
(489,27,l),
(543,49,l),
(264,721,l),
(116,768,l)
);
},
{
closed = 1;
nodes = (
(70,786,l),
(50,746,l),
(225,640,l),
(374,755,l),
(374,786,l)
);
},
{
closed = 1;
nodes = (
(619,786,l),
(599,746,l),
(817,672,l),
(923,755,l),
(923,786,l)
);
}
);
};
layerId = "2CCCAF06-0AAA-44C6-8F00-0A68246BB68E";
name = Bold;
shapes = (
{
closed = 1;
nodes = (
(372,-19,l),
(586,32,l),
(861,715,l),
(730,681,l),
(469,27,l),
(570,49,l),
(314,681,l),
(66,728,l)
);
},
{
closed = 1;
nodes = (
(30,786,l),
(-10,706,l),
(225,600,l),
(444,715,l),
(444,786,l)
);
},
{
closed = 1;
nodes = (
(609,786,l),
(569,706,l),
(777,592,l),
(943,715,l),
(943,786,l)
);
}
);
width = 943;
}
);
unicode = 86;
},
{
glyphname = W;
kernLeft = V;
kernRight = V;
lastChange = "2014-07-18 10:15:28 +0000";
layers = (
{
anchors = (
{
name = top;
pos = (625,786);
}
);
background = {
shapes = (
{
closed = 1;
nodes = (
(342,-19,l),
(446,32,l),
(665,538,l),
(624,573,l),
(389,27,l),
(443,49,l),
(224,721,l),
(76,768,l)
);
},
{
closed = 1;
nodes = (
(30,786,l),
(10,746,l),
(185,640,l),
(188,666,l),
(304,755,l),
(304,786,l)
);
},
{
closed = 1;
nodes = (
(754,-19,l),
(858,32,l),
(1133,755,l),
(1062,721,l),
(801,27,l),
(855,49,l),
(636,721,l),
(488,768,l)
);
},
{
closed = 1;
nodes = (
(442,786,l),
(422,746,l),
(597,640,l),
(620,665,l),
(736,755,l),
(736,786,l)
);
},
{
closed = 1;
nodes = (
(891,786,l),
(871,746,l),
(1089,672,l),
(1195,755,l),
(1195,786,l)
);
}
);
};
layerId = "E07B5D26-C0CD-4D0E-A705-659FB2222D21";
metricLeft = "=V";
metricRight = "=V";
name = Regular;
shapes = (
{
closed = 1;
nodes = (
(764,-19,l),
(868,32,l),
(1133,755,l),
(1062,721,l),
(811,27,l),
(865,49,l),
(646,721,l),
(498,768,l)
);
},
{
closed = 1;
nodes = (
(352,-19,l),
(456,32,l),
(635,538,l),
(594,573,l),
(399,27,l),
(453,49,l),
(214,721,l),
(66,768,l)
);
},
{
closed = 1;
nodes = (
(20,786,l),
(0,746,l),
(157,651,l),
(294,755,l),
(294,786,l)
);
},
{
closed = 1;
nodes = (
(452,786,l),
(432,746,l),
(602,643,l),
(746,755,l),
(746,786,l)
);
},
{
closed = 1;
nodes = (
(891,786,l),
(871,746,l),
(1089,672,l),
(1195,755,l),
(1195,786,l)
);
}
);
width = 1195;
},
{
anchors = (
{
name = top;
pos = (695,786);
}
);
background = {
shapes = (
{
closed = 1;
nodes = (
(362,-19,l),
(466,32,l),
(685,538,l),
(644,573,l),
(409,27,l),
(463,49,l),
(244,721,l),
(96,768,l)
);
},
{
closed = 1;
nodes = (
(50,786,l),
(30,746,l),
(205,640,l),
(208,666,l),
(324,755,l),
(324,786,l)
);
},
{
closed = 1;
nodes = (
(774,-19,l),
(878,32,l),
(1153,755,l),
(1082,721,l),
(821,27,l),
(875,49,l),
(656,721,l),
(508,768,l)
);
},
{
closed = 1;
nodes = (
(462,786,l),
(442,746,l),
(617,640,l),
(640,665,l),
(756,755,l),
(756,786,l)
);
},
{
closed = 1;
nodes = (
(911,786,l),
(891,746,l),
(1109,672,l),
(1215,755,l),
(1215,786,l)
);
}
);
};
layerId = "2CCCAF06-0AAA-44C6-8F00-0A68246BB68E";
metricLeft = "=V";
metricRight = "=V";
name = Bold;
shapes = (
{
closed = 1;
nodes = (
(797,-19,l),
(1011,32,l),
(1251,715,l),
(1125,681,l),
(899,27,l),
(990,49,l),
(769,681,l),
(526,728,l)
);
},
{
closed = 1;
nodes = (
(362,-19,l),
(576,32,l),
(683,399,l),
(615,532,l),
(464,27,l),
(555,49,l),
(309,681,l),
(66,728,l)
);
},
{
closed = 1;
nodes = (
(30,786,l),
(-10,706,l),
(225,600,l),
(384,715,l),
(384,786,l)
);
},
{
closed = 1;
nodes = (
(500,786,l),
(460,706,l),
(675,600,l),
(884,715,l),
(884,786,l)
);
},
{
closed = 1;
nodes = (
(999,786,l),
(959,706,l),
(1167,592,l),
(1333,715,l),
(1333,786,l)
);
}
);
width = 1333;
}
);
metricLeft = V;
metricRight = V;
unicode = 87;
},
{
glyphname = X;
lastChange = "2014-06-29 16:43:21 +0000";
layers = (
{
background = {
shapes = (
{
closed = 1;
nodes = (
(392,351,l),
(493,419,l),
(254,721,l),
(66,768,l)
);
},
{
closed = 1;
nodes = (
(50,786,l),
(30,746,l),
(205,640,l),
(354,755,l),
(354,786,l)
);
},
{
closed = 1;
nodes = (
(682,721,l),
(416,398,l),
(486,402,l),
(783,755,l)
);
},
{
closed = 1;
nodes = (
(529,786,l),
(509,746,l),
(697,672,l),
(833,755,l),
(833,786,l)
);
},
{
closed = 1;
nodes = (
(481,435,l),
(380,367,l),
(619,65,l),
(807,18,l)
);
},
{
closed = 1;
nodes = (
(823,0,l),
(843,40,l),
(668,146,l),
(519,31,l),
(519,0,l)
);
},
{
closed = 1;
nodes = (
(171,65,l),
(457,388,l),
(387,384,l),
(70,31,l)
);
},
{
closed = 1;
nodes = (
(324,0,l),
(344,40,l),
(156,114,l),
(20,31,l),
(20,0,l)
);
}
);
};
layerId = "E07B5D26-C0CD-4D0E-A705-659FB2222D21";
name = Regular;
shapes = (
{
closed = 1;
nodes = (
(392,351,l),
(493,419,l),
(254,721,l),
(66,768,l)
);
},
{
closed = 1;
nodes = (
(50,786,l),
(30,746,l),
(205,640,l),
(354,755,l),
(354,786,l)
);
},
{
closed = 1;
nodes = (
(682,721,l),
(416,398,l),
(486,402,l),
(783,755,l)
);
},
{
closed = 1;
nodes = (
(529,786,l),
(509,746,l),
(697,672,l),
(833,755,l),
(833,786,l)
);
},
{
closed = 1;
nodes = (
(481,435,l),
(380,367,l),
(619,65,l),
(807,18,l)
);
},
{
closed = 1;
nodes = (
(823,0,l),
(843,40,l),
(668,146,l),
(519,31,l),
(519,0,l)
);
},
{
closed = 1;
nodes = (
(171,65,l),
(457,388,l),
(387,384,l),
(70,31,l)
);
},
{
closed = 1;
nodes = (
(324,0,l),
(344,40,l),
(156,114,l),
(20,31,l),
(20,0,l)
);
}
);
width = 873;
},
{
background = {
shapes = (
{
closed = 1;
nodes = (
(402,351,l),
(503,419,l),
(264,721,l),
(76,768,l)
);
},
{
closed = 1;
nodes = (
(60,786,l),
(40,746,l),
(215,640,l),
(364,755,l),
(364,786,l)
);
},
{
closed = 1;
nodes = (
(692,721,l),
(426,398,l),
(496,402,l),
(793,755,l)
);
},
{
closed = 1;
nodes = (
(539,786,l),
(519,746,l),
(707,672,l),
(843,755,l),
(843,786,l)
);
},
{
closed = 1;
nodes = (
(491,435,l),
(390,367,l),
(629,65,l),
(817,18,l)
);
},
{
closed = 1;
nodes = (
(833,0,l),
(853,40,l),
(678,146,l),
(529,31,l),
(529,0,l)
);
},
{
closed = 1;
nodes = (
(181,65,l),
(467,388,l),
(397,384,l),
(80,31,l)
);
},
{
closed = 1;
nodes = (
(334,0,l),
(354,40,l),
(166,114,l),
(30,31,l),
(30,0,l)
);
}
);
};
layerId = "2CCCAF06-0AAA-44C6-8F00-0A68246BB68E";
name = Bold;
shapes = (
{
closed = 1;
nodes = (
(352,351,l),
(553,419,l),
(324,681,l),
(16,728,l)
);
},
{
closed = 1;
nodes = (
(40,786,l),
(0,706,l),
(185,600,l),
(414,715,l),
(414,786,l)
);
},
{
closed = 1;
nodes = (
(647,681,l),
(381,398,l),
(536,402,l),
(833,715,l)
);
},
{
closed = 1;
nodes = (
(539,786,l),
(499,706,l),
(697,592,l),
(873,715,l),
(873,786,l)
);
},
{
closed = 1;
nodes = (
(541,435,l),
(340,367,l),
(569,105,l),
(877,58,l)
);
},
{
closed = 1;
nodes = (
(853,0,l),
(893,80,l),
(668,186,l),
(479,71,l),
(479,0,l)
);
},
{
closed = 1;
nodes = (
(226,105,l),
(512,388,l),
(355,384,l),
(38,71,l)
);
},
{
closed = 1;
nodes = (
(334,0,l),
(374,80,l),
(176,194,l),
(0,71,l),
(0,0,l)
);
}
);
width = 893;
}
);
unicode = 88;
},
{
glyphname = Y;
kernLeft = Y;
kernRight = Y;
lastChange = "2014-10-09 19:51:24 +0000";
layers = (
{
anchors = (
{
name = top;
pos = (402,786);
}
);
background = {
shapes = (
{
closed = 1;
nodes = (
(362,241,l),
(449,329,l),
(208,721,l),
(36,768,l)
);
},
{
closed = 1;
nodes = (
(20,786,l),
(0,746,l),
(175,640,l),
(324,755,l),
(324,786,l)
);
},
{
closed = 1;
nodes = (
(663,721,l),
(386,288,l),
(428,246,l),
(753,755,l)
);
},
{
closed = 1;
nodes = (
(499,786,l),
(479,746,l),
(667,672,l),
(803,755,l),
(803,786,l)
);
},
{
closed = 1;
nodes = (
(242,31,l),
(242,0,l),
(546,0,l),
(566,40,l),
(348,114,l)
);
},
{
closed = 1;
nodes = (
(336,357,l),
(336,0,l),
(461,0,l),
(461,330,l)
);
}
);
};
layerId = "E07B5D26-C0CD-4D0E-A705-659FB2222D21";
metricLeft = "=V";
metricRight = "=V";
name = Regular;
shapes = (
{
closed = 1;
nodes = (
(362,241,l),
(449,329,l),
(208,721,l),
(36,768,l)
);
},
{
closed = 1;
nodes = (
(20,786,l),
(0,746,l),
(175,640,l),
(324,755,l),
(324,786,l)
);
},
{
closed = 1;
nodes = (
(663,721,l),
(386,288,l),
(428,246,l),
(753,755,l)
);
},
{
closed = 1;
nodes = (
(499,786,l),
(479,746,l),
(667,672,l),
(803,755,l),
(803,786,l)
);
},
{
closed = 1;
nodes = (
(242,31,l),
(242,0,l),
(546,0,l),
(566,40,l),
(348,114,l)
);
},
{
closed = 1;
nodes = (
(336,357,l),
(336,0,l),
(461,0,l),
(461,330,l)
);
}
);
width = 803;
},
{
anchors = (
{
name = top;
pos = (442,786);
}
);
background = {
shapes = (
{
closed = 1;
nodes = (
(412,241,l),
(499,329,l),
(258,721,l),
(86,768,l)
);
},
{
closed = 1;
nodes = (
(70,786,l),
(50,746,l),
(225,640,l),
(374,755,l),
(374,786,l)
);
},
{
closed = 1;
nodes = (
(713,721,l),
(436,288,l),
(478,246,l),
(803,755,l)
);
},
{
closed = 1;
nodes = (
(549,786,l),
(529,746,l),
(717,672,l),
(853,755,l),
(853,786,l)
);
},
{
closed = 1;
nodes = (
(292,31,l),
(292,0,l),
(596,0,l),
(616,40,l),
(398,114,l)
);
},
{
closed = 1;
nodes = (
(386,357,l),
(386,0,l),
(511,0,l),
(511,330,l)
);
}
);
};
layerId = "2CCCAF06-0AAA-44C6-8F00-0A68246BB68E";
metricLeft = "=V";
metricRight = "=V";
name = Bold;
shapes = (
{
closed = 1;
nodes = (
(342,241,l),
(529,329,l),
(298,681,l),
(26,728,l)
);
},
{
closed = 1;
nodes = (
(10,786,l),
(-10,706,l),
(225,600,l),
(374,715,l),
(374,786,l)
);
},
{
closed = 1;
nodes = (
(673,681,l),
(386,288,l),
(488,246,l),
(823,715,l)
);
},
{
closed = 1;
nodes = (
(539,786,l),
(499,706,l),
(717,592,l),
(873,715,l),
(873,786,l)
);
},
{
closed = 1;
nodes = (
(242,71,l),
(242,0,l),
(616,0,l),
(656,80,l),
(348,154,l)
);
},
{
closed = 1;
nodes = (
(336,357,l),
(336,0,l),
(541,0,l),
(541,370,l)
);
}
);
width = 873;
}
);
metricLeft = V;
metricRight = V;
unicode = 89;
},
{
glyphname = Z;
kernLeft = Z;
kernRight = Z;
lastChange = "2014-10-09 19:51:35 +0000";
layers = (
{
anchors = (
{
name = top;
pos = (395,786);
}
);
background = {
shapes = (
{
closed = 1;
nodes = (
(100,564,l),
(130,554,l),
(273,766,l),
(175,779,l),
(100,804,l)
);
},
{
closed = 1;
nodes = (
(108,786,l),
(108,741,l),
(716,741,l),
(716,786,l)
);
},
{
closed = 1;
nodes = (
(706,242,l),
(676,252,l),
(533,40,l),
(631,7,l),
(706,-18,l)
);
},
{
closed = 1;
nodes = (
(698,0,l),
(698,45,l),
(69,45,l),
(69,0,l)
);
},
{
closed = 1;
nodes = (
(194,15,l),
(716,741,l),
(595,776,l),
(69,45,l)
);
}
);
};
layerId = "E07B5D26-C0CD-4D0E-A705-659FB2222D21";
name = Regular;
shapes = (
{
closed = 1;
nodes = (
(100,564,l),
(130,554,l),
(273,766,l),
(175,779,l),
(100,804,l)
);
},
{
closed = 1;
nodes = (
(108,786,l),
(108,741,l),
(716,741,l),
(716,786,l)
);
},
{
closed = 1;
nodes = (
(706,242,l),
(676,252,l),
(533,40,l),
(631,7,l),
(706,-18,l)
);
},
{
closed = 1;
nodes = (
(698,0,l),
(698,45,l),
(69,45,l),
(69,0,l)
);
},
{
closed = 1;
nodes = (
(194,15,l),
(716,741,l),
(595,776,l),
(69,45,l)
);
}
);
width = 790;
},
{
anchors = (
{
name = top;
pos = (395,786);
}
);
background = {
shapes = (
{
closed = 1;
nodes = (
(100,564,l),
(130,554,l),
(273,766,l),
(175,779,l),
(100,804,l)
);
},
{
closed = 1;
nodes = (
(108,786,l),
(108,741,l),
(716,741,l),
(716,786,l)
);
},
{
closed = 1;
nodes = (
(706,242,l),
(676,252,l),
(533,40,l),
(631,7,l),
(706,-18,l)
);
},
{
closed = 1;
nodes = (
(698,0,l),
(698,45,l),
(69,45,l),
(69,0,l)
);
},
{
closed = 1;
nodes = (
(194,15,l),
(716,741,l),
(595,776,l),
(69,45,l)
);
}
);
};
layerId = "2CCCAF06-0AAA-44C6-8F00-0A68246BB68E";
name = Bold;
shapes = (
{
closed = 1;
nodes = (
(60,524,l),
(130,494,l),
(273,726,l),
(175,779,l),
(60,804,l)
);
},
{
closed = 1;
nodes = (
(68,786,l),
(68,691,l),
(756,691,l),
(756,786,l)
);
},
{
closed = 1;
nodes = (
(746,282,l),
(676,312,l),
(533,80,l),
(631,7,l),
(746,-18,l)
);
},
{
closed = 1;
nodes = (
(738,0,l),
(738,95,l),
(29,95,l),
(29,0,l)
);
},
{
closed = 1;
nodes = (
(229,25,l),
(756,691,l),
(560,766,l),
(29,95,l)
);
}
);
width = 790;
}
);
unicode = 90;
},
{
glyphname = a;
kernLeft = a;
kernRight = n;
lastChange = "2014-10-27 10:52:00 +0000";
layers = (
{
anchors = (
{
name = ogonek;
pos = (576,0);
},
{
name = top;
pos = (299,531);
}
);
background = {
shapes = (
{
closed = 1;
nodes = (
(397,31,l),
(397,0,l),
(576,0,l),
(596,40,l),
(403,114,l)
);
},
{
closed = 1;
nodes = (
(211,75,o),
(185,118,o),
(185,165,cs),
(185,189,o),
(190,210,o),
(209,232,c),
(411,232,l),
(411,272,l),
(160,272,l),
(96,231,o),
(60,184,o),
(60,136,cs),
(60,67,o),
(98,-10,o),
(223,-10,cs),
(237,-10,o),
(258,-8,o),
(273,-2,c),
(450,138,l),
(420,161,l),
(341,86,o),
(289,75,o),
(255,75,cs)
);
},
{
closed = 1;
nodes = (
(506,438,o),
(425,541,o),
(306,541,cs),
(222,541,o),
(75,458,o),
(75,356,c),
(215,356,l),
(215,457,l),
(319,507,o),
(386,402,o),
(386,306,cs),
(386,0,l),
(506,0,l),
(506,333,ls)
);
}
);
};
hints = (
{
horizontal = 1;
origin = (1,6);
target = (1,14);
type = Stem;
},
{
horizontal = 1;
origin = (0,16);
target = (0,7);
type = Stem;
},
{
origin = (1,3);
target = (1,17);
type = Stem;
},
{
origin = (0,11);
target = (0,12);
type = Stem;
},
{
horizontal = 1;
origin = (1,20);
target = (1,0);
type = Stem;
}
);
layerId = "E07B5D26-C0CD-4D0E-A705-659FB2222D21";
name = Regular;
shapes = (
{
closed = 1;
nodes = (
(288,541,o),
(254,540,o),
(219,533,c),
(75,419,l),
(105,381,l),
(178,442,o),
(226,456,o),
(257,456,cs),
(330,456,o),
(386,429,o),
(386,337,cs),
(386,0,l),
(506,0,l),
(506,367,ls),
(506,481,o),
(435,541,o),
(315,541,cs)
);
},
{
closed = 1;
nodes = (
(160,273,l),
(96,232,o),
(60,184,o),
(60,136,cs),
(60,67,o),
(98,-10,o),
(223,-10,cs),
(237,-10,o),
(258,-8,o),
(273,-2,c),
(450,138,l),
(420,161,l),
(341,86,o),
(289,75,o),
(255,75,cs),
(211,75,o),
(185,118,o),
(185,165,cs),
(185,189,o),
(190,210,o),
(209,232,c),
(411,232,l),
(411,273,l)
);
},
{
closed = 1;
nodes = (
(397,31,l),
(397,0,l),
(576,0,l),
(596,40,l),
(403,114,l)
);
}
);
width = 621;
},
{
anchors = (
{
name = ogonek;
pos = (556,0);
},
{
name = top;
pos = (301,531);
}
);
associatedMasterId = "E07B5D26-C0CD-4D0E-A705-659FB2222D21";
background = {
shapes = (
{
closed = 1;
nodes = (
(210,541,o),
(134,500,o),
(76,413,c),
(96,384,l),
(151,431,o),
(200,446,o),
(245,446,cs),
(313,446,o),
(366,421,o),
(366,337,cs),
(366,0,l),
(486,0,l),
(486,367,ls),
(486,481,o),
(419,541,o),
(305,541,cs)
);
},
{
closed = 1;
nodes = (
(377,31,l),
(377,0,l),
(556,0,l),
(576,40,l),
(383,114,l)
);
},
{
closed = 1;
nodes = (
(201,75,o),
(185,104,o),
(185,155,cs),
(185,183,o),
(190,207,o),
(209,232,c),
(417,279,l),
(411,319,l),
(110,250,l),
(73,215,o),
(60,176,o),
(60,136,cs),
(60,67,o),
(98,-10,o),
(223,-10,cs),
(237,-10,o),
(255,-9,o),
(273,-2,c),
(450,138,l),
(420,161,l),
(341,86,o),
(289,75,o),
(255,75,cs)
);
}
);
};
layerId = "3B8253C9-A062-4D38-95F9-29A809CDA91A";
metricRight = "=n";
name = "Regular Jun 19 14, 22:52";
shapes = (
{
closed = 1;
nodes = (
(210,541,o),
(134,500,o),
(76,413,c),
(96,384,l),
(151,431,o),
(200,446,o),
(245,446,cs),
(313,446,o),
(366,421,o),
(366,337,cs),
(366,0,l),
(486,0,l),
(486,367,ls),
(486,481,o),
(419,541,o),
(305,541,cs)
);
},
{
closed = 1;
nodes = (
(377,31,l),
(377,0,l),
(556,0,l),
(576,40,l),
(383,114,l)
);
},
{
closed = 1;
nodes = (
(201,75,o),
(185,104,o),
(185,155,cs),
(185,183,o),
(190,207,o),
(209,232,c),
(417,279,l),
(411,319,l),
(110,250,l),
(73,215,o),
(60,176,o),
(60,136,cs),
(60,67,o),
(98,-10,o),
(223,-10,cs),
(237,-10,o),
(255,-9,o),
(273,-2,c),
(450,138,l),
(420,161,l),
(341,86,o),
(289,75,o),
(255,75,cs)
);
}
);
width = 601;
},
{
anchors = (
{
name = ogonek;
pos = (646,0);
},
{
name = top;
pos = (325,543);
}
);
background = {
shapes = (
{
closed = 1;
nodes = (
(340,456,o),
(396,429,o),
(396,337,cs),
(396,0,l),
(516,0,l),
(516,367,ls),
(516,481,o),
(445,541,o),
(325,541,cs),
(298,541,o),
(264,540,o),
(229,533,c),
(85,419,l),
(115,381,l),
(188,442,o),
(236,456,o),
(267,456,cs)
);
},
{
closed = 1;
nodes = (
(407,31,l),
(407,0,l),
(586,0,l),
(606,40,l),
(413,114,l)
);
},
{
closed = 1;
nodes = (
(221,75,o),
(195,118,o),
(195,165,cs),
(195,189,o),
(200,210,o),
(219,232,c),
(421,232,l),
(421,273,l),
(170,273,l),
(106,232,o),
(70,184,o),
(70,136,cs),
(70,67,o),
(108,-10,o),
(233,-10,cs),
(247,-10,o),
(268,-8,o),
(283,-2,c),
(460,138,l),
(430,161,l),
(351,86,o),
(299,75,o),
(265,75,cs)
);
}
);
};
layerId = "2CCCAF06-0AAA-44C6-8F00-0A68246BB68E";
name = Bold;
shapes = (
{
closed = 1;
nodes = (
(296,553,o),
(251,551,o),
(202,534,c),
(65,424,l),
(95,356,l),
(193,387,o),
(256,398,o),
(297,398,cs),
(352,398,o),
(396,367,o),
(396,299,cs),
(396,0,l),
(596,0,l),
(596,339,ls),
(596,481,o),
(497,553,o),
(334,553,cs)
);
},
{
closed = 1;
nodes = (
(130,309,l),
(72,265,o),
(40,212,o),
(40,159,cs),
(40,80,o),
(84,-10,o),
(233,-10,cs),
(247,-10,o),
(268,-8,o),
(283,-2,c),
(460,138,l),
(430,211,l),
(366,165,o),
(323,155,o),
(295,155,cs),
(257,155,o),
(235,170,o),
(235,196,cs),
(235,210,o),
(238,217,o),
(244,228,c),
(421,228,l),
(421,309,l)
);
},
{
closed = 1;
nodes = (
(407,31,l),
(407,0,l),
(646,0,l),
(686,80,l),
(493,154,l)
);
}
);
width = 691;
}
);
metricRight = n;
unicode = 97;
},
{
glyphname = a.ss01;
kernLeft = o;
kernRight = u;
lastChange = "2014-11-01 14:54:46 +0000";
layers = (
{
anchors = (
{
name = ogonek;
pos = (660,0);
},
{
name = top;
pos = (347,531);
}
);
background = {
shapes = (
{
closed = 1;
nodes = (
(481,31,l),
(481,0,l),
(660,0,l),
(680,40,l),
(487,114,l)
);
},
{
closed = 1;
nodes = (
(295,75,o),
(269,118,o),
(269,165,cs),
(269,189,o),
(274,210,o),
(293,232,c),
(495,232,l),
(495,272,l),
(244,272,l),
(180,231,o),
(144,184,o),
(144,136,cs),
(144,67,o),
(182,-10,o),
(307,-10,cs),
(321,-10,o),
(342,-8,o),
(357,-2,c),
(534,138,l),
(504,161,l),
(425,86,o),
(373,75,o),
(339,75,cs)
);
},
{
closed = 1;
nodes = (
(590,438,o),
(509,541,o),
(390,541,cs),
(306,541,o),
(159,458,o),
(159,356,c),
(299,356,l),
(299,457,l),
(403,507,o),
(470,402,o),
(470,306,cs),
(470,0,l),
(590,0,l),
(590,333,ls)
);
}
);
};
layerId = "E07B5D26-C0CD-4D0E-A705-659FB2222D21";
metricLeft = "=o";
metricRight = "=u";
name = Regular;
shapes = (
{
closed = 1;
nodes = (
(240,541,o),
(70,410,o),
(70,248,cs),
(70,104,o),
(166,-10,o),
(300,-10,cs),
(322,-10,o),
(349,-9,o),
(377,-2,c),
(554,138,l),
(524,161,l),
(444,86,o),
(398,75,o),
(351,75,cs),
(249,75,o),
(200,179,o),
(200,296,cs),
(200,401,o),
(237,457,o),
(313,457,cs),
(420,457,o),
(471,397,o),
(471,328,c),
(571,283,l),
(571,426,o),
(488,541,o),
(371,541,cs)
);
},
{
closed = 1;
nodes = (
(552,551,l),
(470,437,l),
(470,0,l),
(590,0,l),
(590,551,l)
);
},
{
closed = 1;
nodes = (
(481,31,l),
(481,0,l),
(660,0,l),
(680,40,l),
(487,114,l)
);
}
);
width = 715;
},
{
anchors = (
{
name = ogonek;
pos = (556,0);
},
{
name = top;
pos = (301,531);
}
);
associatedMasterId = "E07B5D26-C0CD-4D0E-A705-659FB2222D21";
background = {
shapes = (
{
closed = 1;
nodes = (
(210,541,o),
(134,500,o),
(76,413,c),
(96,384,l),
(151,431,o),
(200,446,o),
(245,446,cs),
(313,446,o),
(366,421,o),
(366,337,cs),
(366,0,l),
(486,0,l),
(486,367,ls),
(486,481,o),
(419,541,o),
(305,541,cs)
);
},
{
closed = 1;
nodes = (
(377,31,l),
(377,0,l),
(556,0,l),
(576,40,l),
(383,114,l)
);
},
{
closed = 1;
nodes = (
(201,75,o),
(185,104,o),
(185,155,cs),
(185,183,o),
(190,207,o),
(209,232,c),
(417,279,l),
(411,319,l),
(110,250,l),
(73,215,o),
(60,176,o),
(60,136,cs),
(60,67,o),
(98,-10,o),
(223,-10,cs),
(237,-10,o),
(255,-9,o),
(273,-2,c),
(450,138,l),
(420,161,l),
(341,86,o),
(289,75,o),
(255,75,cs)
);
}
);
};
layerId = "3B8253C9-A062-4D38-95F9-29A809CDA91A";
metricRight = "=n";
name = "Regular Jun 19 14, 22:52";
shapes = (
{
closed = 1;
nodes = (
(210,541,o),
(134,500,o),
(76,413,c),
(96,384,l),
(151,431,o),
(200,446,o),
(245,446,cs),
(313,446,o),
(366,421,o),
(366,337,cs),
(366,0,l),
(486,0,l),
(486,367,ls),
(486,481,o),
(419,541,o),
(305,541,cs)
);
},
{
closed = 1;
nodes = (
(377,31,l),
(377,0,l),
(556,0,l),
(576,40,l),
(383,114,l)
);
},
{
closed = 1;
nodes = (
(201,75,o),
(185,104,o),
(185,155,cs),
(185,183,o),
(190,207,o),
(209,232,c),
(417,279,l),
(411,319,l),
(110,250,l),
(73,215,o),
(60,176,o),
(60,136,cs),
(60,67,o),
(98,-10,o),
(223,-10,cs),
(237,-10,o),
(255,-9,o),
(273,-2,c),
(450,138,l),
(420,161,l),
(341,86,o),
(289,75,o),
(255,75,cs)
);
}
);
width = 601;
},
{
anchors = (
{
name = ogonek;
pos = (700,0);
},
{
name = top;
pos = (369,543);
}
);
background = {
shapes = (
{
closed = 1;
nodes = (
(350,553,o),
(305,551,o),
(256,534,c),
(119,424,l),
(149,356,l),
(247,387,o),
(310,398,o),
(351,398,cs),
(406,398,o),
(450,367,o),
(450,299,cs),
(450,0,l),
(650,0,l),
(650,339,ls),
(650,481,o),
(551,553,o),
(388,553,cs)
);
},
{
closed = 1;
nodes = (
(184,309,l),
(126,265,o),
(94,212,o),
(94,159,cs),
(94,80,o),
(138,-10,o),
(287,-10,cs),
(301,-10,o),
(322,-8,o),
(337,-2,c),
(514,138,l),
(484,211,l),
(420,165,o),
(377,155,o),
(349,155,cs),
(311,155,o),
(289,170,o),
(289,196,cs),
(289,210,o),
(292,217,o),
(298,228,c),
(475,228,l),
(475,309,l)
);
},
{
closed = 1;
nodes = (
(461,31,l),
(461,0,l),
(700,0,l),
(740,80,l),
(547,154,l)
);
}
);
};
layerId = "2CCCAF06-0AAA-44C6-8F00-0A68246BB68E";
metricRight = "=n";
name = Bold;
shapes = (
{
closed = 1;
nodes = (
(220,553,o),
(50,418,o),
(50,248,cs),
(50,104,o),
(146,-10,o),
(280,-10,cs),
(302,-10,o),
(329,-9,o),
(357,-2,c),
(534,138,l),
(503,207,l),
(455,170,o),
(404,155,o),
(351,155,cs),
(291,155,o),
(260,219,o),
(260,296,cs),
(260,374,o),
(285,419,o),
(333,419,cs),
(412,419,o),
(451,373,o),
(451,323,c),
(631,295,l),
(631,438,o),
(516,553,o),
(351,553,cs)
);
},
{
closed = 1;
nodes = (
(572,553,l),
(450,451,l),
(450,0,l),
(650,0,l),
(650,553,l)
);
},
{
closed = 1;
nodes = (
(461,31,l),
(461,0,l),
(700,0,l),
(740,80,l),
(547,154,l)
);
}
);
width = 745;
}
);
metricLeft = o;
metricRight = n;
},
{
color = 7;
glyphname = ae;
kernLeft = a;
kernRight = o;
lastChange = "2014-07-08 14:35:48 +0000";
layers = (
{
background = {
shapes = (
{
closed = 1;
nodes = (
(324,456,o),
(376,429,o),
(376,337,cs),
(376,258,l),
(496,216,l),
(496,367,ls),
(496,481,o),
(429,541,o),
(315,541,cs),
(288,541,o),
(254,540,o),
(219,533,c),
(75,419,l),
(105,381,l),
(178,442,o),
(226,456,o),
(257,456,cs)
);
},
{
closed = 1;
nodes = (
(211,75,o),
(185,118,o),
(185,165,cs),
(185,189,o),
(190,210,o),
(209,232,c),
(401,232,l),
(401,272,l),
(160,272,l),
(96,231,o),
(60,184,o),
(60,136,cs),
(60,67,o),
(98,-10,o),
(223,-10,cs),
(237,-10,o),
(258,-8,o),
(273,-2,c),
(440,138,l),
(410,161,l),
(336,86,o),
(287,75,o),
(255,75,cs)
);
},
{
closed = 1;
nodes = (
(468,309,l),
(468,268,l),
(846,268,l),
(846,428,o),
(783,541,o),
(666,541,cs),
(539,541,o),
(375,410,o),
(375,248,cs),
(375,104,o),
(467,-10,o),
(590,-10,cs),
(617,-10,o),
(651,-9,o),
(686,-2,c),
(844,124,l),
(814,162,l),
(739,101,o),
(684,75,o),
(648,75,cs),
(553,75,o),
(505,178,o),
(505,296,cs),
(505,401,o),
(539,457,o),
(608,457,cs),
(695,457,o),
(698,385,o),
(712,293,c),
(747,309,l)
);
}
);
};
layerId = "E07B5D26-C0CD-4D0E-A705-659FB2222D21";
metricLeft = "=a";
metricRight = "=e";
name = Regular;
shapes = (
{
closed = 1;
nodes = (
(539,541,o),
(375,410,o),
(375,248,cs),
(375,104,o),
(467,-10,o),
(590,-10,cs),
(617,-10,o),
(651,-9,o),
(686,-2,c),
(844,124,l),
(814,162,l),
(739,101,o),
(684,75,o),
(648,75,cs),
(553,75,o),
(505,178,o),
(505,296,cs),
(505,401,o),
(539,457,o),
(608,457,cs),
(695,457,o),
(698,385,o),
(712,293,c),
(747,309,l),
(468,309,l),
(468,268,l),
(846,268,l),
(846,428,o),
(783,541,o),
(666,541,cs)
);
},
{
closed = 1;
nodes = (
(160,272,l),
(96,231,o),
(60,184,o),
(60,136,cs),
(60,67,o),
(98,-10,o),
(223,-10,cs),
(246,-10,o),
(279,-8,o),
(303,-2,c),
(470,138,l),
(420,161,l),
(346,86,o),
(297,75,o),
(265,75,cs),
(215,75,o),
(185,118,o),
(185,165,cs),
(185,189,o),
(190,210,o),
(209,232,c),
(401,232,l),
(401,272,l)
);
},
{
closed = 1;
nodes = (
(288,541,o),
(254,540,o),
(219,533,c),
(75,419,l),
(105,381,l),
(178,442,o),
(226,456,o),
(257,456,cs),
(324,456,o),
(376,429,o),
(376,337,cs),
(376,258,l),
(496,216,l),
(496,367,ls),
(496,481,o),
(429,541,o),
(315,541,cs)
);
}
);
width = 916;
},
{
background = {
shapes = (
{
closed = 1;
nodes = (
(324,456,o),
(376,429,o),
(376,337,cs),
(376,258,l),
(496,216,l),
(496,367,ls),
(496,481,o),
(429,541,o),
(315,541,cs),
(288,541,o),
(254,540,o),
(219,533,c),
(75,419,l),
(105,381,l),
(178,442,o),
(226,456,o),
(257,456,cs)
);
},
{
closed = 1;
nodes = (
(211,75,o),
(185,118,o),
(185,165,cs),
(185,189,o),
(190,210,o),
(209,232,c),
(401,232,l),
(401,272,l),
(160,272,l),
(96,231,o),
(60,184,o),
(60,136,cs),
(60,67,o),
(98,-10,o),
(223,-10,cs),
(237,-10,o),
(258,-8,o),
(273,-2,c),
(440,138,l),
(410,161,l),
(336,86,o),
(287,75,o),
(255,75,cs)
);
},
{
closed = 1;
nodes = (
(468,309,l),
(468,268,l),
(846,268,l),
(846,428,o),
(783,541,o),
(666,541,cs),
(539,541,o),
(375,410,o),
(375,248,cs),
(375,104,o),
(467,-10,o),
(590,-10,cs),
(617,-10,o),
(651,-9,o),
(686,-2,c),
(844,124,l),
(814,162,l),
(739,101,o),
(684,75,o),
(648,75,cs),
(553,75,o),
(505,178,o),
(505,296,cs),
(505,401,o),
(539,457,o),
(608,457,cs),
(695,457,o),
(698,385,o),
(712,293,c),
(747,309,l)
);
}
);
};
layerId = "2CCCAF06-0AAA-44C6-8F00-0A68246BB68E";
metricLeft = "=a";
metricRight = "=e";
name = Bold;
shapes = (
{
closed = 1;
nodes = (
(557,553,o),
(375,422,o),
(375,254,cs),
(375,104,o),
(479,-10,o),
(625,-10,cs),
(669,-10,o),
(721,-8,o),
(778,9,c),
(915,119,l),
(885,187,l),
(787,149,o),
(724,135,o),
(683,135,cs),
(611,135,o),
(575,207,o),
(575,302,cs),
(575,381,o),
(596,419,o),
(642,419,cs),
(697,419,o),
(718,379,o),
(722,299,c),
(747,315,l),
(498,315,l),
(498,234,l),
(916,234,l),
(920,440,o),
(837,553,o),
(696,553,cs)
);
},
{
closed = 1;
nodes = (
(130,309,l),
(72,265,o),
(40,212,o),
(40,159,cs),
(40,80,o),
(84,-10,o),
(233,-10,cs),
(262,-10,o),
(303,-8,o),
(333,-2,c),
(510,138,l),
(480,191,l),
(396,145,o),
(341,135,o),
(305,135,cs),
(261,135,o),
(235,158,o),
(235,196,cs),
(235,210,o),
(238,217,o),
(244,228,c),
(421,228,l),
(421,309,l)
);
},
{
closed = 1;
nodes = (
(289,553,o),
(247,551,o),
(202,534,c),
(65,424,l),
(95,356,l),
(188,387,o),
(248,398,o),
(287,398,cs),
(336,398,o),
(376,367,o),
(376,299,cs),
(376,267,l),
(566,254,l),
(566,339,ls),
(566,481,o),
(475,553,o),
(324,553,cs)
);
}
);
width = 966;
}
);
metricLeft = a;
metricRight = e;
unicode = 230;
},
{
color = 7;
glyphname = ae.ss01;
kernLeft = o;
kernRight = o;
lastChange = "2014-11-01 14:54:46 +0000";
layers = (
{
background = {
shapes = (
{
closed = 1;
nodes = (
(594,541,o),
(430,410,o),
(430,248,cs),
(430,104,o),
(522,-10,o),
(645,-10,cs),
(672,-10,o),
(706,-9,o),
(741,-2,c),
(899,124,l),
(869,162,l),
(794,101,o),
(739,75,o),
(703,75,cs),
(608,75,o),
(560,178,o),
(560,296,cs),
(560,401,o),
(594,457,o),
(663,457,cs),
(750,457,o),
(753,385,o),
(767,293,c),
(802,309,l),
(523,309,l),
(523,268,l),
(901,268,l),
(901,428,o),
(838,541,o),
(721,541,cs)
);
},
{
closed = 1;
nodes = (
(215,272,l),
(151,231,o),
(115,184,o),
(115,136,cs),
(115,67,o),
(153,-10,o),
(278,-10,cs),
(301,-10,o),
(334,-8,o),
(358,-2,c),
(525,138,l),
(475,161,l),
(401,86,o),
(352,75,o),
(320,75,cs),
(270,75,o),
(240,118,o),
(240,165,cs),
(240,189,o),
(245,210,o),
(264,232,c),
(456,232,l),
(456,272,l)
);
},
{
closed = 1;
nodes = (
(343,541,o),
(309,540,o),
(274,533,c),
(130,419,l),
(160,381,l),
(233,442,o),
(281,456,o),
(312,456,cs),
(379,456,o),
(431,429,o),
(431,337,cs),
(431,258,l),
(551,216,l),
(551,367,ls),
(551,481,o),
(484,541,o),
(370,541,cs)
);
}
);
};
layerId = "E07B5D26-C0CD-4D0E-A705-659FB2222D21";
metricLeft = "=o";
metricRight = "=e";
name = Regular;
shapes = (
{
closed = 1;
nodes = (
(594,541,o),
(430,410,o),
(430,248,cs),
(430,104,o),
(522,-10,o),
(645,-10,cs),
(672,-10,o),
(706,-9,o),
(741,-2,c),
(899,124,l),
(869,162,l),
(794,101,o),
(739,75,o),
(703,75,cs),
(608,75,o),
(560,178,o),
(560,296,cs),
(560,401,o),
(594,457,o),
(663,457,cs),
(750,457,o),
(753,385,o),
(767,293,c),
(802,309,l),
(523,309,l),
(523,268,l),
(901,268,l),
(901,428,o),
(838,541,o),
(721,541,cs)
);
},
{
closed = 1;
nodes = (
(228,541,o),
(70,410,o),
(70,248,cs),
(70,104,o),
(158,-10,o),
(280,-10,cs),
(296,-10,o),
(317,-9,o),
(337,-2,c),
(514,138,l),
(484,161,l),
(414,86,o),
(372,75,o),
(331,75,cs),
(243,75,o),
(200,179,o),
(200,296,cs),
(200,401,o),
(231,457,o),
(293,457,cs),
(386,457,o),
(431,397,o),
(431,328,c),
(531,283,l),
(531,426,o),
(456,541,o),
(351,541,cs)
);
},
{
closed = 1;
nodes = (
(512,551,l),
(430,437,l),
(430,-20,l),
(468,-20,l),
(550,94,l),
(550,551,l)
);
}
);
width = 971;
},
{
background = {
shapes = (
{
closed = 1;
nodes = (
(594,553,o),
(412,422,o),
(412,254,cs),
(412,104,o),
(516,-10,o),
(662,-10,cs),
(706,-10,o),
(758,-8,o),
(815,9,c),
(952,119,l),
(922,187,l),
(824,149,o),
(761,135,o),
(720,135,cs),
(648,135,o),
(612,207,o),
(612,302,cs),
(612,381,o),
(633,419,o),
(679,419,cs),
(734,419,o),
(755,379,o),
(759,299,c),
(784,315,l),
(535,315,l),
(535,234,l),
(953,234,l),
(957,440,o),
(874,553,o),
(733,553,cs)
);
},
{
closed = 1;
nodes = (
(167,309,l),
(109,265,o),
(77,212,o),
(77,159,cs),
(77,80,o),
(121,-10,o),
(270,-10,cs),
(299,-10,o),
(340,-8,o),
(370,-2,c),
(547,138,l),
(517,191,l),
(433,145,o),
(378,135,o),
(342,135,cs),
(298,135,o),
(272,158,o),
(272,196,cs),
(272,210,o),
(275,217,o),
(281,228,c),
(458,228,l),
(458,309,l)
);
},
{
closed = 1;
nodes = (
(326,553,o),
(284,551,o),
(239,534,c),
(102,424,l),
(132,356,l),
(225,387,o),
(285,398,o),
(324,398,cs),
(373,398,o),
(413,367,o),
(413,299,cs),
(413,267,l),
(603,254,l),
(603,339,ls),
(603,481,o),
(512,553,o),
(361,553,cs)
);
}
);
};
layerId = "2CCCAF06-0AAA-44C6-8F00-0A68246BB68E";
metricLeft = "=o";
metricRight = "=e";
name = Bold;
shapes = (
{
closed = 1;
nodes = (
(594,553,o),
(412,422,o),
(412,254,cs),
(412,104,o),
(516,-10,o),
(662,-10,cs),
(706,-10,o),
(758,-8,o),
(815,9,c),
(952,119,l),
(922,187,l),
(824,149,o),
(761,135,o),
(720,135,cs),
(648,135,o),
(612,207,o),
(612,302,cs),
(612,381,o),
(633,419,o),
(679,419,cs),
(734,419,o),
(755,379,o),
(759,299,c),
(784,315,l),
(535,315,l),
(535,234,l),
(953,234,l),
(957,440,o),
(874,553,o),
(733,553,cs)
);
},
{
closed = 1;
nodes = (
(208,553,o),
(50,418,o),
(50,248,cs),
(50,104,o),
(138,-10,o),
(260,-10,cs),
(276,-10,o),
(297,-9,o),
(317,-2,c),
(494,138,l),
(463,207,l),
(421,170,o),
(377,155,o),
(331,155,cs),
(285,155,o),
(260,219,o),
(260,296,cs),
(260,374,o),
(279,419,o),
(313,419,cs),
(378,419,o),
(411,373,o),
(411,323,c),
(591,295,l),
(591,438,o),
(484,553,o),
(331,553,cs)
);
},
{
closed = 1;
nodes = (
(532,553,l),
(410,451,l),
(410,-10,l),
(488,-10,l),
(610,92,l),
(610,553,l)
);
}
);
width = 1003;
}
);
metricLeft = a;
metricRight = e;
},
{
glyphname = b;
kernLeft = b;
kernRight = o;
lastChange = "2014-07-01 13:19:23 +0000";
layers = (
{
layerId = "E07B5D26-C0CD-4D0E-A705-659FB2222D21";
metricLeft = "=l-10";
metricRight = "=o";
name = Regular;
shapes = (
{
closed = 1;
nodes = (
(423,541,o),
(396,540,o),
(368,533,c),
(191,393,l),
(221,370,l),
(301,445,o),
(347,456,o),
(394,456,cs),
(468,456,o),
(505,352,o),
(505,235,cs),
(505,130,o),
(468,74,o),
(392,74,cs),
(285,74,o),
(234,134,o),
(234,203,c),
(134,248,l),
(134,105,o),
(217,-10,o),
(334,-10,cs),
(465,-10,o),
(635,121,o),
(635,283,cs),
(635,427,o),
(555,541,o),
(445,541,cs)
);
},
{
closed = 1;
nodes = (
(114,805,l),
(114,0,l),
(152,0,l),
(234,114,l),
(234,805,l)
);
},
{
closed = 1;
nodes = (
(196,873,l),
(25,809,l),
(25,778,l),
(197,658,l),
(234,722,l),
(234,873,l)
);
}
);
width = 705;
},
{
background = {
shapes = (
{
closed = 1;
nodes = (
(482,541,o),
(455,540,o),
(427,533,c),
(250,393,l),
(280,370,l),
(360,445,o),
(406,456,o),
(453,456,cs),
(527,456,o),
(564,352,o),
(564,235,cs),
(564,130,o),
(527,74,o),
(451,74,cs),
(344,74,o),
(293,134,o),
(293,203,c),
(193,248,l),
(193,105,o),
(276,-10,o),
(393,-10,cs),
(524,-10,o),
(694,121,o),
(694,283,cs),
(694,427,o),
(614,541,o),
(504,541,cs)
);
},
{
closed = 1;
nodes = (
(174,805,l),
(174,0,l),
(212,0,l),
(294,114,l),
(294,805,l)
);
},
{
closed = 1;
nodes = (
(256,873,l),
(85,809,l),
(85,778,l),
(257,658,l),
(294,722,l),
(294,873,l)
);
}
);
};
layerId = "2CCCAF06-0AAA-44C6-8F00-0A68246BB68E";
metricLeft = "=l-10";
metricRight = "=o";
name = Bold;
shapes = (
{
closed = 1;
nodes = (
(443,553,o),
(420,552,o),
(392,545,c),
(215,403,l),
(245,347,l),
(293,384,o),
(344,399,o),
(397,399,cs),
(458,399,o),
(485,330,o),
(485,242,cs),
(485,163,o),
(460,124,o),
(412,124,cs),
(333,124,o),
(294,170,o),
(294,222,c),
(154,214,l),
(154,88,o),
(238,-10,o),
(354,-10,cs),
(501,-10,o),
(695,121,o),
(695,289,cs),
(695,438,o),
(600,553,o),
(465,553,cs)
);
},
{
closed = 1;
nodes = (
(94,805,l),
(94,0,l),
(172,0,l),
(294,114,l),
(294,805,l)
);
},
{
closed = 1;
nodes = (
(216,873,l),
(5,784,l),
(5,713,l),
(257,548,l),
(294,654,l),
(294,873,l)
);
}
);
width = 745;
}
);
metricLeft = l;
metricRight = o;
unicode = 98;
},
{
glyphname = c;
kernLeft = o;
kernRight = c;
lastChange = "2014-07-09 16:05:54 +0000";
layers = (
{
anchors = (
{
name = bottom;
pos = (316,0);
},
{
name = top;
pos = (317,531);
}
);
layerId = "E07B5D26-C0CD-4D0E-A705-659FB2222D21";
metricLeft = "=o";
name = Regular;
shapes = (
{
closed = 1;
nodes = (
(228,541,o),
(70,410,o),
(70,248,cs),
(70,104,o),
(166,-10,o),
(300,-10,cs),
(327,-10,o),
(361,-9,o),
(396,-2,c),
(550,119,l),
(520,157,l),
(442,96,o),
(391,75,o),
(358,75,cs),
(251,75,o),
(200,178,o),
(200,296,cs),
(200,401,o),
(231,457,o),
(293,457,cs),
(366,457,o),
(436,416,o),
(487,350,c),
(525,350,l),
(525,504,l),
(493,522,o),
(407,541,o),
(351,541,cs)
);
}
);
width = 613;
},
{
anchors = (
{
name = bottom;
pos = (355,0);
},
{
name = top;
pos = (337,543);
}
);
background = {
shapes = (
{
closed = 1;
nodes = (
(386,457,o),
(456,416,o),
(507,350,c),
(545,350,l),
(545,504,l),
(513,522,o),
(427,541,o),
(371,541,cs),
(248,541,o),
(90,410,o),
(90,248,cs),
(90,104,o),
(186,-10,o),
(320,-10,cs),
(347,-10,o),
(381,-9,o),
(416,-2,c),
(570,119,l),
(540,157,l),
(462,96,o),
(411,75,o),
(378,75,cs),
(271,75,o),
(220,178,o),
(220,296,cs),
(220,401,o),
(251,457,o),
(313,457,cs)
);
},
{
closed = 1;
nodes = (
(433,1,o),
(456,4,o),
(473,9,c),
(610,119,l),
(580,192,l),
(545,172,o),
(511,166,o),
(486,166,cs),
(444,166,o),
(430,188,o),
(430,245,cs),
(430,554,l),
(230,554,l),
(230,155,ls),
(230,61,o),
(299,1,o),
(408,1,cs)
);
}
);
};
layerId = "2CCCAF06-0AAA-44C6-8F00-0A68246BB68E";
metricLeft = "=o";
name = Bold;
shapes = (
{
closed = 1;
nodes = (
(232,553,o),
(50,422,o),
(50,254,cs),
(50,104,o),
(162,-10,o),
(320,-10,cs),
(364,-10,o),
(416,-8,o),
(473,9,c),
(610,119,l),
(580,187,l),
(482,149,o),
(419,135,o),
(378,135,cs),
(299,135,o),
(260,211,o),
(260,302,cs),
(260,377,o),
(286,419,o),
(326,419,cs),
(395,419,o),
(459,378,o),
(507,312,c),
(585,312,l),
(585,516,l),
(545,534,o),
(439,553,o),
(371,553,cs)
);
}
);
width = 653;
}
);
metricLeft = o;
unicode = 99;
},
{
glyphname = d;
kernLeft = o;
kernRight = l;
lastChange = "2025-05-12 05:53:48 +0000";
layers = (
{
anchors = (
{
name = center;
pos = (353,266);
},
{
name = centre;
pos = (496,658);
},
{
name = topright;
pos = (670,531);
}
);
layerId = "E07B5D26-C0CD-4D0E-A705-659FB2222D21";
metricLeft = "=o";
metricRight = "=l";
name = Regular;
shapes = (
{
closed = 1;
nodes = (
(240,541,o),
(70,410,o),
(70,248,cs),
(70,104,o),
(166,-10,o),
(300,-10,cs),
(322,-10,o),
(349,-9,o),
(377,-2,c),
(554,138,l),
(524,161,l),
(444,86,o),
(398,75,o),
(351,75,cs),
(249,75,o),
(200,179,o),
(200,296,cs),
(200,401,o),
(237,457,o),
(313,457,cs),
(420,457,o),
(471,397,o),
(471,328,c),
(571,283,l),
(571,426,o),
(488,541,o),
(371,541,cs)
);
},
{
closed = 1;
nodes = (
(481,31,l),
(481,0,l),
(660,0,l),
(680,40,l),
(487,114,l)
);
},
{
closed = 1;
nodes = (
(470,779,l),
(470,0,l),
(590,0,l),
(590,873,l)
);
},
{
closed = 1;
nodes = (
(552,873,l),
(381,809,l),
(381,778,l),
(553,658,l),
(590,873,l)
);
}
);
width = 715;
},
{
anchors = (
{
name = center;
pos = (373,266);
},
{
name = centre;
pos = (496,658);
},
{
name = topright;
pos = (690,543);
}
);
background = {
shapes = (
{
closed = 1;
nodes = (
(591,426,o),
(508,541,o),
(391,541,cs),
(260,541,o),
(90,410,o),
(90,248,cs),
(90,104,o),
(186,-10,o),
(320,-10,cs),
(342,-10,o),
(369,-9,o),
(397,-2,c),
(574,138,l),
(544,161,l),
(464,86,o),
(418,75,o),
(371,75,cs),
(269,75,o),
(220,179,o),
(220,296,cs),
(220,401,o),
(257,457,o),
(333,457,cs),
(440,457,o),
(491,397,o),
(491,328,c),
(591,283,l)
);
},
{
closed = 1;
nodes = (
(501,31,l),
(501,0,l),
(680,0,l),
(700,40,l),
(507,114,l)
);
},
{
closed = 1;
nodes = (
(490,779,l),
(490,0,l),
(610,0,l),
(610,722,l)
);
},
{
closed = 1;
nodes = (
(401,809,l),
(401,778,l),
(573,658,l),
(610,722,l),
(610,873,l),
(572,873,l)
);
}
);
};
layerId = "2CCCAF06-0AAA-44C6-8F00-0A68246BB68E";
metricLeft = "=o";
metricRight = "=l";
name = Bold;
shapes = (
{
closed = 1;
nodes = (
(244,553,o),
(50,422,o),
(50,254,cs),
(50,105,o),
(145,-10,o),
(280,-10,cs),
(302,-10,o),
(325,-9,o),
(353,-2,c),
(530,140,l),
(500,206,l),
(452,169,o),
(401,154,o),
(348,154,cs),
(287,154,o),
(260,219,o),
(260,301,cs),
(260,380,o),
(285,419,o),
(333,419,cs),
(412,419,o),
(451,378,o),
(451,331,c),
(551,329,l),
(551,455,o),
(483,553,o),
(391,553,cs)
);
},
{
closed = 1;
nodes = (
(490,71,l),
(490,0,l),
(700,0,l),
(740,80,l),
(467,164,l)
);
},
{
closed = 1;
nodes = (
(450,779,l),
(450,0,l),
(650,0,l),
(650,873,l)
);
},
{
closed = 1;
nodes = (
(572,873,l),
(361,784,l),
(361,713,l),
(613,548,l),
(650,873,l)
);
}
);
width = 745;
}
);
metricLeft = o;
metricRight = n;
unicode = 100;
},
{
glyphname = eth;
kernLeft = eth;
kernRight = eth;
lastChange = "2025-05-12 06:36:20 +0000";
layers = (
{
background = {
shapes = (
{
closed = 1;
nodes = (
(544,883,l),
(98,613,l),
(119,577,l),
(566,847,l)
);
},
{
closed = 1;
nodes = (
(545,457,l),
(545,504,l),
(513,522,o),
(427,541,o),
(371,541,cs),
(240,541,o),
(70,410,o),
(70,248,cs),
(70,104,o),
(166,-10,o),
(300,-10,cs),
(431,-10,o),
(601,121,o),
(601,343,cs),
(601,607,o),
(381,833,o),
(177,892,c),
(62,849,l),
(62,818,l),
(232,773,o),
(476,596,o),
(476,286,cs),
(476,130,o),
(434,74,o),
(358,74,cs),
(251,74,o),
(200,178,o),
(200,296,cs),
(200,401,o),
(237,457,o),
(313,457,cs)
);
}
);
};
layerId = "E07B5D26-C0CD-4D0E-A705-659FB2222D21";
name = Regular;
shapes = (
{
closed = 1;
nodes = (
(460,-10,o),
(601,155,o),
(601,343,cs),
(601,565,o),
(408,812,o),
(178,883,c),
(62,840,l),
(62,809,l),
(302,745,o),
(476,526,o),
(476,286,cs),
(476,140,o),
(439,74,o),
(358,74,cs),
(263,74,o),
(200,162,o),
(200,296,cs),
(200,403,o),
(238,457,o),
(313,457,cs),
(545,457,l),
(545,504,l),
(513,523,o),
(426,541,o),
(371,541,cs),
(222,541,o),
(70,393,o),
(70,248,cs),
(70,101,o),
(169,-10,o),
(300,-10,cs)
);
},
{
closed = 1;
nodes = (
(566,847,l),
(544,883,l),
(98,613,l),
(119,577,l)
);
}
);
width = 671;
},
{
background = {
shapes = (
{
closed = 1;
nodes = (
(606,883,l),
(39,580,l),
(58,543,l),
(626,846,l)
);
},
{
closed = 1;
nodes = (
(545,419,l),
(545,516,l),
(513,534,o),
(427,553,o),
(371,553,cs),
(220,553,o),
(24,418,o),
(24,254,cs),
(24,104,o),
(140,-10,o),
(300,-10,cs),
(451,-10,o),
(652,121,o),
(652,343,cs),
(652,607,o),
(431,833,o),
(227,892,c),
(22,849,l),
(22,778,l),
(212,737,o),
(436,572,o),
(436,286,cs),
(436,165,o),
(409,124,o),
(358,124,cs),
(279,124,o),
(240,203,o),
(240,302,cs),
(240,378,o),
(265,419,o),
(313,419,cs)
);
}
);
};
layerId = "2CCCAF06-0AAA-44C6-8F00-0A68246BB68E";
name = Bold;
shapes = (
{
closed = 1;
nodes = (
(486,-10,o),
(652,156,o),
(652,343,cs),
(652,555,o),
(465,783,o),
(220,883,c),
(22,836,l),
(22,765,l),
(273,706,o),
(436,524,o),
(436,286,cs),
(436,172,o),
(413,124,o),
(358,124,cs),
(286,124,o),
(240,193,o),
(240,302,cs),
(240,378,o),
(265,419,o),
(313,419,cs),
(545,419,l),
(545,516,l),
(513,535,o),
(426,553,o),
(371,553,cs),
(200,553,o),
(24,401,o),
(24,254,cs),
(24,102,o),
(142,-10,o),
(300,-10,cs)
);
},
{
closed = 1;
nodes = (
(626,846,l),
(606,883,l),
(39,580,l),
(58,543,l)
);
}
);
width = 671;
}
);
unicode = 240;
},
{
color = 7;
glyphname = dcroat;
kernLeft = o;
kernRight = l;
lastChange = "2014-07-07 13:00:51 +0000";
layers = (
{
anchors = (
{
name = center;
pos = (353,266);
},
{
name = centre;
pos = (496,658);
},
{
name = topright;
pos = (670,531);
}
);
layerId = "E07B5D26-C0CD-4D0E-A705-659FB2222D21";
name = Regular;
shapes = (
{
closed = 1;
nodes = (
(240,541,o),
(70,410,o),
(70,248,cs),
(70,104,o),
(166,-10,o),
(300,-10,cs),
(322,-10,o),
(349,-9,o),
(377,-2,c),
(554,138,l),
(524,161,l),
(444,86,o),
(398,75,o),
(351,75,cs),
(249,75,o),
(200,179,o),
(200,296,cs),
(200,401,o),
(237,457,o),
(313,457,cs),
(420,457,o),
(471,397,o),
(471,328,c),
(571,283,l),
(571,426,o),
(488,541,o),
(371,541,cs)
);
},
{
closed = 1;
nodes = (
(481,31,l),
(481,0,l),
(660,0,l),
(680,40,l),
(487,114,l)
);
},
{
closed = 1;
nodes = (
(552,892,l),
(470,861,l),
(470,0,l),
(590,0,l),
(590,892,l)
);
},
{
closed = 1;
nodes = (
(705,716,l),
(287,716,l),
(287,675,l),
(705,675,l)
);
}
);
width = 705;
},
{
anchors = (
{
name = center;
pos = (373,266);
},
{
name = centre;
pos = (496,658);
},
{
name = topright;
pos = (690,543);
}
);
layerId = "2CCCAF06-0AAA-44C6-8F00-0A68246BB68E";
metricLeft = "=o";
name = Bold;
shapes = (
{
closed = 1;
nodes = (
(244,553,o),
(50,422,o),
(50,254,cs),
(50,105,o),
(145,-10,o),
(280,-10,cs),
(302,-10,o),
(325,-9,o),
(353,-2,c),
(530,140,l),
(500,206,l),
(452,169,o),
(401,154,o),
(348,154,cs),
(287,154,o),
(260,219,o),
(260,301,cs),
(260,380,o),
(285,419,o),
(333,419,cs),
(412,419,o),
(451,378,o),
(451,331,c),
(551,329,l),
(551,455,o),
(483,553,o),
(391,553,cs)
);
},
{
closed = 1;
nodes = (
(490,71,l),
(490,0,l),
(700,0,l),
(740,80,l),
(467,164,l)
);
},
{
closed = 1;
nodes = (
(572,883,l),
(450,832,l),
(450,0,l),
(650,0,l),
(650,883,l)
);
},
{
closed = 1;
nodes = (
(745,726,l),
(247,726,l),
(247,645,l),
(745,645,l)
);
}
);
width = 745;
}
);
metricLeft = o;
unicode = 273;
},
{
glyphname = e;
kernLeft = o;
kernRight = o;
lastChange = "2014-10-27 10:49:33 +0000";
layers = (
{
anchors = (
{
name = bottom;
pos = (322,0);
},
{
name = ogonek;
pos = (398,0);
},
{
name = top;
pos = (322,531);
}
);
background = {
shapes = (
{
closed = 1;
nodes = (
(163,309,l),
(163,268,l),
(571,268,l),
(571,428,o),
(500,541,o),
(371,541,cs),
(240,541,o),
(70,410,o),
(70,248,cs),
(70,104,o),
(166,-10,o),
(300,-10,cs),
(327,-10,o),
(361,-9,o),
(396,-2,c),
(573,138,l),
(543,176,l),
(454,101,o),
(396,75,o),
(358,75,cs),
(251,75,o),
(200,178,o),
(200,296,cs),
(200,401,o),
(237,457,o),
(313,457,cs),
(416,457,o),
(421,385,o),
(437,293,c),
(472,309,l)
);
}
);
};
hints = (
{
horizontal = 1;
origin = (0,5);
target = (0,13);
type = Stem;
},
{
horizontal = 1;
origin = (0,29);
target = (0,19);
type = Stem;
},
{
origin = (0,2);
target = (0,16);
type = Stem;
},
{
origin = (0,22);
target = (0,26);
type = Stem;
},
{
horizontal = 1;
origin = (0,19);
target = (0,24);
type = Stem;
},
{
horizontal = 1;
origin = (0,13);
target = (0,25);
type = Stem;
}
);
layerId = "E07B5D26-C0CD-4D0E-A705-659FB2222D21";
name = Regular;
shapes = (
{
closed = 1;
nodes = (
(240,541,o),
(70,410,o),
(70,248,cs),
(70,104,o),
(166,-10,o),
(300,-10,cs),
(327,-10,o),
(361,-9,o),
(396,-2,c),
(573,138,l),
(543,176,l),
(454,101,o),
(396,75,o),
(358,75,cs),
(251,75,o),
(200,178,o),
(200,296,cs),
(200,401,o),
(237,457,o),
(313,457,cs),
(416,457,o),
(421,385,o),
(437,293,c),
(472,309,l),
(163,309,l),
(163,268,l),
(571,268,l),
(571,428,o),
(500,541,o),
(371,541,cs)
);
}
);
width = 643;
},
{
anchors = (
{
name = bottom;
pos = (342,0);
},
{
name = ogonek;
pos = (473,0);
},
{
name = top;
pos = (342,543);
}
);
background = {
shapes = (
{
closed = 1;
nodes = (
(183,309,l),
(183,268,l),
(591,268,l),
(591,428,o),
(520,541,o),
(391,541,cs),
(260,541,o),
(90,410,o),
(90,248,cs),
(90,104,o),
(186,-10,o),
(320,-10,cs),
(347,-10,o),
(381,-9,o),
(416,-2,c),
(593,138,l),
(563,176,l),
(474,101,o),
(416,75,o),
(378,75,cs),
(271,75,o),
(220,178,o),
(220,296,cs),
(220,401,o),
(257,457,o),
(333,457,cs),
(436,457,o),
(441,385,o),
(457,293,c),
(492,309,l)
);
},
{
closed = 1;
nodes = (
(183,335,l),
(183,254,l),
(621,254,l),
(621,440,o),
(538,553,o),
(391,553,cs),
(244,553,o),
(50,422,o),
(50,254,cs),
(50,104,o),
(162,-10,o),
(320,-10,cs),
(347,-10,o),
(381,-9,o),
(416,-2,c),
(633,168,l),
(583,236,l),
(484,166,o),
(420,145,o),
(378,145,cs),
(292,145,o),
(250,213,o),
(250,302,cs),
(250,367,o),
(275,399,o),
(328,399,cs),
(390,399,o),
(412,365,o),
(417,299,c),
(452,335,l)
);
}
);
};
layerId = "2CCCAF06-0AAA-44C6-8F00-0A68246BB68E";
name = Bold;
shapes = (
{
closed = 1;
nodes = (
(244,553,o),
(50,422,o),
(50,254,cs),
(50,104,o),
(162,-10,o),
(320,-10,cs),
(367,-10,o),
(422,-8,o),
(483,9,c),
(620,119,l),
(590,187,l),
(487,149,o),
(421,135,o),
(378,135,cs),
(299,135,o),
(260,207,o),
(260,302,cs),
(260,381,o),
(284,419,o),
(337,419,cs),
(399,419,o),
(422,379,o),
(427,299,c),
(452,315,l),
(183,315,l),
(183,234,l),
(621,234,l),
(625,440,o),
(538,553,o),
(391,553,cs)
);
}
);
width = 671;
}
);
metricLeft = o;
metricRight = o;
unicode = 101;
},
{
glyphname = f;
kernLeft = f;
kernRight = f;
lastChange = "2014-07-14 13:04:22 +0000";
layers = (
{
background = {
shapes = (
{
closed = 1;
nodes = (
(55,31,l),
(55,0,l),
(384,0,l),
(404,40,l),
(161,114,l)
);
},
{
closed = 1;
nodes = (
(444,531,l),
(25,531,l),
(25,490,l),
(444,490,l)
);
},
{
closed = 1;
nodes = (
(264,743,o),
(295,799,o),
(357,799,cs),
(406,799,o),
(458,766,o),
(491,712,c),
(529,712,l),
(529,866,l),
(509,874,o),
(453,883,o),
(415,883,cs),
(296,883,o),
(144,752,o),
(144,590,cs),
(144,0,l),
(264,0,l),
(264,638,ls)
);
}
);
};
layerId = "E07B5D26-C0CD-4D0E-A705-659FB2222D21";
name = Regular;
shapes = (
{
closed = 1;
nodes = (
(296,883,o),
(144,752,o),
(144,590,cs),
(144,0,l),
(264,0,l),
(264,638,ls),
(264,743,o),
(295,799,o),
(357,799,cs),
(406,799,o),
(458,766,o),
(491,712,c),
(529,712,l),
(529,866,l),
(509,874,o),
(453,883,o),
(415,883,cs)
);
},
{
closed = 1;
nodes = (
(55,31,l),
(55,0,l),
(384,0,l),
(404,40,l),
(161,114,l)
);
},
{
closed = 1;
nodes = (
(25,501,l),
(25,460,l),
(444,460,l),
(444,501,l)
);
}
);
width = 439;
},
{
background = {
shapes = (
{
closed = 1;
nodes = (
(75,31,l),
(75,0,l),
(404,0,l),
(424,40,l),
(181,114,l)
);
},
{
closed = 1;
nodes = (
(464,531,l),
(45,531,l),
(45,490,l),
(464,490,l)
);
},
{
closed = 1;
nodes = (
(284,743,o),
(315,799,o),
(377,799,cs),
(426,799,o),
(478,766,o),
(511,712,c),
(549,712,l),
(549,866,l),
(529,874,o),
(473,883,o),
(435,883,cs),
(316,883,o),
(164,752,o),
(164,590,cs),
(164,0,l),
(284,0,l),
(284,638,ls)
);
}
);
};
layerId = "2CCCAF06-0AAA-44C6-8F00-0A68246BB68E";
name = Bold;
shapes = (
{
closed = 1;
nodes = (
(303,883,o),
(124,752,o),
(124,584,cs),
(124,0,l),
(324,0,l),
(324,656,ls),
(324,719,o),
(350,753,o),
(390,753,cs),
(438,753,o),
(488,715,o),
(520,652,c),
(598,652,l),
(598,846,l),
(568,864,o),
(487,883,o),
(434,883,cs)
);
},
{
closed = 1;
nodes = (
(35,71,l),
(35,0,l),
(444,0,l),
(484,80,l),
(141,164,l)
);
},
{
closed = 1;
nodes = (
(25,513,l),
(25,432,l),
(485,432,l),
(485,513,l)
);
}
);
width = 518;
}
);
unicode = 102;
},
{
color = 1;
glyphname = g;
kernLeft = g;
kernRight = g;
lastChange = "2014-07-14 13:04:16 +0000";
layers = (
{
anchors = (
{
name = g;
pos = (305,621);
},
{
name = top;
pos = (305,531);
}
);
background = {
shapes = (
{
closed = 1;
nodes = (
(201,541,o),
(70,434,o),
(70,321,cs),
(70,229,o),
(154,150,o),
(262,150,cs),
(391,150,o),
(521,257,o),
(521,370,cs),
(521,462,o),
(438,541,o),
(330,541,cs)
);
},
{
closed = 1;
nodes = (
(355,457,o),
(411,403,o),
(411,323,cs),
(411,263,o),
(378,234,o),
(319,234,cs),
(236,234,o),
(180,289,o),
(180,370,cs),
(180,429,o),
(213,457,o),
(271,457,cs)
);
},
{
closed = 1;
nodes = (
(361,531,l),
(361,490,l),
(610,490,l),
(610,531,l)
);
},
{
closed = 1;
nodes = (
(574,31,o),
(321,58,o),
(321,115,cs),
(321,136,o),
(332,157,o),
(350,173,c),
(324,163,l),
(267,145,o),
(188,100,o),
(188,59,cs),
(188,-17,o),
(440,-44,o),
(440,-124,cs),
(440,-154,o),
(401,-194,o),
(343,-194,cs),
(240,-194,o),
(167,-138,o),
(98,-53,c),
(60,-53,l),
(60,-207,l),
(110,-226,o),
(235,-264,o),
(320,-264,cs),
(438,-264,o),
(574,-123,o),
(574,-60,cs)
);
}
);
};
layerId = "E07B5D26-C0CD-4D0E-A705-659FB2222D21";
name = Regular;
shapes = (
{
closed = 1;
nodes = (
(201,541,o),
(70,434,o),
(70,321,cs),
(70,229,o),
(154,150,o),
(262,150,cs),
(391,150,o),
(521,257,o),
(521,370,cs),
(521,462,o),
(438,541,o),
(330,541,cs)
);
},
{
closed = 1;
nodes = (
(355,457,o),
(411,403,o),
(411,323,cs),
(411,263,o),
(378,234,o),
(319,234,cs),
(236,234,o),
(180,289,o),
(180,370,cs),
(180,429,o),
(213,457,o),
(271,457,cs)
);
},
{
closed = 1;
nodes = (
(361,501,l),
(361,460,l),
(610,460,l),
(610,501,l)
);
},
{
closed = 1;
nodes = (
(564,21,o),
(311,48,o),
(311,105,cs),
(311,130,o),
(326,154,o),
(350,173,c),
(324,163,l),
(267,145,o),
(188,100,o),
(188,59,cs),
(188,-17,o),
(440,-44,o),
(440,-124,cs),
(440,-154,o),
(401,-194,o),
(343,-194,cs),
(240,-194,o),
(167,-138,o),
(98,-53,c),
(60,-53,l),
(60,-207,l),
(110,-226,o),
(235,-264,o),
(320,-264,cs),
(433,-264,o),
(564,-130,o),
(564,-70,cs)
);
}
);
width = 640;
},
{
associatedMasterId = "E07B5D26-C0CD-4D0E-A705-659FB2222D21";
background = {
shapes = (
{
closed = 1;
nodes = (
(248,541,o),
(90,436,o),
(90,308,cs),
(90,199,o),
(178,110,o),
(300,110,cs),
(423,110,o),
(581,215,o),
(581,343,cs),
(581,452,o),
(494,541,o),
(371,541,cs)
);
},
{
closed = 1;
nodes = (
(406,457,o),
(451,384,o),
(451,296,cs),
(451,230,o),
(420,194,o),
(358,194,cs),
(265,194,o),
(220,268,o),
(220,356,cs),
(220,422,o),
(251,457,o),
(313,457,cs)
);
},
{
closed = 1;
nodes = (
(340,62,o),
(382,110,o),
(479,173,c),
(452,213,l),
(266,84,l),
(249,53,o),
(239,21,o),
(231,-5,c),
(375,-6,o),
(420,-65,o),
(420,-137,cs),
(420,-173,o),
(386,-204,o),
(333,-204,cs),
(269,-204,o),
(200,-157,o),
(153,-73,c),
(115,-73,l),
(115,-227,l),
(153,-245,o),
(262,-264,o),
(328,-264,cs),
(417,-264,o),
(550,-166,o),
(550,-90,cs),
(550,2,o),
(463,78,o),
(340,78,c),
(329,26,l)
);
},
{
closed = 1;
nodes = (
(650,531,l),
(401,531,l),
(401,490,l),
(650,490,l)
);
}
);
};
layerId = "FB8B2EEE-CF77-4155-B880-1FB72871A910";
name = "Regular Jun 19 14, 20:12";
shapes = (
{
closed = 1;
nodes = (
(261,51,o),
(70,-47,o),
(70,-116,cs),
(70,-199,o),
(154,-264,o),
(270,-264,cs),
(417,-264,o),
(611,-159,o),
(611,-31,cs),
(611,80,o),
(399,61,o),
(532,232,c),
(479,198,l),
(352,80,o),
(481,28,o),
(481,-78,cs),
(481,-144,o),
(432,-180,o),
(328,-180,cs),
(242,-180,o),
(200,-143,o),
(200,-98,cs),
(200,-28,o),
(295,6,o),
(550,2,c),
(523,42,l)
);
},
{
closed = 1;
nodes = (
(248,541,o),
(90,436,o),
(90,308,cs),
(90,199,o),
(178,110,o),
(300,110,cs),
(423,110,o),
(581,215,o),
(581,343,cs),
(581,452,o),
(494,541,o),
(371,541,cs)
);
},
{
closed = 1;
nodes = (
(406,457,o),
(451,384,o),
(451,296,cs),
(451,230,o),
(420,194,o),
(358,194,cs),
(265,194,o),
(220,268,o),
(220,356,cs),
(220,422,o),
(251,457,o),
(313,457,cs)
);
},
{
closed = 1;
nodes = (
(401,531,l),
(401,490,l),
(650,490,l),
(650,531,l)
);
}
);
width = 690;
},
{
anchors = (
{
name = g;
pos = (305,621);
},
{
name = top;
pos = (305,543);
}
);
background = {
shapes = (
{
closed = 1;
nodes = (
(182,553,o),
(25,446,o),
(25,327,cs),
(25,234,o),
(129,150,o),
(262,150,cs),
(410,150,o),
(566,262,o),
(566,376,cs),
(566,474,o),
(463,553,o),
(330,553,cs)
);
},
{
closed = 1;
nodes = (
(331,419,o),
(371,385,o),
(371,329,cs),
(371,300,o),
(353,284,o),
(319,284,cs),
(260,284,o),
(220,323,o),
(220,376,cs),
(220,406,o),
(238,419,o),
(271,419,cs)
);
},
{
closed = 1;
nodes = (
(361,543,l),
(361,462,l),
(650,462,l),
(650,543,l)
);
},
{
closed = 1;
nodes = (
(589,31,o),
(366,78,o),
(366,115,cs),
(366,140,o),
(377,164,o),
(395,183,c),
(329,163,l),
(256,145,o),
(153,100,o),
(153,59,cs),
(153,-23,o),
(365,-48,o),
(365,-114,cs),
(365,-128,o),
(338,-144,o),
(298,-144,cs),
(215,-144,o),
(157,-92,o),
(103,-13,c),
(25,-13,l),
(25,-207,l),
(83,-226,o),
(228,-264,o),
(325,-264,cs),
(448,-264,o),
(589,-123,o),
(589,-60,cs)
);
}
);
};
layerId = "2CCCAF06-0AAA-44C6-8F00-0A68246BB68E";
name = Bold;
shapes = (
{
closed = 1;
nodes = (
(182,553,o),
(25,446,o),
(25,327,cs),
(25,234,o),
(129,150,o),
(262,150,cs),
(410,150,o),
(566,262,o),
(566,376,cs),
(566,474,o),
(463,553,o),
(330,553,cs)
);
},
{
closed = 1;
nodes = (
(331,419,o),
(371,385,o),
(371,329,cs),
(371,300,o),
(353,284,o),
(319,284,cs),
(260,284,o),
(220,323,o),
(220,376,cs),
(220,406,o),
(238,419,o),
(271,419,cs)
);
},
{
closed = 1;
nodes = (
(361,513,l),
(361,432,l),
(650,432,l),
(650,513,l)
);
},
{
closed = 1;
nodes = (
(586,27,o),
(363,68,o),
(363,115,cs),
(363,130,o),
(369,154,o),
(395,183,c),
(329,163,l),
(256,145,o),
(153,100,o),
(153,59,cs),
(153,-23,o),
(365,-48,o),
(365,-114,cs),
(365,-128,o),
(338,-144,o),
(298,-144,cs),
(215,-144,o),
(157,-92,o),
(103,-13,c),
(25,-13,l),
(25,-207,l),
(83,-226,o),
(228,-264,o),
(325,-264,cs),
(448,-264,o),
(586,-127,o),
(586,-64,cs)
);
}
);
width = 640;
}
);
unicode = 103;
},
{
glyphname = g.ss02;
kernLeft = o;
kernRight = g.ss02;
lastChange = "2014-11-01 14:54:45 +0000";
layers = (
{
anchors = (
{
name = g;
pos = (351,621);
},
{
name = top;
pos = (351,531);
}
);
background = {
shapes = (
{
closed = 1;
nodes = (
(582,493,l),
(522,447,o),
(436,347,o),
(436,249,cs),
(436,153,o),
(518,93,o),
(518,-74,cs),
(518,-130,o),
(467,-194,o),
(395,-194,cs),
(313,-194,o),
(249,-138,o),
(190,-50,c),
(102,-111,l),
(102,-189,l),
(154,-214,o),
(284,-264,o),
(372,-264,cs),
(495,-264,o),
(636,-109,o),
(636,-40,cs),
(636,106,o),
(549,182,o),
(549,323,cs),
(549,391,o),
(567,443,o),
(598,493,c)
);
},
{
closed = 1;
nodes = (
(102,-111,l),
(132,-134,l),
(350,38,l),
(320,61,l)
);
},
{
closed = 1;
nodes = (
(242,541,o),
(90,418,o),
(90,268,cs),
(90,136,o),
(178,30,o),
(300,30,cs),
(313,30,o),
(334,31,o),
(350,38,c),
(527,178,l),
(497,201,l),
(423,130,o),
(381,119,o),
(338,119,cs),
(266,119,o),
(220,209,o),
(220,316,cs),
(220,408,o),
(248,457,o),
(303,457,cs),
(377,457,o),
(443,418,o),
(514,397,c),
(598,493,l),
(568,531,l),
(499,531,o),
(432,541,o),
(361,541,cs)
);
}
);
};
guides = (
{
angle = 90;
pos = (598,493);
}
);
layerId = "E07B5D26-C0CD-4D0E-A705-659FB2222D21";
metricLeft = "=o";
name = Regular;
shapes = (
{
closed = 1;
nodes = (
(582,493,l),
(514,447,o),
(416,347,o),
(416,249,cs),
(416,153,o),
(480,93,o),
(480,-74,cs),
(480,-130,o),
(433,-194,o),
(365,-194,cs),
(287,-194,o),
(226,-138,o),
(170,-50,c),
(82,-111,l),
(82,-189,l),
(132,-214,o),
(257,-264,o),
(342,-264,cs),
(460,-264,o),
(598,-109,o),
(598,-40,cs),
(598,106,o),
(529,182,o),
(529,323,cs),
(529,391,o),
(555,443,o),
(598,493,c)
);
},
{
closed = 1;
nodes = (
(82,-111,l),
(112,-134,l),
(330,38,l),
(300,61,l)
);
},
{
closed = 1;
nodes = (
(228,541,o),
(70,418,o),
(70,268,cs),
(70,136,o),
(158,30,o),
(280,30,cs),
(293,30,o),
(314,31,o),
(330,38,c),
(507,178,l),
(477,201,l),
(403,130,o),
(361,119,o),
(318,119,cs),
(246,119,o),
(200,209,o),
(200,316,cs),
(200,408,o),
(231,457,o),
(293,457,cs),
(371,457,o),
(440,418,o),
(497,403,c),
(598,493,l),
(568,531,l),
(496,531,o),
(425,541,o),
(351,541,cs)
);
}
);
width = 688;
},
{
associatedMasterId = "E07B5D26-C0CD-4D0E-A705-659FB2222D21";
background = {
shapes = (
{
closed = 1;
nodes = (
(248,541,o),
(90,436,o),
(90,308,cs),
(90,199,o),
(178,110,o),
(300,110,cs),
(423,110,o),
(581,215,o),
(581,343,cs),
(581,452,o),
(494,541,o),
(371,541,cs)
);
},
{
closed = 1;
nodes = (
(406,457,o),
(451,384,o),
(451,296,cs),
(451,230,o),
(420,194,o),
(358,194,cs),
(265,194,o),
(220,268,o),
(220,356,cs),
(220,422,o),
(251,457,o),
(313,457,cs)
);
},
{
closed = 1;
nodes = (
(340,62,o),
(382,110,o),
(479,173,c),
(452,213,l),
(266,84,l),
(249,53,o),
(239,21,o),
(231,-5,c),
(375,-6,o),
(420,-65,o),
(420,-137,cs),
(420,-173,o),
(386,-204,o),
(333,-204,cs),
(269,-204,o),
(200,-157,o),
(153,-73,c),
(115,-73,l),
(115,-227,l),
(153,-245,o),
(262,-264,o),
(328,-264,cs),
(417,-264,o),
(550,-166,o),
(550,-90,cs),
(550,2,o),
(463,78,o),
(340,78,c),
(329,26,l)
);
},
{
closed = 1;
nodes = (
(650,531,l),
(401,531,l),
(401,490,l),
(650,490,l)
);
}
);
};
layerId = "FB8B2EEE-CF77-4155-B880-1FB72871A910";
name = "Regular Jun 19 14, 20:12";
shapes = (
{
closed = 1;
nodes = (
(261,51,o),
(70,-47,o),
(70,-116,cs),
(70,-199,o),
(154,-264,o),
(270,-264,cs),
(417,-264,o),
(611,-159,o),
(611,-31,cs),
(611,80,o),
(399,61,o),
(532,232,c),
(479,198,l),
(352,80,o),
(481,28,o),
(481,-78,cs),
(481,-144,o),
(432,-180,o),
(328,-180,cs),
(242,-180,o),
(200,-143,o),
(200,-98,cs),
(200,-28,o),
(295,6,o),
(550,2,c),
(523,42,l)
);
},
{
closed = 1;
nodes = (
(248,541,o),
(90,436,o),
(90,308,cs),
(90,199,o),
(178,110,o),
(300,110,cs),
(423,110,o),
(581,215,o),
(581,343,cs),
(581,452,o),
(494,541,o),
(371,541,cs)
);
},
{
closed = 1;
nodes = (
(406,457,o),
(451,384,o),
(451,296,cs),
(451,230,o),
(420,194,o),
(358,194,cs),
(265,194,o),
(220,268,o),
(220,356,cs),
(220,422,o),
(251,457,o),
(313,457,cs)
);
},
{
closed = 1;
nodes = (
(401,531,l),
(401,490,l),
(650,490,l),
(650,531,l)
);
}
);
width = 690;
},
{
anchors = (
{
name = g;
pos = (359,621);
},
{
name = top;
pos = (359,543);
}
);
background = {
shapes = (
{
closed = 1;
nodes = (
(553,442,l),
(498,400,o),
(432,314,o),
(432,209,cs),
(432,112,o),
(495,31,o),
(495,-54,cs),
(495,-116,o),
(460,-144,o),
(408,-144,cs),
(337,-144,o),
(281,-86,o),
(231,3,c),
(84,-72,l),
(84,-190,l),
(140,-215,o),
(281,-264,o),
(375,-264,cs),
(518,-264,o),
(679,-88,o),
(679,-7,cs),
(679,124,o),
(600,219,o),
(600,318,cs),
(600,369,o),
(612,425,o),
(649,475,c)
);
},
{
closed = 1;
nodes = (
(84,-72,l),
(115,-141,l),
(382,69,l),
(311,107,l)
);
},
{
closed = 1;
nodes = (
(240,553,o),
(70,438,o),
(70,289,cs),
(70,158,o),
(174,60,o),
(320,60,cs),
(338,60,o),
(359,61,o),
(382,69,c),
(519,178,l),
(488,247,l),
(453,217,o),
(416,205,o),
(378,205,cs),
(313,205,o),
(280,262,o),
(280,337,cs),
(280,392,o),
(302,419,o),
(336,419,cs),
(407,419,o),
(462,352,o),
(525,325,c),
(649,475,l),
(619,543,l),
(506,543,o),
(450,553,o),
(371,553,cs)
);
}
);
};
guides = (
{
angle = 90;
pos = (649,475);
}
);
layerId = "2CCCAF06-0AAA-44C6-8F00-0A68246BB68E";
name = Bold;
shapes = (
{
closed = 1;
nodes = (
(553,442,l),
(488,400,o),
(412,314,o),
(412,209,cs),
(412,112,o),
(465,31,o),
(465,-54,cs),
(465,-116,o),
(434,-144,o),
(388,-144,cs),
(317,-144,o),
(261,-86,o),
(211,3,c),
(64,-72,l),
(64,-190,l),
(120,-215,o),
(261,-264,o),
(355,-264,cs),
(493,-264,o),
(649,-88,o),
(649,-7,cs),
(649,124,o),
(580,219,o),
(580,318,cs),
(580,369,o),
(596,425,o),
(649,475,c)
);
},
{
closed = 1;
nodes = (
(64,-72,l),
(95,-141,l),
(362,69,l),
(291,107,l)
);
},
{
closed = 1;
nodes = (
(226,553,o),
(50,438,o),
(50,289,cs),
(50,158,o),
(154,60,o),
(300,60,cs),
(318,60,o),
(339,61,o),
(362,69,c),
(499,178,l),
(488,247,l),
(453,217,o),
(416,205,o),
(378,205,cs),
(299,205,o),
(260,262,o),
(260,337,cs),
(260,392,o),
(286,419,o),
(326,419,cs),
(386,419,o),
(433,377,o),
(486,346,c),
(649,475,l),
(619,543,l),
(501,543,o),
(443,553,o),
(361,553,cs)
);
}
);
width = 719;
}
);
metricLeft = o;
},
{
glyphname = h;
kernLeft = l;
kernRight = n;
lastChange = "2014-07-07 12:51:16 +0000";
layers = (
{
anchors = (
{
name = centre;
pos = (223,658);
},
{
name = top;
pos = (350,873);
}
);
layerId = "E07B5D26-C0CD-4D0E-A705-659FB2222D21";
metricLeft = "=l";
metricRight = "=n";
name = Regular;
shapes = (
{
closed = 1;
nodes = (
(415,541,o),
(399,540,o),
(381,533,c),
(204,393,l),
(234,370,l),
(304,427,o),
(346,436,o),
(386,436,cs),
(444,436,o),
(464,411,o),
(464,337,cs),
(464,0,l),
(584,0,l),
(584,387,ls),
(584,481,o),
(527,541,o),
(436,541,cs)
);
},
{
closed = 1;
nodes = (
(475,31,l),
(475,0,l),
(654,0,l),
(674,40,l),
(481,114,l)
);
},
{
ref = l;
}
);
width = 699;
},
{
anchors = (
{
name = centre;
pos = (223,658);
},
{
name = top;
pos = (350,873);
}
);
background = {
shapes = (
{
closed = 1;
nodes = (
(455,541,o),
(439,540,o),
(421,533,c),
(244,393,l),
(274,370,l),
(344,427,o),
(386,436,o),
(426,436,cs),
(484,436,o),
(504,411,o),
(504,337,cs),
(504,0,l),
(624,0,l),
(624,387,ls),
(624,481,o),
(567,541,o),
(476,541,cs)
);
},
{
closed = 1;
nodes = (
(515,31,l),
(515,0,l),
(694,0,l),
(714,40,l),
(521,114,l)
);
}
);
};
layerId = "2CCCAF06-0AAA-44C6-8F00-0A68246BB68E";
metricLeft = "=l";
metricRight = "=n";
name = Bold;
shapes = (
{
closed = 1;
nodes = (
(441,553,o),
(418,550,o),
(401,545,c),
(264,435,l),
(294,362,l),
(329,382,o),
(363,388,o),
(388,388,cs),
(430,388,o),
(444,366,o),
(444,309,cs),
(444,0,l),
(644,0,l),
(644,399,ls),
(644,493,o),
(575,553,o),
(466,553,cs)
);
},
{
closed = 1;
nodes = (
(455,71,l),
(455,0,l),
(694,0,l),
(734,80,l),
(461,164,l)
);
},
{
ref = l;
}
);
width = 739;
}
);
metricLeft = n;
metricRight = n;
unicode = 104;
},
{
color = 7;
glyphname = hbar;
kernLeft = l;
kernRight = n;
lastChange = "2014-07-07 13:00:56 +0000";
layers = (
{
anchors = (
{
name = bottom;
pos = (180,0);
},
{
name = centre;
pos = (223,658);
},
{
name = top;
pos = (180,823);
},
{
name = topright;
pos = (324,531);
}
);
background = {
shapes = (
{
closed = 1;
nodes = (
(206,873,l),
(35,789,l),
(35,758,l),
(207,658,l),
(244,722,l),
(244,873,l)
);
}
);
};
guides = (
{
angle = 90;
pos = (35,0);
}
);
layerId = "E07B5D26-C0CD-4D0E-A705-659FB2222D21";
metricRight = "=n";
name = Regular;
shapes = (
{
closed = 1;
nodes = (
(415,541,o),
(399,540,o),
(381,533,c),
(204,393,l),
(234,370,l),
(304,427,o),
(346,436,o),
(386,436,cs),
(444,436,o),
(464,411,o),
(464,337,cs),
(464,0,l),
(584,0,l),
(584,387,ls),
(584,481,o),
(527,541,o),
(436,541,cs)
);
},
{
closed = 1;
nodes = (
(475,31,l),
(475,0,l),
(654,0,l),
(674,40,l),
(481,114,l)
);
},
{
closed = 1;
nodes = (
(206,892,l),
(124,852,l),
(124,0,l),
(244,0,l),
(244,892,l)
);
},
{
closed = 1;
nodes = (
(35,31,l),
(35,0,l),
(314,0,l),
(334,40,l),
(141,114,l)
);
},
{
closed = 1;
nodes = (
(418,716,l),
(0,716,l),
(0,675,l),
(418,675,l)
);
}
);
width = 699;
},
{
anchors = (
{
name = bottom;
pos = (200,0);
},
{
name = centre;
pos = (223,658);
},
{
name = top;
pos = (200,823);
},
{
name = topright;
pos = (344,543);
}
);
guides = (
{
angle = 90;
pos = (35,0);
}
);
layerId = "2CCCAF06-0AAA-44C6-8F00-0A68246BB68E";
name = Bold;
shapes = (
{
closed = 1;
nodes = (
(441,553,o),
(418,550,o),
(401,545,c),
(264,435,l),
(294,362,l),
(329,382,o),
(363,388,o),
(388,388,cs),
(430,388,o),
(444,366,o),
(444,309,cs),
(444,0,l),
(644,0,l),
(644,399,ls),
(644,493,o),
(575,553,o),
(466,553,cs)
);
},
{
closed = 1;
nodes = (
(455,71,l),
(455,0,l),
(694,0,l),
(734,80,l),
(461,164,l)
);
},
{
closed = 1;
nodes = (
(226,883,l),
(104,832,l),
(104,0,l),
(304,0,l),
(304,883,l)
);
},
{
closed = 1;
nodes = (
(15,71,l),
(15,0,l),
(354,0,l),
(394,80,l),
(121,164,l)
);
},
{
closed = 1;
nodes = (
(498,726,l),
(0,726,l),
(0,645,l),
(498,645,l)
);
}
);
width = 739;
}
);
metricRight = n;
unicode = 295;
},
{
glyphname = idotless;
kernLeft = n;
kernRight = u;
lastChange = "2014-10-31 10:43:48 +0000";
layers = (
{
anchors = (
{
name = ogonek;
pos = (334,0);
},
{
name = top;
pos = (190,531);
}
);
layerId = "E07B5D26-C0CD-4D0E-A705-659FB2222D21";
name = Regular;
shapes = (
{
closed = 1;
nodes = (
(144,456,l),
(144,0,l),
(264,0,l),
(264,550,l)
);
},
{
closed = 1;
nodes = (
(55,31,l),
(55,0,l),
(334,0,l),
(354,40,l),
(161,114,l)
);
},
{
closed = 1;
nodes = (
(226,550,l),
(55,486,l),
(55,455,l),
(227,335,l),
(264,550,l)
);
}
);
width = 389;
},
{
anchors = (
{
name = ogonek;
pos = (374,0);
},
{
name = top;
pos = (210,543);
}
);
background = {
shapes = (
{
closed = 1;
nodes = (
(75,31,l),
(75,0,l),
(354,0,l),
(374,40,l),
(181,114,l)
);
},
{
closed = 1;
nodes = (
(164,456,l),
(164,0,l),
(284,0,l),
(284,399,l)
);
},
{
closed = 1;
nodes = (
(75,486,l),
(75,455,l),
(247,335,l),
(284,399,l),
(284,550,l),
(246,550,l)
);
}
);
};
layerId = "2CCCAF06-0AAA-44C6-8F00-0A68246BB68E";
name = Bold;
shapes = (
{
closed = 1;
nodes = (
(124,468,l),
(124,0,l),
(324,0,l),
(324,562,l)
);
},
{
closed = 1;
nodes = (
(35,71,l),
(35,0,l),
(374,0,l),
(414,80,l),
(141,164,l)
);
},
{
closed = 1;
nodes = (
(246,562,l),
(35,473,l),
(35,402,l),
(287,237,l),
(324,562,l)
);
}
);
width = 419;
}
);
metricLeft = n;
metricRight = u;
unicode = 305;
},
{
glyphname = jdotless;
kernLeft = n;
kernRight = j;
lastChange = "2014-10-31 10:43:47 +0000";
layers = (
{
anchors = (
{
name = top;
pos = (190,531);
}
);
layerId = "E07B5D26-C0CD-4D0E-A705-659FB2222D21";
name = Regular;
shapes = (
{
closed = 1;
nodes = (
(55,486,l),
(55,455,l),
(227,335,l),
(264,399,l),
(264,550,l),
(226,550,l)
);
},
{
closed = 1;
nodes = (
(144,-87,o),
(123,-139,o),
(43,-234,c),
(81,-264,l),
(273,-20,l),
(268,-4,o),
(264,45,o),
(264,99,cs),
(264,399,l),
(144,456,l),
(144,11,ls)
);
}
);
width = 379;
},
{
anchors = (
{
name = top;
pos = (187,531);
}
);
background = {
shapes = (
{
closed = 1;
nodes = (
(52,486,l),
(52,455,l),
(224,335,l),
(261,399,l),
(261,550,l),
(223,550,l)
);
},
{
closed = 1;
nodes = (
(141,-87,o),
(120,-139,o),
(40,-234,c),
(78,-264,l),
(270,-20,l),
(265,-4,o),
(261,45,o),
(261,99,cs),
(261,399,l),
(141,456,l),
(141,11,ls)
);
}
);
};
layerId = "2CCCAF06-0AAA-44C6-8F00-0A68246BB68E";
name = Bold;
shapes = (
{
closed = 1;
nodes = (
(12,498,l),
(12,427,l),
(184,307,l),
(301,411,l),
(301,562,l),
(223,562,l)
);
},
{
closed = 1;
nodes = (
(101,-57,o),
(80,-109,o),
(0,-204,c),
(78,-264,l),
(310,-20,l),
(305,-4,o),
(301,45,o),
(301,99,cs),
(301,411,l),
(101,468,l),
(101,41,ls)
);
}
);
width = 390;
}
);
unicode = 567;
},
{
glyphname = k;
kernLeft = l;
kernRight = k;
lastChange = "2014-09-25 18:01:47 +0000";
layers = (
{
anchors = (
{
name = bottom;
pos = (355,0);
}
);
background = {
shapes = (
{
closed = 1;
nodes = (
(647,500,l),
(647,531,l),
(408,531,l),
(388,491,l),
(495,413,l),
(547,474,l),
(297,264,l),
(485,0,l),
(654,0,l),
(674,40,l),
(481,114,l),
(607,43,l),
(393,334,l),
(397,290,l)
);
}
);
};
layerId = "E07B5D26-C0CD-4D0E-A705-659FB2222D21";
name = Regular;
shapes = (
{
closed = 1;
nodes = (
(647,500,l),
(647,531,l),
(408,531,l),
(388,491,l),
(495,413,l),
(547,474,l),
(297,264,l),
(485,0,l),
(654,0,l),
(674,40,l),
(481,114,l),
(607,43,l),
(393,334,l),
(397,290,l)
);
},
{
ref = l;
}
);
width = 689;
},
{
anchors = (
{
name = bottom;
pos = (405,0);
}
);
background = {
shapes = (
{
closed = 1;
nodes = (
(687,500,l),
(687,531,l),
(448,531,l),
(428,491,l),
(535,413,l),
(587,474,l),
(337,264,l),
(525,0,l),
(694,0,l),
(714,40,l),
(521,114,l),
(647,43,l),
(433,334,l),
(437,290,l)
);
},
{
closed = 1;
nodes = (
(475,71,l),
(475,0,l),
(714,0,l),
(754,80,l),
(481,164,l)
);
},
{
closed = 1;
nodes = (
(647,472,l),
(647,543,l),
(408,543,l),
(368,463,l),
(641,379,l)
);
}
);
};
layerId = "2CCCAF06-0AAA-44C6-8F00-0A68246BB68E";
name = Bold;
shapes = (
{
closed = 1;
nodes = (
(727,472,l),
(727,543,l),
(408,543,l),
(368,463,l),
(535,385,l),
(617,486,l),
(337,270,l),
(485,0,l),
(714,0,l),
(754,80,l),
(561,154,l),
(697,43,l),
(523,340,l),
(507,296,l)
);
},
{
ref = l;
}
);
width = 759;
}
);
unicode = 107;
},
{
glyphname = l;
kernLeft = l;
kernRight = l;
lastChange = "2014-07-08 09:53:05 +0000";
layers = (
{
anchors = (
{
name = bottom;
pos = (180,0);
},
{
name = top;
pos = (180,823);
},
{
name = topright;
pos = (324,531);
}
);
layerId = "E07B5D26-C0CD-4D0E-A705-659FB2222D21";
metricLeft = "=n-20";
metricRight = "=u";
name = Regular;
shapes = (
{
closed = 1;
nodes = (
(124,779,l),
(124,0,l),
(244,0,l),
(244,873,l)
);
},
{
closed = 1;
nodes = (
(35,31,l),
(35,0,l),
(314,0,l),
(334,40,l),
(141,114,l)
);
},
{
closed = 1;
nodes = (
(206,873,l),
(35,809,l),
(35,778,l),
(207,658,l),
(244,873,l)
);
}
);
width = 369;
},
{
anchors = (
{
name = bottom;
pos = (200,0);
},
{
name = top;
pos = (200,823);
},
{
name = topright;
pos = (344,543);
}
);
background = {
shapes = (
{
closed = 1;
nodes = (
(55,31,l),
(55,0,l),
(334,0,l),
(354,40,l),
(161,114,l)
);
},
{
closed = 1;
nodes = (
(144,779,l),
(144,0,l),
(264,0,l),
(264,722,l)
);
},
{
closed = 1;
nodes = (
(55,809,l),
(55,778,l),
(227,658,l),
(264,722,l),
(264,873,l),
(226,873,l)
);
}
);
};
layerId = "2CCCAF06-0AAA-44C6-8F00-0A68246BB68E";
metricLeft = "=n-20";
metricRight = "=u";
name = Bold;
shapes = (
{
closed = 1;
nodes = (
(104,779,l),
(104,0,l),
(304,0,l),
(304,873,l)
);
},
{
closed = 1;
nodes = (
(15,71,l),
(15,0,l),
(354,0,l),
(394,80,l),
(121,164,l)
);
},
{
closed = 1;
nodes = (
(226,873,l),
(15,784,l),
(15,713,l),
(267,548,l),
(304,873,l)
);
}
);
width = 399;
}
);
metricLeft = n;
metricRight = n;
unicode = 108;
},
{
color = 8;
glyphname = lslash;
lastChange = "2014-06-30 10:02:29 +0000";
layers = (
{
layerId = "E07B5D26-C0CD-4D0E-A705-659FB2222D21";
name = Regular;
shapes = (
{
closed = 1;
nodes = (
(174,522,l),
(-20,314,l),
(-20,257,l),
(174,457,l)
);
},
{
closed = 1;
nodes = (
(185,407,l),
(379,615,l),
(379,682,l),
(185,472,l)
);
},
{
ref = l;
}
);
width = 359;
},
{
layerId = "2CCCAF06-0AAA-44C6-8F00-0A68246BB68E";
name = Bold;
shapes = (
{
closed = 1;
nodes = (
(194,522,l),
(-40,314,l),
(-40,219,l),
(194,419,l)
);
},
{
closed = 1;
nodes = (
(205,369,l),
(439,577,l),
(439,682,l),
(205,472,l)
);
},
{
ref = l;
}
);
width = 399;
}
);
unicode = 322;
},
{
glyphname = m;
kernLeft = n;
kernRight = n;
lastChange = "2014-07-09 17:25:13 +0000";
layers = (
{
layerId = "E07B5D26-C0CD-4D0E-A705-659FB2222D21";
metricLeft = "=n";
metricRight = "=n";
name = Regular;
shapes = (
{
closed = 1;
nodes = (
(425,541,o),
(409,540,o),
(391,533,c),
(224,393,l),
(254,370,l),
(319,427,o),
(359,436,o),
(396,436,cs),
(454,436,o),
(474,411,o),
(474,337,cs),
(474,0,l),
(594,0,l),
(594,387,ls),
(594,481,o),
(537,541,o),
(446,541,cs)
);
},
{
closed = 1;
nodes = (
(55,31,l),
(55,0,l),
(334,0,l),
(354,40,l),
(161,114,l)
);
},
{
closed = 1;
nodes = (
(144,456,l),
(144,0,l),
(264,0,l),
(264,399,l)
);
},
{
closed = 1;
nodes = (
(485,31,l),
(485,0,l),
(664,0,l),
(684,40,l),
(491,114,l)
);
},
{
closed = 1;
nodes = (
(55,466,l),
(55,435,l),
(227,335,l),
(264,399,l),
(226,550,l)
);
},
{
closed = 1;
nodes = (
(755,541,o),
(739,540,o),
(721,533,c),
(554,393,l),
(584,370,l),
(649,427,o),
(689,436,o),
(726,436,cs),
(784,436,o),
(804,411,o),
(804,337,cs),
(804,0,l),
(924,0,l),
(924,387,ls),
(924,481,o),
(867,541,o),
(776,541,cs)
);
},
{
closed = 1;
nodes = (
(815,31,l),
(815,0,l),
(994,0,l),
(1014,40,l),
(821,114,l)
);
}
);
width = 1039;
},
{
background = {
shapes = (
{
closed = 1;
nodes = (
(455,553,o),
(435,550,o),
(421,545,c),
(284,435,l),
(314,362,l),
(345,382,o),
(376,388,o),
(398,388,cs),
(433,388,o),
(444,372,o),
(444,329,cs),
(444,0,l),
(644,0,l),
(644,399,ls),
(644,493,o),
(579,553,o),
(476,553,cs)
);
},
{
closed = 1;
nodes = (
(35,71,l),
(35,0,l),
(374,0,l),
(414,80,l),
(141,164,l)
);
},
{
closed = 1;
nodes = (
(124,468,l),
(124,0,l),
(324,0,l),
(324,411,l)
);
},
{
closed = 1;
nodes = (
(455,71,l),
(455,0,l),
(694,0,l),
(734,80,l),
(461,164,l)
);
},
{
closed = 1;
nodes = (
(35,473,l),
(35,402,l),
(287,297,l),
(324,411,l),
(266,562,l)
);
},
{
closed = 1;
nodes = (
(775,553,o),
(755,550,o),
(741,545,c),
(604,435,l),
(634,362,l),
(665,382,o),
(696,388,o),
(718,388,cs),
(753,388,o),
(764,372,o),
(764,329,cs),
(764,0,l),
(964,0,l),
(964,399,ls),
(964,493,o),
(899,553,o),
(796,553,cs)
);
},
{
closed = 1;
nodes = (
(775,71,l),
(775,0,l),
(1014,0,l),
(1054,80,l),
(781,164,l)
);
}
);
};
layerId = "2CCCAF06-0AAA-44C6-8F00-0A68246BB68E";
metricLeft = "=n";
metricRight = "=n";
name = Bold;
shapes = (
{
closed = 1;
nodes = (
(455,553,o),
(435,550,o),
(421,545,c),
(284,435,l),
(314,362,l),
(345,382,o),
(376,388,o),
(398,388,cs),
(433,388,o),
(444,372,o),
(444,329,cs),
(444,0,l),
(644,0,l),
(644,399,ls),
(644,493,o),
(579,553,o),
(476,553,cs)
);
},
{
closed = 1;
nodes = (
(35,71,l),
(35,0,l),
(364,0,l),
(404,80,l),
(141,164,l)
);
},
{
closed = 1;
nodes = (
(124,468,l),
(124,0,l),
(324,0,l),
(324,411,l)
);
},
{
closed = 1;
nodes = (
(455,71,l),
(455,0,l),
(684,0,l),
(724,80,l),
(461,164,l)
);
},
{
closed = 1;
nodes = (
(35,473,l),
(35,402,l),
(287,237,l),
(324,411,l),
(266,562,l)
);
},
{
closed = 1;
nodes = (
(775,553,o),
(755,550,o),
(741,545,c),
(604,435,l),
(634,362,l),
(665,382,o),
(696,388,o),
(718,388,cs),
(753,388,o),
(764,372,o),
(764,329,cs),
(764,0,l),
(964,0,l),
(964,399,ls),
(964,493,o),
(899,553,o),
(796,553,cs)
);
},
{
closed = 1;
nodes = (
(775,71,l),
(775,0,l),
(1014,0,l),
(1054,80,l),
(781,164,l)
);
}
);
width = 1059;
}
);
metricLeft = n;
metricRight = n;
unicode = 109;
},
{
glyphname = n;
kernLeft = n;
kernRight = n;
lastChange = "2014-07-09 16:06:21 +0000";
layers = (
{
anchors = (
{
name = bottom;
pos = (390,0);
},
{
name = top;
pos = (350,531);
}
);
background = {
shapes = (
{
closed = 1;
nodes = (
(435,541,o),
(419,540,o),
(401,533,c),
(224,393,l),
(254,370,l),
(324,427,o),
(366,436,o),
(406,436,cs),
(464,436,o),
(484,411,o),
(484,337,cs),
(484,0,l),
(604,0,l),
(604,387,ls),
(604,481,o),
(547,541,o),
(456,541,cs)
);
},
{
closed = 1;
nodes = (
(55,31,l),
(55,0,l),
(354,0,l),
(374,40,l),
(161,114,l)
);
},
{
closed = 1;
nodes = (
(144,456,l),
(144,0,l),
(264,0,l),
(264,399,l)
);
},
{
closed = 1;
nodes = (
(495,31,l),
(495,0,l),
(694,0,l),
(714,40,l),
(501,114,l)
);
},
{
closed = 1;
nodes = (
(35,486,l),
(35,455,l),
(227,335,l),
(264,399,l),
(226,550,l)
);
},
{
closed = 0;
nodes = (
(232,555,l),
(55,415,l)
);
}
);
};
guides = (
{
angle = 90;
pos = (55,31);
}
);
layerId = "E07B5D26-C0CD-4D0E-A705-659FB2222D21";
name = Regular;
shapes = (
{
closed = 1;
nodes = (
(435,541,o),
(419,540,o),
(401,533,c),
(224,393,l),
(254,370,l),
(324,427,o),
(366,436,o),
(406,436,cs),
(464,436,o),
(484,411,o),
(484,337,cs),
(484,0,l),
(604,0,l),
(604,387,ls),
(604,481,o),
(547,541,o),
(456,541,cs)
);
},
{
closed = 1;
nodes = (
(55,31,l),
(55,0,l),
(334,0,l),
(354,40,l),
(161,114,l)
);
},
{
closed = 1;
nodes = (
(144,456,l),
(144,0,l),
(264,0,l),
(264,399,l)
);
},
{
closed = 1;
nodes = (
(495,31,l),
(495,0,l),
(674,0,l),
(694,40,l),
(501,114,l)
);
},
{
closed = 1;
nodes = (
(55,466,l),
(55,435,l),
(227,335,l),
(264,399,l),
(226,550,l)
);
}
);
width = 719;
},
{
anchors = (
{
name = bottom;
pos = (410,0);
},
{
name = top;
pos = (370,543);
}
);
background = {
shapes = (
{
closed = 1;
nodes = (
(461,553,o),
(438,550,o),
(421,545,c),
(284,435,l),
(314,362,l),
(349,382,o),
(383,388,o),
(408,388,cs),
(450,388,o),
(464,366,o),
(464,309,cs),
(464,0,l),
(664,0,l),
(664,399,ls),
(664,493,o),
(595,553,o),
(486,553,cs)
);
},
{
closed = 1;
nodes = (
(35,71,l),
(35,0,l),
(374,0,l),
(414,80,l),
(141,164,l)
);
},
{
closed = 1;
nodes = (
(124,468,l),
(124,0,l),
(324,0,l),
(324,411,l)
);
},
{
closed = 1;
nodes = (
(475,71,l),
(475,0,l),
(714,0,l),
(754,80,l),
(481,164,l)
);
},
{
closed = 1;
nodes = (
(35,473,l),
(35,402,l),
(287,297,l),
(324,411,l),
(266,562,l)
);
}
);
};
guides = (
{
angle = 90;
pos = (75,31);
}
);
layerId = "2CCCAF06-0AAA-44C6-8F00-0A68246BB68E";
name = Bold;
shapes = (
{
closed = 1;
nodes = (
(461,553,o),
(438,550,o),
(421,545,c),
(284,435,l),
(314,362,l),
(349,382,o),
(383,388,o),
(408,388,cs),
(450,388,o),
(464,366,o),
(464,309,cs),
(464,0,l),
(664,0,l),
(664,399,ls),
(664,493,o),
(595,553,o),
(486,553,cs)
);
},
{
closed = 1;
nodes = (
(35,71,l),
(35,0,l),
(374,0,l),
(414,80,l),
(141,164,l)
);
},
{
closed = 1;
nodes = (
(124,468,l),
(124,0,l),
(324,0,l),
(324,411,l)
);
},
{
closed = 1;
nodes = (
(475,71,l),
(475,0,l),
(714,0,l),
(754,80,l),
(481,164,l)
);
},
{
closed = 1;
nodes = (
(35,473,l),
(35,402,l),
(287,237,l),
(324,411,l),
(266,562,l)
);
}
);
width = 759;
}
);
unicode = 110;
},
{
color = 7;
glyphname = eng;
kernLeft = n;
kernRight = j;
lastChange = "2014-06-29 19:25:21 +0000";
layers = (
{
anchors = (
{
name = top;
pos = (350,531);
}
);
layerId = "E07B5D26-C0CD-4D0E-A705-659FB2222D21";
metricLeft = "=n";
metricRight = "=dotlessj";
name = Regular;
shapes = (
{
closed = 1;
nodes = (
(435,541,o),
(419,540,o),
(401,533,c),
(224,393,l),
(254,370,l),
(324,427,o),
(366,436,o),
(406,436,cs),
(464,436,o),
(484,411,o),
(484,337,cs),
(484,11,ls),
(484,-87,o),
(463,-139,o),
(383,-234,c),
(421,-264,l),
(613,-20,l),
(608,-4,o),
(604,45,o),
(604,99,cs),
(604,387,ls),
(604,481,o),
(547,541,o),
(456,541,cs)
);
},
{
closed = 1;
nodes = (
(55,31,l),
(55,0,l),
(334,0,l),
(354,40,l),
(161,114,l)
);
},
{
closed = 1;
nodes = (
(144,0,l),
(264,0,l),
(264,399,l),
(144,456,l)
);
},
{
closed = 1;
nodes = (
(55,466,l),
(55,435,l),
(227,335,l),
(264,399,l),
(226,550,l)
);
}
);
width = 719;
},
{
anchors = (
{
name = top;
pos = (370,543);
}
);
layerId = "2CCCAF06-0AAA-44C6-8F00-0A68246BB68E";
metricLeft = "=n";
metricRight = "=dotlessj";
name = Bold;
shapes = (
{
closed = 1;
nodes = (
(461,553,o),
(438,550,o),
(421,545,c),
(284,435,l),
(314,362,l),
(349,382,o),
(383,388,o),
(408,388,cs),
(450,388,o),
(464,366,o),
(464,309,cs),
(464,41,ls),
(464,-57,o),
(443,-109,o),
(363,-204,c),
(441,-264,l),
(673,-20,l),
(668,-4,o),
(664,45,o),
(664,99,cs),
(664,399,ls),
(664,493,o),
(595,553,o),
(486,553,cs)
);
},
{
closed = 1;
nodes = (
(35,71,l),
(35,0,l),
(374,0,l),
(414,80,l),
(141,164,l)
);
},
{
closed = 1;
nodes = (
(124,0,l),
(324,0,l),
(324,411,l),
(124,468,l)
);
},
{
closed = 1;
nodes = (
(35,473,l),
(35,402,l),
(287,237,l),
(324,411,l),
(266,562,l)
);
}
);
width = 753;
}
);
metricLeft = n;
metricRight = dotlessj;
unicode = 331;
},
{
glyphname = o;
kernLeft = o;
kernRight = o;
lastChange = "2014-09-25 18:01:35 +0000";
layers = (
{
anchors = (
{
name = top;
pos = (336,531);
}
);
layerId = "E07B5D26-C0CD-4D0E-A705-659FB2222D21";
name = Regular;
shapes = (
{
closed = 1;
nodes = (
(240,541,o),
(70,410,o),
(70,248,cs),
(70,104,o),
(166,-10,o),
(300,-10,cs),
(431,-10,o),
(601,121,o),
(601,283,cs),
(601,426,o),
(506,541,o),
(371,541,cs)
);
},
{
closed = 1;
nodes = (
(420,457,o),
(471,354,o),
(471,236,cs),
(471,130,o),
(434,74,o),
(358,74,cs),
(251,74,o),
(200,178,o),
(200,296,cs),
(200,401,o),
(237,457,o),
(313,457,cs)
);
}
);
width = 671;
},
{
anchors = (
{
name = top;
pos = (356,543);
}
);
layerId = "2CCCAF06-0AAA-44C6-8F00-0A68246BB68E";
name = Bold;
shapes = (
{
closed = 1;
nodes = (
(244,553,o),
(50,422,o),
(50,254,cs),
(50,104,o),
(162,-10,o),
(320,-10,cs),
(467,-10,o),
(661,121,o),
(661,289,cs),
(661,438,o),
(550,553,o),
(391,553,cs)
);
},
{
closed = 1;
nodes = (
(406,419,o),
(445,342,o),
(445,242,cs),
(445,163,o),
(420,124,o),
(378,124,cs),
(305,124,o),
(266,202,o),
(266,302,cs),
(266,381,o),
(291,419,o),
(333,419,cs)
);
}
);
width = 711;
}
);
unicode = 111;
},
{
color = 8;
glyphname = oslash;
kernLeft = o;
kernRight = o;
lastChange = "2014-07-01 18:39:41 +0000";
layers = (
{
background = {
shapes = (
{
closed = 1;
nodes = (
(549,678,l),
(85,-126,l),
(121,-147,l),
(585,657,l)
);
},
{
ref = o;
}
);
};
layerId = "E07B5D26-C0CD-4D0E-A705-659FB2222D21";
name = Regular;
shapes = (
{
closed = 1;
nodes = (
(549,678,l),
(85,-126,l),
(121,-147,l),
(585,657,l)
);
},
{
ref = o;
}
);
width = 671;
},
{
background = {
shapes = (
{
closed = 1;
nodes = (
(573,690,l),
(102,-126,l),
(138,-147,l),
(609,669,l)
);
},
{
closed = 1;
nodes = (
(315,743,l),
(315,-199,l),
(396,-199,l),
(396,743,l)
);
},
{
ref = o;
}
);
};
layerId = "2CCCAF06-0AAA-44C6-8F00-0A68246BB68E";
name = Bold;
shapes = (
{
closed = 1;
nodes = (
(556,700,l),
(85,-116,l),
(155,-156,l),
(626,660,l)
);
},
{
ref = o;
}
);
width = 711;
}
);
unicode = 248;
},
{
color = 7;
glyphname = oe;
kernLeft = o;
kernRight = o;
lastChange = "2014-07-04 17:51:34 +0000";
layers = (
{
background = {
shapes = (
{
closed = 1;
nodes = (
(228,541,o),
(70,410,o),
(70,248,cs),
(70,104,o),
(158,-10,o),
(280,-10,cs),
(403,-10,o),
(561,121,o),
(561,283,cs),
(561,426,o),
(474,541,o),
(351,541,cs)
);
},
{
closed = 1;
nodes = (
(386,457,o),
(431,354,o),
(431,236,cs),
(431,130,o),
(400,74,o),
(338,74,cs),
(245,74,o),
(200,178,o),
(200,296,cs),
(200,401,o),
(231,457,o),
(293,457,cs)
);
},
{
closed = 1;
nodes = (
(524,309,l),
(524,268,l),
(902,268,l),
(902,428,o),
(839,541,o),
(722,541,cs),
(595,541,o),
(431,410,o),
(431,248,cs),
(431,104,o),
(523,-10,o),
(646,-10,cs),
(673,-10,o),
(707,-9,o),
(742,-2,c),
(900,124,l),
(870,162,l),
(795,101,o),
(740,75,o),
(704,75,cs),
(609,75,o),
(561,178,o),
(561,296,cs),
(561,401,o),
(595,457,o),
(664,457,cs),
(751,457,o),
(754,385,o),
(768,293,c),
(803,309,l)
);
}
);
};
layerId = "E07B5D26-C0CD-4D0E-A705-659FB2222D21";
metricLeft = "=o";
metricRight = "=e";
name = Regular;
shapes = (
{
closed = 1;
nodes = (
(228,541,o),
(70,410,o),
(70,248,cs),
(70,104,o),
(158,-10,o),
(280,-10,cs),
(403,-10,o),
(561,121,o),
(561,283,cs),
(561,426,o),
(474,541,o),
(351,541,cs)
);
},
{
closed = 1;
nodes = (
(386,457,o),
(431,354,o),
(431,236,cs),
(431,130,o),
(400,74,o),
(338,74,cs),
(245,74,o),
(200,178,o),
(200,296,cs),
(200,401,o),
(231,457,o),
(293,457,cs)
);
},
{
closed = 1;
nodes = (
(595,541,o),
(431,410,o),
(431,248,cs),
(431,104,o),
(523,-10,o),
(646,-10,cs),
(673,-10,o),
(707,-9,o),
(742,-2,c),
(900,124,l),
(870,162,l),
(795,101,o),
(740,75,o),
(704,75,cs),
(609,75,o),
(561,178,o),
(561,296,cs),
(561,401,o),
(595,457,o),
(664,457,cs),
(751,457,o),
(754,385,o),
(768,293,c),
(803,309,l),
(524,309,l),
(524,268,l),
(902,268,l),
(902,428,o),
(839,541,o),
(722,541,cs)
);
}
);
width = 972;
},
{
background = {
shapes = (
{
closed = 1;
nodes = (
(228,541,o),
(70,410,o),
(70,248,cs),
(70,104,o),
(158,-10,o),
(280,-10,cs),
(403,-10,o),
(561,121,o),
(561,283,cs),
(561,426,o),
(474,541,o),
(351,541,cs)
);
},
{
closed = 1;
nodes = (
(386,457,o),
(431,354,o),
(431,236,cs),
(431,130,o),
(400,74,o),
(338,74,cs),
(245,74,o),
(200,178,o),
(200,296,cs),
(200,401,o),
(231,457,o),
(293,457,cs)
);
},
{
closed = 1;
nodes = (
(524,309,l),
(524,268,l),
(902,268,l),
(902,428,o),
(839,541,o),
(722,541,cs),
(595,541,o),
(431,410,o),
(431,248,cs),
(431,104,o),
(523,-10,o),
(646,-10,cs),
(673,-10,o),
(707,-9,o),
(742,-2,c),
(900,124,l),
(870,162,l),
(795,101,o),
(740,75,o),
(704,75,cs),
(609,75,o),
(561,178,o),
(561,296,cs),
(561,401,o),
(595,457,o),
(664,457,cs),
(751,457,o),
(754,385,o),
(768,293,c),
(803,309,l)
);
}
);
};
layerId = "2CCCAF06-0AAA-44C6-8F00-0A68246BB68E";
metricLeft = "=o";
metricRight = "=e";
name = Bold;
shapes = (
{
closed = 1;
nodes = (
(238,553,o),
(50,422,o),
(50,254,cs),
(50,104,o),
(158,-10,o),
(310,-10,cs),
(445,-10,o),
(621,121,o),
(621,289,cs),
(621,438,o),
(522,553,o),
(381,553,cs)
);
},
{
closed = 1;
nodes = (
(389,419,o),
(425,342,o),
(425,242,cs),
(425,163,o),
(404,124,o),
(368,124,cs),
(302,124,o),
(266,202,o),
(266,302,cs),
(266,381,o),
(287,419,o),
(323,419,cs)
);
},
{
closed = 1;
nodes = (
(613,553,o),
(431,422,o),
(431,254,cs),
(431,104,o),
(535,-10,o),
(681,-10,cs),
(725,-10,o),
(777,-8,o),
(834,9,c),
(971,119,l),
(941,187,l),
(843,149,o),
(780,135,o),
(739,135,cs),
(667,135,o),
(631,207,o),
(631,302,cs),
(631,381,o),
(652,419,o),
(698,419,cs),
(753,419,o),
(774,379,o),
(778,299,c),
(803,315,l),
(554,315,l),
(554,234,l),
(972,234,l),
(976,440,o),
(893,553,o),
(752,553,cs)
);
}
);
width = 1022;
}
);
metricLeft = o;
metricRight = e;
unicode = 339;
},
{
glyphname = p;
kernLeft = n;
kernRight = o;
lastChange = "2014-10-09 19:52:39 +0000";
layers = (
{
background = {
shapes = (
{
closed = 1;
nodes = (
(144,456,l),
(144,-254,l),
(264,-254,l),
(264,399,l)
);
},
{
closed = 1;
nodes = (
(55,466,l),
(55,435,l),
(227,335,l),
(264,399,l),
(226,550,l)
);
},
{
closed = 1;
nodes = (
(55,-223,l),
(55,-254,l),
(384,-254,l),
(404,-214,l),
(161,-140,l)
);
},
{
closed = 1;
nodes = (
(163,105,o),
(246,-10,o),
(363,-10,cs),
(494,-10,o),
(664,121,o),
(664,283,cs),
(664,427,o),
(584,541,o),
(474,541,cs),
(452,541,o),
(425,540,o),
(397,533,c),
(220,393,l),
(250,370,l),
(330,445,o),
(376,456,o),
(423,456,cs),
(497,456,o),
(534,352,o),
(534,235,cs),
(534,130,o),
(497,74,o),
(421,74,cs),
(314,74,o),
(263,134,o),
(263,203,c),
(163,248,l)
);
}
);
};
layerId = "E07B5D26-C0CD-4D0E-A705-659FB2222D21";
metricLeft = "=n";
metricRight = "=o";
name = Regular;
shapes = (
{
closed = 1;
nodes = (
(453,541,o),
(430,540,o),
(402,533,c),
(225,393,l),
(251,360,l),
(331,435,o),
(377,446,o),
(424,446,cs),
(498,446,o),
(535,347,o),
(535,235,cs),
(535,130,o),
(498,74,o),
(422,74,cs),
(315,74,o),
(264,134,o),
(264,203,c),
(164,248,l),
(164,105,o),
(247,-10,o),
(364,-10,cs),
(495,-10,o),
(665,121,o),
(665,283,cs),
(665,427,o),
(585,541,o),
(475,541,cs)
);
},
{
closed = 1;
nodes = (
(55,-223,l),
(55,-254,l),
(384,-254,l),
(404,-214,l),
(161,-140,l)
);
},
{
closed = 1;
nodes = (
(144,-254,l),
(264,-254,l),
(264,399,l),
(144,456,l)
);
},
{
closed = 1;
nodes = (
(55,466,l),
(55,435,l),
(227,335,l),
(264,399,l),
(226,550,l)
);
}
);
width = 735;
},
{
background = {
shapes = (
{
closed = 1;
nodes = (
(204,456,l),
(204,-254,l),
(324,-254,l),
(324,399,l)
);
},
{
closed = 1;
nodes = (
(115,466,l),
(115,435,l),
(287,335,l),
(324,399,l),
(286,550,l)
);
},
{
closed = 1;
nodes = (
(115,-223,l),
(115,-254,l),
(444,-254,l),
(464,-214,l),
(221,-140,l)
);
},
{
closed = 1;
nodes = (
(223,105,o),
(306,-10,o),
(423,-10,cs),
(554,-10,o),
(724,121,o),
(724,283,cs),
(724,427,o),
(644,541,o),
(534,541,cs),
(512,541,o),
(485,540,o),
(457,533,c),
(280,393,l),
(310,370,l),
(390,445,o),
(436,456,o),
(483,456,cs),
(557,456,o),
(594,352,o),
(594,235,cs),
(594,130,o),
(557,74,o),
(481,74,cs),
(374,74,o),
(323,134,o),
(323,203,c),
(223,248,l)
);
}
);
};
layerId = "2CCCAF06-0AAA-44C6-8F00-0A68246BB68E";
metricLeft = "=n";
metricRight = "=o";
name = Bold;
shapes = (
{
closed = 1;
nodes = (
(473,553,o),
(450,552,o),
(422,545,c),
(245,403,l),
(275,337,l),
(323,374,o),
(374,389,o),
(427,389,cs),
(488,389,o),
(515,324,o),
(515,242,cs),
(515,163,o),
(490,124,o),
(442,124,cs),
(363,124,o),
(324,170,o),
(324,222,c),
(224,214,l),
(224,88,o),
(292,-10,o),
(384,-10,cs),
(531,-10,o),
(725,121,o),
(725,289,cs),
(725,438,o),
(630,553,o),
(495,553,cs)
);
},
{
closed = 1;
nodes = (
(35,-183,l),
(35,-254,l),
(444,-254,l),
(484,-174,l),
(141,-90,l)
);
},
{
closed = 1;
nodes = (
(124,-254,l),
(324,-254,l),
(324,411,l),
(124,468,l)
);
},
{
closed = 1;
nodes = (
(35,473,l),
(35,402,l),
(287,237,l),
(324,411,l),
(266,562,l)
);
}
);
width = 775;
}
);
metricLeft = n;
metricRight = o;
unicode = 112;
},
{
color = 7;
glyphname = thorn;
kernLeft = l;
kernRight = o;
lastChange = "2014-07-04 18:18:18 +0000";
layers = (
{
background = {
shapes = (
{
closed = 1;
nodes = (
(124,799,l),
(124,-254,l),
(244,-254,l),
(244,790,l)
);
},
{
closed = 1;
nodes = (
(35,-223,l),
(35,-254,l),
(364,-254,l),
(384,-214,l),
(141,-140,l)
);
},
{
closed = 1;
nodes = (
(143,105,o),
(226,-10,o),
(343,-10,cs),
(474,-10,o),
(644,121,o),
(644,283,cs),
(644,427,o),
(564,541,o),
(454,541,cs),
(432,541,o),
(405,540,o),
(377,533,c),
(200,393,l),
(230,370,l),
(310,445,o),
(356,456,o),
(403,456,cs),
(477,456,o),
(514,352,o),
(514,235,cs),
(514,130,o),
(477,74,o),
(401,74,cs),
(294,74,o),
(243,134,o),
(243,203,c),
(143,248,l)
);
},
{
closed = 1;
nodes = (
(35,809,l),
(35,778,l),
(207,658,l),
(244,722,l),
(244,873,l),
(206,873,l)
);
}
);
};
layerId = "E07B5D26-C0CD-4D0E-A705-659FB2222D21";
metricLeft = "=l";
metricRight = "=o";
name = Regular;
shapes = (
{
closed = 1;
nodes = (
(432,541,o),
(405,540,o),
(377,533,c),
(200,393,l),
(230,370,l),
(310,445,o),
(356,456,o),
(403,456,cs),
(477,456,o),
(514,352,o),
(514,235,cs),
(514,130,o),
(477,74,o),
(401,74,cs),
(294,74,o),
(243,134,o),
(243,203,c),
(143,248,l),
(143,105,o),
(226,-10,o),
(343,-10,cs),
(474,-10,o),
(644,121,o),
(644,283,cs),
(644,427,o),
(564,541,o),
(454,541,cs)
);
},
{
closed = 1;
nodes = (
(35,-223,l),
(35,-254,l),
(364,-254,l),
(384,-214,l),
(141,-140,l)
);
},
{
closed = 1;
nodes = (
(124,799,l),
(124,-254,l),
(244,-254,l),
(244,873,l)
);
},
{
closed = 1;
nodes = (
(206,873,l),
(35,809,l),
(35,778,l),
(207,658,l),
(244,873,l)
);
}
);
width = 714;
},
{
background = {
shapes = (
{
closed = 1;
nodes = (
(124,799,l),
(124,-254,l),
(244,-254,l),
(244,790,l)
);
},
{
closed = 1;
nodes = (
(35,-223,l),
(35,-254,l),
(364,-254,l),
(384,-214,l),
(141,-140,l)
);
},
{
closed = 1;
nodes = (
(143,105,o),
(226,-10,o),
(343,-10,cs),
(474,-10,o),
(644,121,o),
(644,283,cs),
(644,427,o),
(564,541,o),
(454,541,cs),
(432,541,o),
(405,540,o),
(377,533,c),
(200,393,l),
(230,370,l),
(310,445,o),
(356,456,o),
(403,456,cs),
(477,456,o),
(514,352,o),
(514,235,cs),
(514,130,o),
(477,74,o),
(401,74,cs),
(294,74,o),
(243,134,o),
(243,203,c),
(143,248,l)
);
},
{
closed = 1;
nodes = (
(35,809,l),
(35,778,l),
(207,658,l),
(244,722,l),
(244,873,l),
(206,873,l)
);
}
);
};
layerId = "2CCCAF06-0AAA-44C6-8F00-0A68246BB68E";
metricLeft = "=l";
metricRight = "=o";
name = Bold;
shapes = (
{
closed = 1;
nodes = (
(453,553,o),
(430,552,o),
(402,545,c),
(225,403,l),
(255,337,l),
(303,374,o),
(354,389,o),
(407,389,cs),
(468,389,o),
(495,324,o),
(495,242,cs),
(495,163,o),
(470,124,o),
(422,124,cs),
(343,124,o),
(304,170,o),
(304,222,c),
(204,214,l),
(204,88,o),
(272,-10,o),
(364,-10,cs),
(511,-10,o),
(705,121,o),
(705,289,cs),
(705,438,o),
(610,553,o),
(475,553,cs)
);
},
{
closed = 1;
nodes = (
(15,-183,l),
(15,-254,l),
(424,-254,l),
(464,-174,l),
(121,-90,l)
);
},
{
closed = 1;
nodes = (
(104,779,l),
(104,-254,l),
(304,-254,l),
(304,873,l)
);
},
{
closed = 1;
nodes = (
(226,873,l),
(15,784,l),
(15,713,l),
(267,548,l),
(304,873,l)
);
}
);
width = 755;
}
);
metricLeft = l;
metricRight = o;
unicode = 254;
},
{
glyphname = q;
kernLeft = o;
lastChange = "2025-05-12 05:53:48 +0000";
layers = (
{
layerId = "E07B5D26-C0CD-4D0E-A705-659FB2222D21";
metricLeft = "=o";
metricRight = "=l";
name = Regular;
shapes = (
{
closed = 1;
nodes = (
(240,541,o),
(70,410,o),
(70,248,cs),
(70,104,o),
(166,-10,o),
(300,-10,cs),
(322,-10,o),
(349,-9,o),
(377,-2,c),
(554,138,l),
(524,161,l),
(444,86,o),
(398,75,o),
(351,75,cs),
(249,75,o),
(200,179,o),
(200,296,cs),
(200,401,o),
(237,457,o),
(313,457,cs),
(420,457,o),
(471,397,o),
(471,328,c),
(571,283,l),
(571,426,o),
(488,541,o),
(371,541,cs)
);
},
{
closed = 1;
nodes = (
(331,-223,l),
(331,-254,l),
(660,-254,l),
(680,-214,l),
(487,-140,l)
);
},
{
closed = 1;
nodes = (
(552,551,l),
(470,437,l),
(470,-254,l),
(590,-254,l),
(590,551,l)
);
}
);
width = 715;
},
{
background = {
shapes = (
{
closed = 1;
nodes = (
(591,426,o),
(508,541,o),
(391,541,cs),
(260,541,o),
(90,410,o),
(90,248,cs),
(90,104,o),
(186,-10,o),
(320,-10,cs),
(342,-10,o),
(369,-9,o),
(397,-2,c),
(574,138,l),
(544,161,l),
(464,86,o),
(418,75,o),
(371,75,cs),
(269,75,o),
(220,179,o),
(220,296,cs),
(220,401,o),
(257,457,o),
(333,457,cs),
(440,457,o),
(491,397,o),
(491,328,c),
(591,283,l)
);
},
{
closed = 1;
nodes = (
(490,-254,l),
(610,-254,l),
(610,551,l),
(572,551,l),
(490,437,l)
);
},
{
closed = 1;
nodes = (
(351,-223,l),
(351,-254,l),
(680,-254,l),
(700,-214,l),
(507,-140,l)
);
}
);
};
layerId = "2CCCAF06-0AAA-44C6-8F00-0A68246BB68E";
metricLeft = "=o";
metricRight = "=l";
name = Bold;
shapes = (
{
closed = 1;
nodes = (
(220,553,o),
(50,418,o),
(50,248,cs),
(50,104,o),
(146,-10,o),
(280,-10,cs),
(302,-10,o),
(329,-9,o),
(357,-2,c),
(534,138,l),
(503,207,l),
(455,170,o),
(404,155,o),
(351,155,cs),
(291,155,o),
(260,219,o),
(260,296,cs),
(260,374,o),
(285,419,o),
(333,419,cs),
(412,419,o),
(451,373,o),
(451,323,c),
(631,295,l),
(631,438,o),
(516,553,o),
(351,553,cs)
);
},
{
closed = 1;
nodes = (
(291,-183,l),
(291,-254,l),
(710,-254,l),
(750,-174,l),
(467,-110,l)
);
},
{
closed = 1;
nodes = (
(572,551,l),
(450,449,l),
(450,-254,l),
(650,-254,l),
(650,551,l)
);
}
);
width = 755;
}
);
metricLeft = o;
metricRight = l;
unicode = 113;
},
{
glyphname = r;
kernLeft = n;
kernRight = r;
lastChange = "2014-07-04 08:48:25 +0000";
layers = (
{
anchors = (
{
name = bottom;
pos = (208,0);
},
{
name = top;
pos = (270,531);
}
);
background = {
shapes = (
{
closed = 1;
nodes = (
(395,541,o),
(379,540,o),
(361,533,c),
(224,393,l),
(254,370,l),
(305,427,o),
(339,436,o),
(366,436,cs),
(390,436,o),
(403,423,o),
(409,390,c),
(513,473,l),
(495,516,o),
(460,541,o),
(416,541,cs)
);
},
{
closed = 1;
nodes = (
(55,31,l),
(55,0,l),
(384,0,l),
(404,40,l),
(161,114,l)
);
},
{
closed = 1;
nodes = (
(144,456,l),
(144,0,l),
(264,0,l),
(264,399,l)
);
},
{
closed = 1;
nodes = (
(55,466,l),
(55,435,l),
(227,335,l),
(264,399,l),
(226,550,l)
);
}
);
};
layerId = "E07B5D26-C0CD-4D0E-A705-659FB2222D21";
name = Regular;
shapes = (
{
closed = 1;
nodes = (
(55,466,l),
(55,435,l),
(227,335,l),
(264,399,l),
(226,550,l)
);
},
{
closed = 1;
nodes = (
(55,31,l),
(55,0,l),
(384,0,l),
(404,40,l),
(161,114,l)
);
},
{
closed = 1;
nodes = (
(395,541,o),
(379,540,o),
(361,533,c),
(224,393,l),
(254,370,l),
(305,427,o),
(339,436,o),
(366,436,cs),
(390,436,o),
(403,423,o),
(409,390,c),
(447,390,l),
(513,473,l),
(495,516,o),
(460,541,o),
(416,541,cs)
);
},
{
closed = 1;
nodes = (
(144,0,l),
(264,0,l),
(264,399,l),
(144,456,l)
);
}
);
width = 519;
},
{
anchors = (
{
name = bottom;
pos = (228,0);
},
{
name = top;
pos = (330,543);
}
);
background = {
shapes = (
{
closed = 1;
nodes = (
(164,0,l),
(284,0,l),
(284,399,l),
(164,456,l)
);
},
{
closed = 1;
nodes = (
(75,31,l),
(75,0,l),
(404,0,l),
(424,40,l),
(181,114,l)
);
},
{
closed = 1;
nodes = (
(75,466,l),
(75,435,l),
(247,335,l),
(284,399,l),
(246,550,l)
);
},
{
closed = 1;
nodes = (
(415,541,o),
(399,540,o),
(381,533,c),
(244,393,l),
(274,370,l),
(325,427,o),
(359,436,o),
(386,436,cs),
(410,436,o),
(423,423,o),
(429,390,c),
(467,390,l),
(533,473,l),
(515,516,o),
(480,541,o),
(436,541,cs)
);
},
{
closed = 0;
nodes = (
(512,309,l),
(578,392,l)
);
},
{
closed = 1;
nodes = (
(35,71,l),
(35,0,l),
(374,0,l),
(414,80,l),
(141,164,l)
);
}
);
};
layerId = "2CCCAF06-0AAA-44C6-8F00-0A68246BB68E";
metricLeft = "=n";
name = Bold;
shapes = (
{
closed = 1;
nodes = (
(35,473,l),
(35,402,l),
(287,237,l),
(324,411,l),
(266,562,l)
);
},
{
closed = 1;
nodes = (
(35,71,l),
(35,0,l),
(444,0,l),
(484,80,l),
(141,164,l)
);
},
{
closed = 1;
nodes = (
(419,553,o),
(402,550,o),
(391,545,c),
(284,435,l),
(314,362,l),
(337,382,o),
(362,388,o),
(378,388,cs),
(405,388,o),
(414,366,o),
(414,309,c),
(492,309,l),
(605,451,l),
(584,515,o),
(523,553,o),
(436,553,cs)
);
},
{
closed = 1;
nodes = (
(124,0,l),
(324,0,l),
(324,411,l),
(124,468,l)
);
}
);
width = 599;
}
);
metricLeft = n;
unicode = 114;
},
{
glyphname = s;
kernLeft = s;
kernRight = s;
lastChange = "2014-10-27 10:53:17 +0000";
layers = (
{
anchors = (
{
name = bottom;
pos = (275,0);
},
{
name = top;
pos = (290,531);
}
);
background = {
shapes = (
{
closed = 1;
nodes = (
(377,77,o),
(348,50,o),
(303,50,cs),
(239,50,o),
(170,97,o),
(123,181,c),
(85,181,l),
(85,27,l),
(123,9,o),
(232,-10,o),
(298,-10,cs),
(375,-10,o),
(490,88,o),
(490,164,cs),
(490,288,o),
(203,325,o),
(203,423,cs),
(203,455,o),
(229,481,o),
(272,481,cs),
(332,481,o),
(390,431,o),
(432,350,c),
(470,350,l),
(470,504,l),
(434,522,o),
(338,541,o),
(276,541,cs),
(199,541,o),
(90,442,o),
(90,367,cs),
(90,242,o),
(377,199,o),
(377,108,cs)
);
}
);
};
hints = (
{
horizontal = 1;
origin = (0,10);
target = (0,2);
type = Stem;
},
{
horizontal = 1;
origin = (0,27);
target = (0,19);
type = Stem;
},
{
origin = (0,30);
target = (0,16);
type = Stem;
},
{
origin = (0,33);
target = (0,13);
type = Stem;
}
);
layerId = "E07B5D26-C0CD-4D0E-A705-659FB2222D21";
name = Regular;
shapes = (
{
closed = 1;
nodes = (
(377,77,o),
(348,50,o),
(303,50,cs),
(239,50,o),
(170,97,o),
(123,181,c),
(85,181,l),
(85,27,l),
(123,9,o),
(232,-10,o),
(298,-10,cs),
(375,-10,o),
(490,88,o),
(490,164,cs),
(490,288,o),
(203,325,o),
(203,423,cs),
(203,455,o),
(229,481,o),
(272,481,cs),
(332,481,o),
(390,431,o),
(432,350,c),
(470,350,l),
(470,504,l),
(434,522,o),
(338,541,o),
(276,541,cs),
(199,541,o),
(90,442,o),
(90,367,cs),
(90,242,o),
(377,199,o),
(377,108,cs)
);
}
);
width = 559;
},
{
anchors = (
{
name = bottom;
pos = (288,0);
},
{
name = top;
pos = (290,543);
}
);
background = {
shapes = (
{
closed = 1;
nodes = (
(377,77,o),
(348,50,o),
(303,50,cs),
(239,50,o),
(170,97,o),
(123,181,c),
(85,181,l),
(85,27,l),
(123,9,o),
(232,-10,o),
(298,-10,cs),
(375,-10,o),
(490,88,o),
(490,164,cs),
(490,288,o),
(203,325,o),
(203,423,cs),
(203,455,o),
(229,481,o),
(272,481,cs),
(332,481,o),
(390,431,o),
(432,350,c),
(470,350,l),
(470,504,l),
(434,522,o),
(338,541,o),
(276,541,cs),
(199,541,o),
(90,442,o),
(90,367,cs),
(90,242,o),
(377,199,o),
(377,108,cs)
);
}
);
};
layerId = "2CCCAF06-0AAA-44C6-8F00-0A68246BB68E";
name = Bold;
shapes = (
{
closed = 1;
nodes = (
(307,123,o),
(294,110,o),
(273,110,cs),
(221,110,o),
(161,146,o),
(123,211,c),
(45,211,l),
(45,27,l),
(91,9,o),
(220,-10,o),
(298,-10,cs),
(391,-10,o),
(530,88,o),
(530,164,cs),
(530,278,o),
(269,347,o),
(269,405,cs),
(269,420,o),
(279,433,o),
(298,433,cs),
(346,433,o),
(396,399,o),
(428,342,c),
(506,342,l),
(506,516,l),
(462,534,o),
(346,553,o),
(272,553,cs),
(179,553,o),
(46,454,o),
(46,379,cs),
(46,264,o),
(307,191,o),
(307,138,cs)
);
}
);
width = 559;
}
);
unicode = 115;
},
{
color = 1;
glyphname = germandbls;
kernLeft = f;
lastChange = "2014-07-15 10:22:08 +0000";
layers = (
{
background = {
shapes = (
{
closed = 1;
nodes = (
(54,31,l),
(54,0,l),
(213,0,l),
(233,40,l),
(160,114,l)
);
},
{
closed = 1;
nodes = (
(217,531,l),
(25,531,l),
(25,490,l),
(217,490,l)
);
},
{
closed = 1;
nodes = (
(432,799,o),
(510,708,o),
(510,659,cs),
(510,581,o),
(360,521,o),
(360,417,cs),
(360,277,o),
(597,231,o),
(597,128,cs),
(597,87,o),
(576,50,o),
(543,50,cs),
(491,50,o),
(431,93,o),
(393,171,c),
(355,171,l),
(355,17,l),
(387,4,o),
(481,-10,o),
(538,-10,cs),
(607,-10,o),
(710,100,o),
(710,184,cs),
(710,323,o),
(473,363,o),
(473,473,cs),
(473,560,o),
(623,605,o),
(623,715,cs),
(623,798,o),
(486,883,o),
(414,883,cs),
(295,883,o),
(143,752,o),
(143,590,cs),
(143,0,l),
(263,0,l),
(263,638,ls),
(263,743,o),
(294,799,o),
(356,799,cs)
);
}
);
};
layerId = "E07B5D26-C0CD-4D0E-A705-659FB2222D21";
metricLeft = "=f";
metricRight = "=s";
name = Regular;
shapes = (
{
closed = 1;
nodes = (
(295,883,o),
(143,752,o),
(143,590,cs),
(143,0,l),
(263,0,l),
(263,638,ls),
(263,743,o),
(294,799,o),
(356,799,cs),
(432,799,o),
(510,708,o),
(510,659,cs),
(510,581,o),
(360,521,o),
(360,417,cs),
(360,277,o),
(597,231,o),
(597,128,cs),
(597,87,o),
(576,50,o),
(543,50,cs),
(491,50,o),
(431,93,o),
(393,171,c),
(355,171,l),
(355,17,l),
(387,4,o),
(481,-10,o),
(538,-10,cs),
(607,-10,o),
(710,100,o),
(710,184,cs),
(710,323,o),
(473,363,o),
(473,473,cs),
(473,560,o),
(623,605,o),
(623,715,cs),
(623,798,o),
(486,883,o),
(414,883,cs)
);
},
{
closed = 1;
nodes = (
(54,31,l),
(54,0,l),
(213,0,l),
(233,40,l),
(160,114,l)
);
},
{
closed = 1;
nodes = (
(25,501,l),
(25,460,l),
(217,460,l),
(217,501,l)
);
}
);
width = 779;
},
{
background = {
shapes = (
{
closed = 1;
nodes = (
(134,31,l),
(134,0,l),
(293,0,l),
(313,40,l),
(240,114,l)
);
},
{
closed = 1;
nodes = (
(297,531,l),
(105,531,l),
(105,490,l),
(297,490,l)
);
},
{
closed = 1;
nodes = (
(512,799,o),
(590,708,o),
(590,659,cs),
(590,581,o),
(440,521,o),
(440,417,cs),
(440,277,o),
(677,231,o),
(677,128,cs),
(677,87,o),
(656,50,o),
(623,50,cs),
(571,50,o),
(511,93,o),
(473,171,c),
(435,171,l),
(435,17,l),
(467,4,o),
(561,-10,o),
(618,-10,cs),
(687,-10,o),
(790,100,o),
(790,184,cs),
(790,323,o),
(553,363,o),
(553,473,cs),
(553,560,o),
(703,605,o),
(703,715,cs),
(703,798,o),
(566,883,o),
(494,883,cs),
(375,883,o),
(223,752,o),
(223,590,cs),
(223,0,l),
(343,0,l),
(343,638,ls),
(343,743,o),
(374,799,o),
(436,799,cs)
);
},
{
closed = 0;
nodes = (
(618,-10,ls),
(711,-10,o),
(850,88,o),
(850,164,cs),
(850,278,o),
(589,347,o),
(589,405,cs)
);
}
);
};
layerId = "2CCCAF06-0AAA-44C6-8F00-0A68246BB68E";
metricLeft = "=f";
metricRight = "=s";
name = Bold;
shapes = (
{
closed = 1;
nodes = (
(343,883,o),
(143,752,o),
(143,590,cs),
(143,0,l),
(343,0,l),
(343,638,ls),
(343,717,o),
(368,759,o),
(416,759,cs),
(462,759,o),
(510,670,o),
(510,619,cs),
(510,546,o),
(406,496,o),
(406,399,cs),
(406,274,o),
(617,195,o),
(617,138,cs),
(617,123,o),
(604,110,o),
(583,110,cs),
(545,110,o),
(501,142,o),
(473,201,c),
(395,201,l),
(395,17,l),
(427,4,o),
(521,-10,o),
(578,-10,cs),
(671,-10,o),
(810,100,o),
(810,184,cs),
(810,328,o),
(593,369,o),
(593,483,cs),
(593,566,o),
(726,612,o),
(726,715,cs),
(726,798,o),
(572,883,o),
(494,883,cs)
);
},
{
closed = 1;
nodes = (
(54,71,l),
(54,0,l),
(213,0,l),
(233,80,l),
(160,154,l)
);
},
{
closed = 1;
nodes = (
(25,513,l),
(25,432,l),
(217,432,l),
(217,513,l)
);
}
);
width = 839;
}
);
metricLeft = f;
metricRight = s;
unicode = 223;
},
{
color = 7;
glyphname = longs;
kernLeft = f;
kernRight = f;
lastChange = "2014-09-12 10:41:56 +0000";
layers = (
{
layerId = "E07B5D26-C0CD-4D0E-A705-659FB2222D21";
name = Regular;
shapes = (
{
closed = 1;
nodes = (
(296,883,o),
(144,752,o),
(144,590,cs),
(144,0,l),
(264,0,l),
(264,638,ls),
(264,743,o),
(295,799,o),
(357,799,cs),
(406,799,o),
(458,766,o),
(491,712,c),
(529,712,l),
(529,866,l),
(509,874,o),
(453,883,o),
(415,883,cs)
);
},
{
closed = 1;
nodes = (
(55,31,l),
(55,0,l),
(384,0,l),
(404,40,l),
(161,114,l)
);
},
{
closed = 1;
nodes = (
(25,501,l),
(25,460,l),
(203,460,l),
(203,501,l)
);
}
);
width = 439;
},
{
layerId = "2CCCAF06-0AAA-44C6-8F00-0A68246BB68E";
metricLeft = "=f";
metricRight = "=f";
name = Bold;
shapes = (
{
closed = 1;
nodes = (
(303,883,o),
(124,752,o),
(124,584,cs),
(124,0,l),
(324,0,l),
(324,656,ls),
(324,719,o),
(350,753,o),
(390,753,cs),
(438,753,o),
(488,715,o),
(520,652,c),
(598,652,l),
(598,846,l),
(568,864,o),
(487,883,o),
(434,883,cs)
);
},
{
closed = 1;
nodes = (
(35,71,l),
(35,0,l),
(444,0,l),
(484,80,l),
(141,164,l)
);
},
{
closed = 1;
nodes = (
(25,513,l),
(25,432,l),
(231,432,l),
(231,513,l)
);
}
);
width = 518;
}
);
metricLeft = f;
metricRight = f;
unicode = 383;
},
{
glyphname = t;
kernLeft = t;
kernRight = t;
lastChange = "2014-10-27 10:53:45 +0000";
layers = (
{
anchors = (
{
name = bottom;
pos = (261,0);
},
{
name = centre;
pos = (220,376);
},
{
name = topright;
pos = (324,531);
}
);
background = {
shapes = (
{
closed = 1;
nodes = (
(124,168,ls),
(124,47,o),
(172,-10,o),
(284,-10,cs),
(299,-10,o),
(320,-9,o),
(340,-2,c),
(441,78,l),
(411,116,l),
(371,84,o),
(349,75,o),
(322,75,cs),
(272,75,o),
(244,99,o),
(244,156,cs),
(244,722,l),
(206,722,l),
(124,566,l)
);
},
{
closed = 1;
nodes = (
(424,521,l),
(185,521,l),
(206,722,l),
(16,521,l),
(16,480,l),
(424,480,l)
);
}
);
};
hints = (
{
horizontal = 1;
origin = (1,4);
target = (1,3);
type = Stem;
},
{
horizontal = 1;
origin = (0,3);
target = (0,11);
type = Stem;
},
{
horizontal = 1;
origin = (0,16);
target = down;
type = TopGhost;
},
{
origin = (0,0);
target = (0,14);
type = Stem;
}
);
layerId = "E07B5D26-C0CD-4D0E-A705-659FB2222D21";
name = Regular;
shapes = (
{
closed = 1;
nodes = (
(124,168,ls),
(124,47,o),
(172,-10,o),
(284,-10,cs),
(299,-10,o),
(320,-9,o),
(340,-2,c),
(441,78,l),
(411,116,l),
(371,84,o),
(349,75,o),
(322,75,cs),
(272,75,o),
(244,99,o),
(244,156,cs),
(244,722,l),
(206,722,l),
(124,566,l)
);
},
{
closed = 1;
nodes = (
(424,501,l),
(185,501,l),
(206,722,l),
(16,501,l),
(16,460,l),
(424,460,l)
);
}
);
width = 456;
},
{
anchors = (
{
name = bottom;
pos = (292,0);
},
{
name = centre;
pos = (244,376);
},
{
name = topright;
pos = (348,543);
}
);
background = {
shapes = (
{
closed = 1;
nodes = (
(108,168,ls),
(108,47,o),
(168,-10,o),
(308,-10,cs),
(335,-10,o),
(368,-9,o),
(404,-2,c),
(505,78,l),
(475,146,l),
(435,130,o),
(413,125,o),
(386,125,cs),
(336,125,o),
(308,143,o),
(308,186,cs),
(308,734,l),
(230,734,l),
(108,566,l)
);
},
{
closed = 1;
nodes = (
(488,543,l),
(209,543,l),
(230,734,l),
(0,523,l),
(0,462,l),
(488,462,l)
);
}
);
};
layerId = "2CCCAF06-0AAA-44C6-8F00-0A68246BB68E";
name = Bold;
shapes = (
{
closed = 1;
nodes = (
(108,168,ls),
(108,47,o),
(168,-10,o),
(308,-10,cs),
(335,-10,o),
(368,-9,o),
(404,-2,c),
(505,78,l),
(475,146,l),
(435,130,o),
(413,125,o),
(386,125,cs),
(336,125,o),
(308,143,o),
(308,186,cs),
(308,734,l),
(230,734,l),
(108,566,l)
);
},
{
closed = 1;
nodes = (
(488,513,l),
(209,513,l),
(230,734,l),
(0,493,l),
(0,432,l),
(488,432,l)
);
}
);
width = 515;
}
);
unicode = 116;
},
{
glyphname = u;
kernLeft = u;
kernRight = u;
lastChange = "2014-07-14 12:34:17 +0000";
layers = (
{
anchors = (
{
name = ogonek;
pos = (644,0);
},
{
name = top;
pos = (355,531);
}
);
layerId = "E07B5D26-C0CD-4D0E-A705-659FB2222D21";
name = Regular;
shapes = (
{
closed = 1;
nodes = (
(124,480,l),
(124,144,ls),
(124,50,o),
(181,-10,o),
(272,-10,cs),
(293,-10,o),
(309,-9,o),
(327,-2,c),
(494,138,l),
(464,161,l),
(399,104,o),
(359,95,o),
(322,95,cs),
(264,95,o),
(244,120,o),
(244,194,cs),
(244,531,l)
);
},
{
closed = 1;
nodes = (
(206,550,l),
(35,466,l),
(35,435,l),
(207,335,l),
(244,399,l),
(244,550,l)
);
},
{
closed = 1;
nodes = (
(465,31,l),
(465,0,l),
(644,0,l),
(664,40,l),
(471,114,l)
);
},
{
closed = 1;
nodes = (
(454,481,l),
(454,0,l),
(574,0,l),
(574,531,l)
);
},
{
closed = 1;
nodes = (
(536,550,l),
(365,466,l),
(365,435,l),
(537,335,l),
(574,399,l),
(574,550,l)
);
}
);
width = 699;
},
{
anchors = (
{
name = ogonek;
pos = (685,0);
},
{
name = top;
pos = (375,543);
}
);
background = {
shapes = (
{
closed = 1;
nodes = (
(313,-10,o),
(329,-9,o),
(347,-2,c),
(514,138,l),
(484,161,l),
(419,104,o),
(379,95,o),
(342,95,cs),
(284,95,o),
(264,120,o),
(264,194,cs),
(264,531,l),
(144,480,l),
(144,144,ls),
(144,50,o),
(201,-10,o),
(292,-10,cs)
);
},
{
closed = 1;
nodes = (
(594,0,l),
(594,531,l),
(474,481,l),
(474,0,l)
);
},
{
closed = 1;
nodes = (
(485,31,l),
(485,0,l),
(664,0,l),
(684,40,l),
(491,114,l)
);
},
{
closed = 1;
nodes = (
(55,466,l),
(55,435,l),
(227,335,l),
(264,399,l),
(264,550,l),
(226,550,l)
);
},
{
closed = 1;
nodes = (
(385,466,l),
(385,435,l),
(557,335,l),
(594,399,l),
(594,550,l),
(556,550,l)
);
}
);
};
layerId = "2CCCAF06-0AAA-44C6-8F00-0A68246BB68E";
name = Bold;
shapes = (
{
closed = 1;
nodes = (
(95,457,l),
(95,143,ls),
(95,49,o),
(164,-11,o),
(273,-11,cs),
(298,-11,o),
(321,-8,o),
(338,-3,c),
(475,107,l),
(445,180,l),
(410,160,o),
(376,154,o),
(351,154,cs),
(309,154,o),
(295,176,o),
(295,233,cs),
(295,553,l)
);
},
{
closed = 1;
nodes = (
(217,553,l),
(6,464,l),
(6,393,l),
(258,248,l),
(295,411,l),
(295,553,l)
);
},
{
closed = 1;
nodes = (
(446,81,l),
(446,0,l),
(685,0,l),
(725,80,l),
(452,164,l)
);
},
{
closed = 1;
nodes = (
(435,443,l),
(435,0,l),
(635,0,l),
(635,553,l)
);
},
{
closed = 1;
nodes = (
(557,553,l),
(346,464,l),
(346,393,l),
(598,248,l),
(635,413,l),
(635,553,l)
);
}
);
width = 730;
}
);
unicode = 117;
},
{
glyphname = v;
kernLeft = v;
kernRight = v;
lastChange = "2014-07-14 14:04:49 +0000";
layers = (
{
background = {
shapes = (
{
closed = 1;
nodes = (
(71,446,l),
(254,0,l),
(330,0,l),
(583,500,l),
(583,531,l),
(364,531,l),
(344,491,l),
(507,373,l),
(512,466,l),
(310,47,l),
(350,68,l),
(214,399,l),
(176,550,l),
(5,466,l),
(5,435,l),
(177,335,l)
);
}
);
};
layerId = "E07B5D26-C0CD-4D0E-A705-659FB2222D21";
name = Regular;
shapes = (
{
closed = 1;
nodes = (
(71,446,l),
(254,0,l),
(330,0,l),
(583,500,l),
(583,531,l),
(364,531,l),
(344,491,l),
(507,373,l),
(512,466,l),
(310,47,l),
(350,68,l),
(214,399,l),
(176,550,l),
(5,466,l),
(5,435,l),
(177,335,l)
);
}
);
width = 620;
},
{
background = {
shapes = (
{
closed = 1;
nodes = (
(46,458,l),
(234,0,l),
(390,0,l),
(649,472,l),
(649,543,l),
(380,543,l),
(340,463,l),
(523,345,l),
(548,478,l),
(340,87,l),
(403,113,l),
(279,411,l),
(241,562,l),
(-10,478,l),
(-10,407,l),
(162,307,l)
);
}
);
};
layerId = "2CCCAF06-0AAA-44C6-8F00-0A68246BB68E";
name = Bold;
shapes = (
{
closed = 1;
nodes = (
(46,458,l),
(234,0,l),
(390,0,l),
(649,472,l),
(649,543,l),
(380,543,l),
(340,463,l),
(523,345,l),
(548,478,l),
(340,87,l),
(403,113,l),
(279,411,l),
(241,562,l),
(-10,478,l),
(-10,407,l),
(162,307,l)
);
}
);
width = 669;
}
);
unicode = 118;
},
{
glyphname = w;
kernLeft = v;
kernRight = v;
lastChange = "2014-07-03 10:28:43 +0000";
layers = (
{
anchors = (
{
name = top;
pos = (450,531);
}
);
background = {
shapes = (
{
closed = 1;
nodes = (
(71,446,l),
(254,0,l),
(330,0,l),
(486,309,l),
(456,360,l),
(310,47,l),
(350,68,l),
(214,399,l),
(176,550,l),
(5,466,l),
(5,435,l),
(177,335,l)
);
},
{
closed = 1;
nodes = (
(380,446,l),
(563,0,l),
(639,0,l),
(862,500,l),
(862,531,l),
(623,531,l),
(603,491,l),
(766,373,l),
(795,466,l),
(615,47,l),
(659,68,l),
(523,399,l),
(485,550,l),
(314,466,l),
(314,435,l),
(486,335,l)
);
}
);
};
layerId = "E07B5D26-C0CD-4D0E-A705-659FB2222D21";
metricLeft = "=v";
metricRight = "=v";
name = Regular;
shapes = (
{
closed = 1;
nodes = (
(314,466,l),
(314,435,l),
(486,335,l),
(380,446,l),
(563,0,l),
(639,0,l),
(862,500,l),
(862,531,l),
(643,531,l),
(623,491,l),
(786,373,l),
(795,466,l),
(615,47,l),
(659,68,l),
(523,399,l),
(485,550,l)
);
},
{
closed = 1;
nodes = (
(5,466,l),
(5,435,l),
(177,335,l),
(71,446,l),
(254,0,l),
(330,0,l),
(486,309,l),
(456,360,l),
(310,47,l),
(350,68,l),
(214,399,l),
(176,550,l)
);
}
);
width = 899;
},
{
anchors = (
{
name = top;
pos = (490,543);
}
);
background = {
shapes = (
{
closed = 1;
nodes = (
(71,446,l),
(254,0,l),
(330,0,l),
(486,309,l),
(456,360,l),
(310,47,l),
(350,68,l),
(214,399,l),
(176,550,l),
(5,466,l),
(5,435,l),
(177,335,l)
);
},
{
closed = 1;
nodes = (
(380,446,l),
(563,0,l),
(639,0,l),
(862,500,l),
(862,531,l),
(643,531,l),
(623,491,l),
(786,373,l),
(795,466,l),
(615,47,l),
(659,68,l),
(523,399,l),
(485,550,l),
(314,466,l),
(314,435,l),
(486,335,l)
);
}
);
};
layerId = "2CCCAF06-0AAA-44C6-8F00-0A68246BB68E";
metricLeft = "=v";
metricRight = "=v";
name = Bold;
shapes = (
{
closed = 1;
nodes = (
(330,478,l),
(330,407,l),
(502,307,l),
(386,458,l),
(574,0,l),
(730,0,l),
(969,472,l),
(969,543,l),
(700,543,l),
(660,463,l),
(843,345,l),
(868,478,l),
(680,87,l),
(743,113,l),
(619,411,l),
(581,562,l)
);
},
{
closed = 1;
nodes = (
(-10,478,l),
(-10,407,l),
(162,307,l),
(46,458,l),
(234,0,l),
(390,0,l),
(521,238,l),
(474,339,l),
(340,87,l),
(403,113,l),
(279,411,l),
(241,562,l)
);
}
);
width = 989;
}
);
metricLeft = v;
metricRight = v;
unicode = 119;
},
{
glyphname = x;
kernLeft = x;
kernRight = k;
lastChange = "2014-07-14 14:08:21 +0000";
layers = (
{
background = {
shapes = (
{
closed = 1;
nodes = (
(592,500,l),
(592,531,l),
(373,531,l),
(353,491,l),
(469,408,l),
(491,466,l),
(289,277,l),
(309,230,l)
);
},
{
closed = 1;
nodes = (
(19,30,l),
(19,-1,l),
(238,-1,l),
(258,39,l),
(141,124,l),
(120,64,l),
(322,253,l),
(302,300,l)
);
},
{
closed = 1;
nodes = (
(434,0,l),
(583,0,l),
(603,40,l),
(420,154,l),
(546,43,l),
(350,304,l),
(264,234,l)
);
},
{
closed = 1;
nodes = (
(184,531,l),
(35,531,l),
(15,491,l),
(198,377,l),
(72,488,l),
(268,227,l),
(354,297,l)
);
}
);
};
layerId = "E07B5D26-C0CD-4D0E-A705-659FB2222D21";
name = Regular;
shapes = (
{
closed = 1;
nodes = (
(592,500,l),
(592,531,l),
(373,531,l),
(353,491,l),
(469,408,l),
(491,466,l),
(289,277,l),
(309,230,l)
);
},
{
closed = 1;
nodes = (
(19,30,l),
(19,-1,l),
(238,-1,l),
(258,39,l),
(141,124,l),
(120,64,l),
(322,253,l),
(302,300,l)
);
},
{
closed = 1;
nodes = (
(434,0,l),
(583,0,l),
(603,40,l),
(420,154,l),
(554,43,l),
(353,304,l),
(259,234,l)
);
},
{
closed = 1;
nodes = (
(184,531,l),
(35,531,l),
(15,491,l),
(198,377,l),
(63,488,l),
(264,227,l),
(359,297,l)
);
}
);
width = 618;
},
{
background = {
shapes = (
{
closed = 1;
nodes = (
(627,500,l),
(627,531,l),
(408,531,l),
(388,491,l),
(504,408,l),
(526,466,l),
(324,277,l),
(344,230,l)
);
},
{
closed = 1;
nodes = (
(54,30,l),
(54,-1,l),
(273,-1,l),
(293,39,l),
(176,124,l),
(155,64,l),
(357,253,l),
(337,300,l)
);
},
{
closed = 1;
nodes = (
(469,0,l),
(618,0,l),
(638,40,l),
(455,154,l),
(581,43,l),
(385,304,l),
(299,234,l)
);
},
{
closed = 1;
nodes = (
(219,531,l),
(70,531,l),
(50,491,l),
(233,377,l),
(107,488,l),
(303,227,l),
(389,297,l)
);
}
);
};
layerId = "2CCCAF06-0AAA-44C6-8F00-0A68246BB68E";
name = Bold;
shapes = (
{
closed = 1;
nodes = (
(667,472,l),
(667,543,l),
(428,543,l),
(388,463,l),
(524,400,l),
(536,478,l),
(344,303,l),
(394,236,l)
);
},
{
closed = 1;
nodes = (
(22,70,l),
(22,-1,l),
(261,-1,l),
(301,79,l),
(164,144,l),
(153,64,l),
(345,239,l),
(295,306,l)
);
},
{
closed = 1;
nodes = (
(419,0,l),
(638,0,l),
(678,80,l),
(475,194,l),
(641,43,l),
(435,310,l),
(249,240,l)
);
},
{
closed = 1;
nodes = (
(269,543,l),
(50,543,l),
(10,463,l),
(253,349,l),
(47,500,l),
(253,233,l),
(449,303,l)
);
}
);
width = 688;
}
);
unicode = 120;
},
{
glyphname = y;
kernLeft = v;
kernRight = v;
lastChange = "2014-07-14 13:54:36 +0000";
layers = (
{
anchors = (
{
name = top;
pos = (300,531);
}
);
background = {
shapes = (
{
closed = 1;
nodes = (
(5,466,l),
(5,435,l),
(177,335,l),
(71,446,l),
(241,34,l),
(223,109,l),
(228,-37,o),
(204,-104,o),
(84,-234,c),
(122,-264,l),
(330,0,l),
(583,500,l),
(583,531,l),
(364,531,l),
(344,491,l),
(507,373,l),
(512,466,l),
(310,47,l),
(350,68,l),
(214,399,l),
(176,550,l)
);
}
);
};
layerId = "E07B5D26-C0CD-4D0E-A705-659FB2222D21";
metricLeft = "=v";
metricRight = "=v";
name = Regular;
shapes = (
{
closed = 1;
nodes = (
(5,466,l),
(5,435,l),
(177,335,l),
(71,446,l),
(241,34,l),
(223,109,l),
(228,-37,o),
(204,-104,o),
(84,-234,c),
(122,-264,l),
(330,0,l),
(583,500,l),
(583,531,l),
(364,531,l),
(344,491,l),
(507,373,l),
(512,466,l),
(310,47,l),
(350,68,l),
(214,399,l),
(176,550,l)
);
}
);
width = 620;
},
{
anchors = (
{
name = top;
pos = (330,543);
}
);
background = {
shapes = (
{
closed = 1;
nodes = (
(-10,478,l),
(-10,407,l),
(162,307,l),
(46,458,l),
(234,0,l),
(200,153,l),
(200,10,o),
(171,-66,o),
(61,-204,c),
(139,-264,l),
(390,0,l),
(649,472,l),
(649,543,l),
(380,543,l),
(340,463,l),
(523,345,l),
(548,478,l),
(340,87,l),
(403,113,l),
(279,411,l),
(241,562,l)
);
}
);
};
layerId = "2CCCAF06-0AAA-44C6-8F00-0A68246BB68E";
metricLeft = "=v";
metricRight = "=v";
name = Bold;
shapes = (
{
closed = 1;
nodes = (
(-10,478,l),
(-10,407,l),
(162,307,l),
(46,458,l),
(234,0,l),
(200,153,l),
(200,10,o),
(171,-66,o),
(61,-204,c),
(139,-264,l),
(390,0,l),
(649,472,l),
(649,543,l),
(380,543,l),
(340,463,l),
(523,345,l),
(548,478,l),
(340,87,l),
(403,113,l),
(279,411,l),
(241,562,l)
);
}
);
width = 669;
}
);
metricLeft = v;
metricRight = v;
unicode = 121;
},
{
glyphname = z;
kernLeft = z;
kernRight = z;
lastChange = "2014-06-30 12:05:12 +0000";
layers = (
{
anchors = (
{
name = top;
pos = (311,531);
}
);
background = {
shapes = (
{
closed = 1;
nodes = (
(83,349,l),
(113,339,l),
(175,486,l),
(105,410,l),
(436,410,l),
(515,514,l),
(70,38,l),
(70,0,l),
(473,0,l),
(528,-18,l),
(528,192,l),
(498,202,l),
(438,49,l),
(516,121,l),
(175,121,l),
(107,26,l),
(541,493,l),
(541,531,l),
(138,531,l),
(83,549,l)
);
}
);
};
layerId = "E07B5D26-C0CD-4D0E-A705-659FB2222D21";
name = Regular;
shapes = (
{
closed = 1;
nodes = (
(83,349,l),
(113,339,l),
(195,486,l),
(105,411,l),
(436,411,l),
(499,514,l),
(70,38,l),
(70,0,l),
(473,0,l),
(528,-18,l),
(528,192,l),
(498,202,l),
(418,49,l),
(516,120,l),
(175,120,l),
(123,26,l),
(541,493,l),
(541,531,l),
(138,531,l),
(83,549,l)
);
}
);
width = 611;
},
{
associatedMasterId = "E07B5D26-C0CD-4D0E-A705-659FB2222D21";
layerId = "9B019FAF-78D2-489F-A4EE-DBB94DF53BE1";
name = "Regular Jun 20 14, 12:34";
shapes = (
{
closed = 1;
nodes = (
(73,359,l),
(113,339,l),
(250,511,l),
(165,490,l),
(426,490,l),
(405,514,l),
(60,38,l),
(60,0,l),
(453,0,l),
(518,-18,l),
(518,202,l),
(478,222,l),
(337,14,l),
(426,41,l),
(165,41,l),
(197,26,l),
(531,493,l),
(531,531,l),
(138,531,l),
(73,549,l)
);
}
);
width = 601;
},
{
anchors = (
{
name = top;
pos = (341,543);
}
);
background = {
shapes = (
{
closed = 1;
nodes = (
(113,349,l),
(143,339,l),
(205,486,l),
(135,410,l),
(466,410,l),
(529,514,l),
(100,38,l),
(100,0,l),
(503,0,l),
(558,-18,l),
(558,192,l),
(528,202,l),
(468,49,l),
(546,121,l),
(205,121,l),
(153,26,l),
(571,493,l),
(571,531,l),
(168,531,l),
(113,549,l)
);
}
);
};
layerId = "2CCCAF06-0AAA-44C6-8F00-0A68246BB68E";
name = Bold;
shapes = (
{
closed = 1;
nodes = (
(68,281,l),
(138,261,l),
(210,418,l),
(130,343,l),
(411,343,l),
(539,526,l),
(60,78,l),
(60,0,l),
(503,0,l),
(598,-18,l),
(598,272,l),
(528,292,l),
(458,129,l),
(546,200,l),
(255,200,l),
(138,26,l),
(606,465,l),
(606,543,l),
(163,543,l),
(68,561,l)
);
}
);
width = 666;
}
);
unicode = 122;
},
{
color = 7;
glyphname = T_h;
kernLeft = T;
kernRight = n;
lastChange = "2025-05-12 05:55:45 +0000";
layers = (
{
background = {
shapes = (
{
closed = 1;
nodes = (
(352,786,l),
(352,0,l),
(477,0,l),
(477,786,l)
);
},
{
closed = 1;
nodes = (
(258,31,l),
(258,0,l),
(562,0,l),
(582,40,l),
(364,114,l)
);
},
{
closed = 1;
nodes = (
(70,554,l),
(100,544,l),
(243,756,l),
(145,779,l),
(70,804,l)
);
},
{
closed = 1;
nodes = (
(78,786,l),
(78,741,l),
(416,741,l),
(416,786,l)
);
},
{
closed = 1;
nodes = (
(416,786,l),
(416,741,l),
(844,741,l),
(844,786,l)
);
},
{
closed = 1;
nodes = (
(1098,541,o),
(1082,540,o),
(1064,533,c),
(887,393,l),
(917,370,l),
(987,427,o),
(1029,436,o),
(1069,436,cs),
(1127,436,o),
(1147,411,o),
(1147,337,cs),
(1147,0,l),
(1267,0,l),
(1267,387,ls),
(1267,481,o),
(1210,541,o),
(1119,541,cs)
);
},
{
closed = 1;
nodes = (
(1158,31,l),
(1158,0,l),
(1337,0,l),
(1357,40,l),
(1164,114,l)
);
},
{
closed = 1;
nodes = (
(807,779,l),
(807,0,l),
(927,0,l),
(927,873,l)
);
},
{
closed = 1;
nodes = (
(718,31,l),
(718,0,l),
(997,0,l),
(1017,40,l),
(824,114,l)
);
},
{
closed = 1;
nodes = (
(889,873,l),
(718,786,l),
(718,755,l),
(890,658,l),
(927,873,l)
);
}
);
};
layerId = "E07B5D26-C0CD-4D0E-A705-659FB2222D21";
name = Regular;
shapes = (
{
closed = 1;
nodes = (
(352,786,l),
(352,0,l),
(477,0,l),
(477,786,l)
);
},
{
closed = 1;
nodes = (
(258,31,l),
(258,0,l),
(562,0,l),
(582,40,l),
(364,114,l)
);
},
{
closed = 1;
nodes = (
(70,554,l),
(100,544,l),
(243,756,l),
(145,779,l),
(70,804,l)
);
},
{
closed = 1;
nodes = (
(78,786,l),
(78,741,l),
(416,741,l),
(416,786,l)
);
},
{
closed = 1;
nodes = (
(416,786,l),
(416,741,l),
(844,741,l),
(844,786,l)
);
},
{
closed = 1;
nodes = (
(1098,541,o),
(1082,540,o),
(1064,533,c),
(887,393,l),
(917,370,l),
(987,427,o),
(1029,436,o),
(1069,436,cs),
(1127,436,o),
(1147,411,o),
(1147,337,cs),
(1147,0,l),
(1267,0,l),
(1267,387,ls),
(1267,481,o),
(1210,541,o),
(1119,541,cs)
);
},
{
closed = 1;
nodes = (
(1158,31,l),
(1158,0,l),
(1337,0,l),
(1357,40,l),
(1164,114,l)
);
},
{
closed = 1;
nodes = (
(807,779,l),
(807,0,l),
(927,0,l),
(927,873,l)
);
},
{
closed = 1;
nodes = (
(718,31,l),
(718,0,l),
(997,0,l),
(1017,40,l),
(824,114,l)
);
},
{
closed = 1;
nodes = (
(889,873,l),
(704,779,l),
(704,749,l),
(890,644,l),
(927,873,l)
);
}
);
width = 1382;
},
{
background = {
shapes = (
{
closed = 1;
nodes = (
(307,786,l),
(307,0,l),
(522,0,l),
(522,786,l)
);
},
{
closed = 1;
nodes = (
(213,71,l),
(213,0,l),
(597,0,l),
(637,80,l),
(319,154,l)
);
},
{
closed = 1;
nodes = (
(20,514,l),
(90,484,l),
(253,716,l),
(135,779,l),
(20,804,l)
);
},
{
closed = 1;
nodes = (
(28,786,l),
(28,691,l),
(416,691,l),
(416,786,l)
);
},
{
closed = 1;
nodes = (
(416,786,l),
(416,691,l),
(804,691,l),
(804,786,l)
);
},
{
closed = 1;
nodes = (
(1123,553,o),
(1100,550,o),
(1083,545,c),
(946,435,l),
(976,362,l),
(1011,382,o),
(1045,388,o),
(1070,388,cs),
(1112,388,o),
(1126,366,o),
(1126,309,cs),
(1126,0,l),
(1326,0,l),
(1326,399,ls),
(1326,493,o),
(1257,553,o),
(1148,553,cs)
);
},
{
closed = 1;
nodes = (
(1137,71,l),
(1137,0,l),
(1376,0,l),
(1416,80,l),
(1143,164,l)
);
},
{
closed = 1;
nodes = (
(786,779,l),
(786,0,l),
(986,0,l),
(986,873,l)
);
},
{
closed = 1;
nodes = (
(697,71,l),
(697,0,l),
(1036,0,l),
(1076,80,l),
(803,164,l)
);
},
{
closed = 1;
nodes = (
(908,873,l),
(697,784,l),
(697,713,l),
(949,548,l),
(986,873,l)
);
}
);
};
layerId = "2CCCAF06-0AAA-44C6-8F00-0A68246BB68E";
name = Bold;
shapes = (
{
closed = 1;
nodes = (
(307,786,l),
(307,0,l),
(522,0,l),
(522,786,l)
);
},
{
closed = 1;
nodes = (
(213,71,l),
(213,0,l),
(597,0,l),
(637,80,l),
(319,154,l)
);
},
{
closed = 1;
nodes = (
(20,514,l),
(90,484,l),
(253,716,l),
(135,779,l),
(20,804,l)
);
},
{
closed = 1;
nodes = (
(28,786,l),
(28,691,l),
(416,691,l),
(416,786,l)
);
},
{
closed = 1;
nodes = (
(416,786,l),
(416,691,l),
(804,691,l),
(804,786,l)
);
},
{
closed = 1;
nodes = (
(1123,553,o),
(1100,550,o),
(1083,545,c),
(946,435,l),
(976,362,l),
(1011,382,o),
(1045,388,o),
(1070,388,cs),
(1112,388,o),
(1126,366,o),
(1126,309,cs),
(1126,0,l),
(1326,0,l),
(1326,399,ls),
(1326,493,o),
(1257,553,o),
(1148,553,cs)
);
},
{
closed = 1;
nodes = (
(1137,71,l),
(1137,0,l),
(1376,0,l),
(1416,80,l),
(1143,164,l)
);
},
{
closed = 1;
nodes = (
(786,779,l),
(786,0,l),
(986,0,l),
(986,873,l)
);
},
{
closed = 1;
nodes = (
(697,71,l),
(697,0,l),
(1036,0,l),
(1076,80,l),
(803,164,l)
);
},
{
closed = 1;
nodes = (
(908,873,l),
(697,784,l),
(697,693,l),
(949,528,l),
(986,873,l)
);
}
);
width = 1421;
}
);
metricLeft = T;
metricRight = h;
},
{
color = 8;
glyphname = c_t;
kernLeft = o;
kernRight = t;
lastChange = "2014-11-01 14:54:46 +0000";
layers = (
{
layerId = "E07B5D26-C0CD-4D0E-A705-659FB2222D21";
metricLeft = "=o";
name = Regular;
shapes = (
{
closed = 1;
nodes = (
(519,853,o),
(343,722,o),
(343,560,cs),
(343,536,o),
(343,515,o),
(405,504,c),
(525,504,l),
(487,531,o),
(463,568,o),
(463,608,cs),
(463,713,o),
(519,769,o),
(586,769,cs),
(643,769,o),
(720,712,o),
(757,614,c),
(857,722,l),
(820,785,o),
(719,853,o),
(654,853,cs)
);
},
{
ref = c;
},
{
pos = (613,0);
ref = t;
}
);
width = 1069;
},
{
layerId = "2CCCAF06-0AAA-44C6-8F00-0A68246BB68E";
metricLeft = "=o";
name = Bold;
shapes = (
{
closed = 1;
nodes = (
(549,853,o),
(358,722,o),
(358,554,cs),
(358,542,o),
(358,529,o),
(385,516,c),
(585,516,l),
(568,553,o),
(558,590,o),
(558,626,cs),
(558,689,o),
(592,723,o),
(644,723,cs),
(703,723,o),
(764,653,o),
(803,540,c),
(961,734,l),
(910,792,o),
(775,853,o),
(688,853,cs)
);
},
{
ref = c;
},
{
pos = (653,0);
ref = t;
}
);
width = 1168;
}
);
metricLeft = c;
metricRight = t;
},
{
color = 8;
glyphname = f_adieresis.liga;
kernLeft = f;
kernRight = n;
lastChange = "2014-11-01 14:54:46 +0000";
layers = (
{
layerId = "E07B5D26-C0CD-4D0E-A705-659FB2222D21";
name = Regular;
shapes = (
{
closed = 1;
nodes = (
(313,883,o),
(143,752,o),
(143,590,cs),
(143,0,l),
(263,0,l),
(263,638,ls),
(263,743,o),
(303,799,o),
(386,799,cs),
(481,799,o),
(512,790,o),
(539,731,cs),
(554,699,o),
(573,690,o),
(595,690,cs),
(634,690,o),
(677,729,o),
(677,773,cs),
(677,801,o),
(665,827,o),
(638,842,cs),
(609,858,o),
(512,883,o),
(444,883,cs)
);
},
{
closed = 1;
nodes = (
(25,501,l),
(25,460,l),
(444,460,l),
(444,501,l)
);
},
{
closed = 1;
nodes = (
(54,31,l),
(54,0,l),
(383,0,l),
(403,40,l),
(160,114,l)
);
},
{
closed = 1;
nodes = (
(850,846,o),
(804,809,o),
(804,763,cs),
(804,722,o),
(830,690,o),
(866,690,cs),
(901,690,o),
(947,727,o),
(947,773,cs),
(947,814,o),
(922,846,o),
(885,846,cs)
);
},
{
pos = (442,0);
ref = a;
}
);
width = 1063;
},
{
layerId = "2CCCAF06-0AAA-44C6-8F00-0A68246BB68E";
name = Bold;
shapes = (
{
closed = 1;
nodes = (
(319,883,o),
(124,752,o),
(124,584,cs),
(124,0,l),
(324,0,l),
(324,656,ls),
(324,719,o),
(358,753,o),
(414,753,cs),
(489,753,o),
(524,743,o),
(553,702,cs),
(568,681,o),
(590,660,o),
(633,660,cs),
(697,660,o),
(763,717,o),
(763,766,cs),
(763,808,o),
(740,846,o),
(701,861,cs),
(660,878,o),
(536,883,o),
(458,883,cs)
);
},
{
closed = 1;
nodes = (
(25,513,l),
(25,432,l),
(485,432,l),
(485,513,l)
);
},
{
closed = 1;
nodes = (
(35,71,l),
(35,0,l),
(444,0,l),
(484,80,l),
(141,164,l)
);
},
{
closed = 1;
nodes = (
(920,867,o),
(848,817,o),
(848,756,cs),
(848,702,o),
(889,660,o),
(945,660,cs),
(1001,660,o),
(1073,709,o),
(1073,770,cs),
(1073,824,o),
(1033,867,o),
(975,867,cs)
);
},
{
pos = (478,0);
ref = a;
}
);
width = 1169;
}
);
metricLeft = f;
metricRight = adieresis;
},
